  0
SECTION
  2
HEADER
  9
$ANGBASE
  50
0.0
  9
$ANGDIR
  70
1
  9
$MEASUREMENT
  70
0
  0
ENDSEC
  0
SECTION
  2
TABLES
  0
TABLE
  2
LTYPE
  70
4
  0
LTYPE
  5
40F
  2
CONTINUOUS
  70
0
  3
Solid line
  72
65
  73
0
  40
0.0
  0
LTYPE
  5
410
  2
DASHDOT
 70
0
  3
Dash Dot ____ _ ____ _
 72
65
 73
4
 40
2.0
 49
1.25
 49
-0.25
 49
0.25
 49
-0.25
  0
LTYPE
  5
411
  2
DASHED
 70
0
  3
Dashed __ __ __ __ __
 72
65
 73
2
 40
0.75
 49
0.5
 49
-0.25
  0
LTYPE
  5
43B
  2
DOTTED
 70
0
  3
Dotted .  .  .  .
 72
65
 73
2
 40
0.2
 49
0.0
 49
-0.2
  0
ENDTAB
  0
TABLE
  2
STYLE
  70
4
  0
STYLE
  2
KICAD
  70
0
  40
0
  41
1
  42
1
  50
0
  71
0
  3
isocp.shx
  0
STYLE
  2
KICADB
  70
0
  40
0
  41
1
  42
1
  50
0
  71
0
  3
isocp.shx
  0
STYLE
  2
KICADI
  70
0
  40
0
  41
1
  42
1
  50
15
  71
0
  3
isocp.shx
  0
STYLE
  2
KICADBI
  70
0
  40
0
  41
1
  42
1
  50
15
  71
0
  3
isocp.shx
  0
ENDTAB
  0
TABLE
  2
LAYER
  70
1
  0
LAYER
  2
BLACK
  70
0
  62
7
  6
CONTINUOUS
  0
ENDTAB
  0
ENDSEC
  0
SECTION
  2
ENTITIES
0
LINE
8
BLACK
6
CONTINUOUS
10
1.2469669685039371
20
-3.5718333464566929
11
1.2482453937007874
21
-3.5731117716535432
0
LINE
8
BLACK
6
CONTINUOUS
10
1.2482453937007874
20
-3.5731117716535432
11
1.2484251968503937
21
-3.574015748031496
0
LINE
8
BLACK
6
CONTINUOUS
10
1.2484251968503937
20
-3.574015748031496
11
1.2484251968503937
21
-3.6881889763779525
0
LINE
8
BLACK
6
CONTINUOUS
10
1.2484251968503937
20
-3.6881889763779525
11
1.2482453937007874
21
-3.6890929527559053
0
LINE
8
BLACK
6
CONTINUOUS
10
1.2482453937007874
20
-3.6890929527559053
11
1.2469669685039371
21
-3.6903713779527556
0
LINE
8
BLACK
6
CONTINUOUS
10
1.2469669685039371
20
-3.6903713779527556
11
1.2460629921259843
21
-3.6905511811023621
0
LINE
8
BLACK
6
CONTINUOUS
10
1.2460629921259843
20
-3.6905511811023621
11
1.1161417322834646
21
-3.6905511811023621
0
LINE
8
BLACK
6
CONTINUOUS
10
1.1161417322834646
20
-3.6905511811023621
11
1.1152377559055118
21
-3.6903713779527556
0
LINE
8
BLACK
6
CONTINUOUS
10
1.1152377559055118
20
-3.6903713779527556
11
1.1139593307086615
21
-3.6890929527559053
0
LINE
8
BLACK
6
CONTINUOUS
10
1.1139593307086615
20
-3.6890929527559053
11
1.1137795275590552
21
-3.6881889763779525
0
LINE
8
BLACK
6
CONTINUOUS
10
1.1137795275590552
20
-3.6881889763779525
11
1.1137795275590552
21
-3.574015748031496
0
LINE
8
BLACK
6
CONTINUOUS
10
1.1137795275590552
20
-3.574015748031496
11
1.1139593307086615
21
-3.5731117716535432
0
LINE
8
BLACK
6
CONTINUOUS
10
1.1139593307086615
20
-3.5731117716535432
11
1.1152377559055118
21
-3.5718333464566929
0
LINE
8
BLACK
6
CONTINUOUS
10
1.1152377559055118
20
-3.5718333464566929
11
1.1161417322834646
21
-3.5716535433070864
0
LINE
8
BLACK
6
CONTINUOUS
10
1.1161417322834646
20
-3.5716535433070864
11
1.2460629921259843
21
-3.5716535433070864
0
LINE
8
BLACK
6
CONTINUOUS
10
1.2460629921259843
20
-3.5716535433070864
11
1.2469669685039371
21
-3.5718333464566929
0
LINE
8
BLACK
6
CONTINUOUS
10
1.118503937007874
20
-3.5763779527559056
11
1.118503937007874
21
-3.6858267716535433
0
LINE
8
BLACK
6
CONTINUOUS
10
1.118503937007874
20
-3.6858267716535433
11
1.2437007874015749
21
-3.6858267716535433
0
LINE
8
BLACK
6
CONTINUOUS
10
1.2437007874015749
20
-3.6858267716535433
11
1.2437007874015749
21
-3.5763779527559056
0
LINE
8
BLACK
6
CONTINUOUS
10
1.2437007874015749
20
-3.5763779527559056
11
1.118503937007874
21
-3.5763779527559056
0
LINE
8
BLACK
6
CONTINUOUS
10
1.9969669685039371
20
-3.5718333464566929
11
1.9982453937007874
21
-3.5731117716535432
0
LINE
8
BLACK
6
CONTINUOUS
10
1.9982453937007874
20
-3.5731117716535432
11
1.9984251968503937
21
-3.574015748031496
0
LINE
8
BLACK
6
CONTINUOUS
10
1.9984251968503937
20
-3.574015748031496
11
1.9984251968503937
21
-3.6881889763779525
0
LINE
8
BLACK
6
CONTINUOUS
10
1.9984251968503937
20
-3.6881889763779525
11
1.9982453937007874
21
-3.6890929527559053
0
LINE
8
BLACK
6
CONTINUOUS
10
1.9982453937007874
20
-3.6890929527559053
11
1.9969669685039371
21
-3.6903713779527556
0
LINE
8
BLACK
6
CONTINUOUS
10
1.9969669685039371
20
-3.6903713779527556
11
1.9960629921259843
21
-3.6905511811023621
0
LINE
8
BLACK
6
CONTINUOUS
10
1.9960629921259843
20
-3.6905511811023621
11
1.8661417322834646
21
-3.6905511811023621
0
LINE
8
BLACK
6
CONTINUOUS
10
1.8661417322834646
20
-3.6905511811023621
11
1.8652377559055118
21
-3.6903713779527556
0
LINE
8
BLACK
6
CONTINUOUS
10
1.8652377559055118
20
-3.6903713779527556
11
1.8639593307086613
21
-3.6890929527559053
0
LINE
8
BLACK
6
CONTINUOUS
10
1.8639593307086613
20
-3.6890929527559053
11
1.8637795275590552
21
-3.6881889763779525
0
LINE
8
BLACK
6
CONTINUOUS
10
1.8637795275590552
20
-3.6881889763779525
11
1.8637795275590552
21
-3.574015748031496
0
LINE
8
BLACK
6
CONTINUOUS
10
1.8637795275590552
20
-3.574015748031496
11
1.8639593307086613
21
-3.5731117716535432
0
LINE
8
BLACK
6
CONTINUOUS
10
1.8639593307086613
20
-3.5731117716535432
11
1.8652377559055118
21
-3.5718333464566929
0
LINE
8
BLACK
6
CONTINUOUS
10
1.8652377559055118
20
-3.5718333464566929
11
1.8661417322834646
21
-3.5716535433070864
0
LINE
8
BLACK
6
CONTINUOUS
10
1.8661417322834646
20
-3.5716535433070864
11
1.9960629921259843
21
-3.5716535433070864
0
LINE
8
BLACK
6
CONTINUOUS
10
1.9960629921259843
20
-3.5716535433070864
11
1.9969669685039371
21
-3.5718333464566929
0
LINE
8
BLACK
6
CONTINUOUS
10
1.868503937007874
20
-3.5763779527559056
11
1.868503937007874
21
-3.6858267716535433
0
LINE
8
BLACK
6
CONTINUOUS
10
1.868503937007874
20
-3.6858267716535433
11
1.9937007874015749
21
-3.6858267716535433
0
LINE
8
BLACK
6
CONTINUOUS
10
1.9937007874015749
20
-3.6858267716535433
11
1.9937007874015749
21
-3.5763779527559056
0
LINE
8
BLACK
6
CONTINUOUS
10
1.9937007874015749
20
-3.5763779527559056
11
1.868503937007874
21
-3.5763779527559056
0
LINE
8
BLACK
6
CONTINUOUS
10
7.2469669685039371
20
-3.5718333464566929
11
7.2482453937007874
21
-3.5731117716535432
0
LINE
8
BLACK
6
CONTINUOUS
10
7.2482453937007874
20
-3.5731117716535432
11
7.2484251968503939
21
-3.574015748031496
0
LINE
8
BLACK
6
CONTINUOUS
10
7.2484251968503939
20
-3.574015748031496
11
7.2484251968503939
21
-3.6881889763779525
0
LINE
8
BLACK
6
CONTINUOUS
10
7.2484251968503939
20
-3.6881889763779525
11
7.2482453937007874
21
-3.6890929527559053
0
LINE
8
BLACK
6
CONTINUOUS
10
7.2482453937007874
20
-3.6890929527559053
11
7.2469669685039371
21
-3.6903713779527556
0
LINE
8
BLACK
6
CONTINUOUS
10
7.2469669685039371
20
-3.6903713779527556
11
7.2460629921259843
21
-3.6905511811023621
0
LINE
8
BLACK
6
CONTINUOUS
10
7.2460629921259843
20
-3.6905511811023621
11
7.1161417322834648
21
-3.6905511811023621
0
LINE
8
BLACK
6
CONTINUOUS
10
7.1161417322834648
20
-3.6905511811023621
11
7.115237755905512
21
-3.6903713779527556
0
LINE
8
BLACK
6
CONTINUOUS
10
7.115237755905512
20
-3.6903713779527556
11
7.1139593307086608
21
-3.6890929527559053
0
LINE
8
BLACK
6
CONTINUOUS
10
7.1139593307086608
20
-3.6890929527559053
11
7.1137795275590552
21
-3.6881889763779525
0
LINE
8
BLACK
6
CONTINUOUS
10
7.1137795275590552
20
-3.6881889763779525
11
7.1137795275590552
21
-3.574015748031496
0
LINE
8
BLACK
6
CONTINUOUS
10
7.1137795275590552
20
-3.574015748031496
11
7.1139593307086608
21
-3.5731117716535432
0
LINE
8
BLACK
6
CONTINUOUS
10
7.1139593307086608
20
-3.5731117716535432
11
7.115237755905512
21
-3.5718333464566929
0
LINE
8
BLACK
6
CONTINUOUS
10
7.115237755905512
20
-3.5718333464566929
11
7.1161417322834648
21
-3.5716535433070864
0
LINE
8
BLACK
6
CONTINUOUS
10
7.1161417322834648
20
-3.5716535433070864
11
7.2460629921259843
21
-3.5716535433070864
0
LINE
8
BLACK
6
CONTINUOUS
10
7.2460629921259843
20
-3.5716535433070864
11
7.2469669685039371
21
-3.5718333464566929
0
LINE
8
BLACK
6
CONTINUOUS
10
7.1185039370078735
20
-3.5763779527559056
11
7.1185039370078735
21
-3.6858267716535433
0
LINE
8
BLACK
6
CONTINUOUS
10
7.1185039370078735
20
-3.6858267716535433
11
7.2437007874015746
21
-3.6858267716535433
0
LINE
8
BLACK
6
CONTINUOUS
10
7.2437007874015746
20
-3.6858267716535433
11
7.2437007874015746
21
-3.5763779527559056
0
LINE
8
BLACK
6
CONTINUOUS
10
7.2437007874015746
20
-3.5763779527559056
11
7.1185039370078735
21
-3.5763779527559056
0
LINE
8
BLACK
6
CONTINUOUS
10
7.9969669685039371
20
-3.5718333464566929
11
7.9982453937007874
21
-3.5731117716535432
0
LINE
8
BLACK
6
CONTINUOUS
10
7.9982453937007874
20
-3.5731117716535432
11
7.9984251968503939
21
-3.574015748031496
0
LINE
8
BLACK
6
CONTINUOUS
10
7.9984251968503939
20
-3.574015748031496
11
7.9984251968503939
21
-3.6881889763779525
0
LINE
8
BLACK
6
CONTINUOUS
10
7.9984251968503939
20
-3.6881889763779525
11
7.9982453937007874
21
-3.6890929527559053
0
LINE
8
BLACK
6
CONTINUOUS
10
7.9982453937007874
20
-3.6890929527559053
11
7.9969669685039371
21
-3.6903713779527556
0
LINE
8
BLACK
6
CONTINUOUS
10
7.9969669685039371
20
-3.6903713779527556
11
7.9960629921259843
21
-3.6905511811023621
0
LINE
8
BLACK
6
CONTINUOUS
10
7.9960629921259843
20
-3.6905511811023621
11
7.8661417322834648
21
-3.6905511811023621
0
LINE
8
BLACK
6
CONTINUOUS
10
7.8661417322834648
20
-3.6905511811023621
11
7.865237755905512
21
-3.6903713779527556
0
LINE
8
BLACK
6
CONTINUOUS
10
7.865237755905512
20
-3.6903713779527556
11
7.8639593307086608
21
-3.6890929527559053
0
LINE
8
BLACK
6
CONTINUOUS
10
7.8639593307086608
20
-3.6890929527559053
11
7.8637795275590552
21
-3.6881889763779525
0
LINE
8
BLACK
6
CONTINUOUS
10
7.8637795275590552
20
-3.6881889763779525
11
7.8637795275590552
21
-3.574015748031496
0
LINE
8
BLACK
6
CONTINUOUS
10
7.8637795275590552
20
-3.574015748031496
11
7.8639593307086608
21
-3.5731117716535432
0
LINE
8
BLACK
6
CONTINUOUS
10
7.8639593307086608
20
-3.5731117716535432
11
7.865237755905512
21
-3.5718333464566929
0
LINE
8
BLACK
6
CONTINUOUS
10
7.865237755905512
20
-3.5718333464566929
11
7.8661417322834648
21
-3.5716535433070864
0
LINE
8
BLACK
6
CONTINUOUS
10
7.8661417322834648
20
-3.5716535433070864
11
7.9960629921259843
21
-3.5716535433070864
0
LINE
8
BLACK
6
CONTINUOUS
10
7.9960629921259843
20
-3.5716535433070864
11
7.9969669685039371
21
-3.5718333464566929
0
LINE
8
BLACK
6
CONTINUOUS
10
7.8685039370078735
20
-3.5763779527559056
11
7.8685039370078735
21
-3.6858267716535433
0
LINE
8
BLACK
6
CONTINUOUS
10
7.8685039370078735
20
-3.6858267716535433
11
7.9937007874015746
21
-3.6858267716535433
0
LINE
8
BLACK
6
CONTINUOUS
10
7.9937007874015746
20
-3.6858267716535433
11
7.9937007874015746
21
-3.5763779527559056
0
LINE
8
BLACK
6
CONTINUOUS
10
7.9937007874015746
20
-3.5763779527559056
11
7.8685039370078735
21
-3.5763779527559056
0
LINE
8
BLACK
6
CONTINUOUS
10
2.7469669685039371
20
-3.5127782283464568
11
2.7482453937007874
21
-3.5140566535433071
0
LINE
8
BLACK
6
CONTINUOUS
10
2.7482453937007874
20
-3.5140566535433071
11
2.7484251968503934
21
-3.5149606299212599
0
LINE
8
BLACK
6
CONTINUOUS
10
2.7484251968503934
20
-3.5149606299212599
11
2.7484251968503934
21
-3.6291338582677164
0
LINE
8
BLACK
6
CONTINUOUS
10
2.7484251968503934
20
-3.6291338582677164
11
2.7482453937007874
21
-3.6300378346456692
0
LINE
8
BLACK
6
CONTINUOUS
10
2.7482453937007874
20
-3.6300378346456692
11
2.7469669685039371
21
-3.6313162598425195
0
LINE
8
BLACK
6
CONTINUOUS
10
2.7469669685039371
20
-3.6313162598425195
11
2.7460629921259843
21
-3.631496062992126
0
LINE
8
BLACK
6
CONTINUOUS
10
2.7460629921259843
20
-3.631496062992126
11
2.6161417322834644
21
-3.631496062992126
0
LINE
8
BLACK
6
CONTINUOUS
10
2.6161417322834644
20
-3.631496062992126
11
2.6152377559055116
21
-3.6313162598425195
0
LINE
8
BLACK
6
CONTINUOUS
10
2.6152377559055116
20
-3.6313162598425195
11
2.6139593307086613
21
-3.6300378346456692
0
LINE
8
BLACK
6
CONTINUOUS
10
2.6139593307086613
20
-3.6300378346456692
11
2.6137795275590552
21
-3.6291338582677164
0
LINE
8
BLACK
6
CONTINUOUS
10
2.6137795275590552
20
-3.6291338582677164
11
2.6137795275590552
21
-3.5149606299212599
0
LINE
8
BLACK
6
CONTINUOUS
10
2.6137795275590552
20
-3.5149606299212599
11
2.6139593307086613
21
-3.5140566535433071
0
LINE
8
BLACK
6
CONTINUOUS
10
2.6139593307086613
20
-3.5140566535433071
11
2.6152377559055116
21
-3.5127782283464568
0
LINE
8
BLACK
6
CONTINUOUS
10
2.6152377559055116
20
-3.5127782283464568
11
2.6161417322834644
21
-3.5125984251968503
0
LINE
8
BLACK
6
CONTINUOUS
10
2.6161417322834644
20
-3.5125984251968503
11
2.7460629921259843
21
-3.5125984251968503
0
LINE
8
BLACK
6
CONTINUOUS
10
2.7460629921259843
20
-3.5125984251968503
11
2.7469669685039371
21
-3.5127782283464568
0
LINE
8
BLACK
6
CONTINUOUS
10
2.618503937007874
20
-3.5173228346456691
11
2.618503937007874
21
-3.6267716535433072
0
LINE
8
BLACK
6
CONTINUOUS
10
2.618503937007874
20
-3.6267716535433072
11
2.7437007874015746
21
-3.6267716535433072
0
LINE
8
BLACK
6
CONTINUOUS
10
2.7437007874015746
20
-3.6267716535433072
11
2.7437007874015746
21
-3.5173228346456691
0
LINE
8
BLACK
6
CONTINUOUS
10
2.7437007874015746
20
-3.5173228346456691
11
2.618503937007874
21
-3.5173228346456691
0
LINE
8
BLACK
6
CONTINUOUS
10
3.4969669685039371
20
-3.5127782283464568
11
3.4982453937007874
21
-3.5140566535433071
0
LINE
8
BLACK
6
CONTINUOUS
10
3.4982453937007874
20
-3.5140566535433071
11
3.4984251968503934
21
-3.5149606299212599
0
LINE
8
BLACK
6
CONTINUOUS
10
3.4984251968503934
20
-3.5149606299212599
11
3.4984251968503934
21
-3.6291338582677164
0
LINE
8
BLACK
6
CONTINUOUS
10
3.4984251968503934
20
-3.6291338582677164
11
3.4982453937007874
21
-3.6300378346456692
0
LINE
8
BLACK
6
CONTINUOUS
10
3.4982453937007874
20
-3.6300378346456692
11
3.4969669685039371
21
-3.6313162598425195
0
LINE
8
BLACK
6
CONTINUOUS
10
3.4969669685039371
20
-3.6313162598425195
11
3.4960629921259843
21
-3.631496062992126
0
LINE
8
BLACK
6
CONTINUOUS
10
3.4960629921259843
20
-3.631496062992126
11
3.3661417322834644
21
-3.631496062992126
0
LINE
8
BLACK
6
CONTINUOUS
10
3.3661417322834644
20
-3.631496062992126
11
3.3652377559055116
21
-3.6313162598425195
0
LINE
8
BLACK
6
CONTINUOUS
10
3.3652377559055116
20
-3.6313162598425195
11
3.3639593307086613
21
-3.6300378346456692
0
LINE
8
BLACK
6
CONTINUOUS
10
3.3639593307086613
20
-3.6300378346456692
11
3.3637795275590552
21
-3.6291338582677164
0
LINE
8
BLACK
6
CONTINUOUS
10
3.3637795275590552
20
-3.6291338582677164
11
3.3637795275590552
21
-3.5149606299212599
0
LINE
8
BLACK
6
CONTINUOUS
10
3.3637795275590552
20
-3.5149606299212599
11
3.3639593307086613
21
-3.5140566535433071
0
LINE
8
BLACK
6
CONTINUOUS
10
3.3639593307086613
20
-3.5140566535433071
11
3.3652377559055116
21
-3.5127782283464568
0
LINE
8
BLACK
6
CONTINUOUS
10
3.3652377559055116
20
-3.5127782283464568
11
3.3661417322834644
21
-3.5125984251968503
0
LINE
8
BLACK
6
CONTINUOUS
10
3.3661417322834644
20
-3.5125984251968503
11
3.4960629921259843
21
-3.5125984251968503
0
LINE
8
BLACK
6
CONTINUOUS
10
3.4960629921259843
20
-3.5125984251968503
11
3.4969669685039371
21
-3.5127782283464568
0
LINE
8
BLACK
6
CONTINUOUS
10
3.368503937007874
20
-3.5173228346456691
11
3.368503937007874
21
-3.6267716535433072
0
LINE
8
BLACK
6
CONTINUOUS
10
3.368503937007874
20
-3.6267716535433072
11
3.4937007874015746
21
-3.6267716535433072
0
LINE
8
BLACK
6
CONTINUOUS
10
3.4937007874015746
20
-3.6267716535433072
11
3.4937007874015746
21
-3.5173228346456691
0
LINE
8
BLACK
6
CONTINUOUS
10
3.4937007874015746
20
-3.5173228346456691
11
3.368503937007874
21
-3.5173228346456691
0
LINE
8
BLACK
6
CONTINUOUS
10
4.2469669685039371
20
-3.5127782283464568
11
4.2482453937007874
21
-3.5140566535433071
0
LINE
8
BLACK
6
CONTINUOUS
10
4.2482453937007874
20
-3.5140566535433071
11
4.2484251968503939
21
-3.5149606299212599
0
LINE
8
BLACK
6
CONTINUOUS
10
4.2484251968503939
20
-3.5149606299212599
11
4.2484251968503939
21
-3.6291338582677164
0
LINE
8
BLACK
6
CONTINUOUS
10
4.2484251968503939
20
-3.6291338582677164
11
4.2482453937007874
21
-3.6300378346456692
0
LINE
8
BLACK
6
CONTINUOUS
10
4.2482453937007874
20
-3.6300378346456692
11
4.2469669685039371
21
-3.6313162598425195
0
LINE
8
BLACK
6
CONTINUOUS
10
4.2469669685039371
20
-3.6313162598425195
11
4.2460629921259843
21
-3.631496062992126
0
LINE
8
BLACK
6
CONTINUOUS
10
4.2460629921259843
20
-3.631496062992126
11
4.1161417322834648
21
-3.631496062992126
0
LINE
8
BLACK
6
CONTINUOUS
10
4.1161417322834648
20
-3.631496062992126
11
4.115237755905512
21
-3.6313162598425195
0
LINE
8
BLACK
6
CONTINUOUS
10
4.115237755905512
20
-3.6313162598425195
11
4.1139593307086617
21
-3.6300378346456692
0
LINE
8
BLACK
6
CONTINUOUS
10
4.1139593307086617
20
-3.6300378346456692
11
4.1137795275590552
21
-3.6291338582677164
0
LINE
8
BLACK
6
CONTINUOUS
10
4.1137795275590552
20
-3.6291338582677164
11
4.1137795275590552
21
-3.5149606299212599
0
LINE
8
BLACK
6
CONTINUOUS
10
4.1137795275590552
20
-3.5149606299212599
11
4.1139593307086617
21
-3.5140566535433071
0
LINE
8
BLACK
6
CONTINUOUS
10
4.1139593307086617
20
-3.5140566535433071
11
4.115237755905512
21
-3.5127782283464568
0
LINE
8
BLACK
6
CONTINUOUS
10
4.115237755905512
20
-3.5127782283464568
11
4.1161417322834648
21
-3.5125984251968503
0
LINE
8
BLACK
6
CONTINUOUS
10
4.1161417322834648
20
-3.5125984251968503
11
4.2460629921259843
21
-3.5125984251968503
0
LINE
8
BLACK
6
CONTINUOUS
10
4.2460629921259843
20
-3.5125984251968503
11
4.2469669685039371
21
-3.5127782283464568
0
LINE
8
BLACK
6
CONTINUOUS
10
4.1185039370078735
20
-3.5173228346456691
11
4.1185039370078735
21
-3.6267716535433072
0
LINE
8
BLACK
6
CONTINUOUS
10
4.1185039370078735
20
-3.6267716535433072
11
4.2437007874015746
21
-3.6267716535433072
0
LINE
8
BLACK
6
CONTINUOUS
10
4.2437007874015746
20
-3.6267716535433072
11
4.2437007874015746
21
-3.5173228346456691
0
LINE
8
BLACK
6
CONTINUOUS
10
4.2437007874015746
20
-3.5173228346456691
11
4.1185039370078735
21
-3.5173228346456691
0
LINE
8
BLACK
6
CONTINUOUS
10
4.9969669685039371
20
-3.5127782283464568
11
4.9982453937007874
21
-3.5140566535433071
0
LINE
8
BLACK
6
CONTINUOUS
10
4.9982453937007874
20
-3.5140566535433071
11
4.9984251968503939
21
-3.5149606299212599
0
LINE
8
BLACK
6
CONTINUOUS
10
4.9984251968503939
20
-3.5149606299212599
11
4.9984251968503939
21
-3.6291338582677164
0
LINE
8
BLACK
6
CONTINUOUS
10
4.9984251968503939
20
-3.6291338582677164
11
4.9982453937007874
21
-3.6300378346456692
0
LINE
8
BLACK
6
CONTINUOUS
10
4.9982453937007874
20
-3.6300378346456692
11
4.9969669685039371
21
-3.6313162598425195
0
LINE
8
BLACK
6
CONTINUOUS
10
4.9969669685039371
20
-3.6313162598425195
11
4.9960629921259843
21
-3.631496062992126
0
LINE
8
BLACK
6
CONTINUOUS
10
4.9960629921259843
20
-3.631496062992126
11
4.8661417322834648
21
-3.631496062992126
0
LINE
8
BLACK
6
CONTINUOUS
10
4.8661417322834648
20
-3.631496062992126
11
4.865237755905512
21
-3.6313162598425195
0
LINE
8
BLACK
6
CONTINUOUS
10
4.865237755905512
20
-3.6313162598425195
11
4.8639593307086617
21
-3.6300378346456692
0
LINE
8
BLACK
6
CONTINUOUS
10
4.8639593307086617
20
-3.6300378346456692
11
4.8637795275590552
21
-3.6291338582677164
0
LINE
8
BLACK
6
CONTINUOUS
10
4.8637795275590552
20
-3.6291338582677164
11
4.8637795275590552
21
-3.5149606299212599
0
LINE
8
BLACK
6
CONTINUOUS
10
4.8637795275590552
20
-3.5149606299212599
11
4.8639593307086617
21
-3.5140566535433071
0
LINE
8
BLACK
6
CONTINUOUS
10
4.8639593307086617
20
-3.5140566535433071
11
4.865237755905512
21
-3.5127782283464568
0
LINE
8
BLACK
6
CONTINUOUS
10
4.865237755905512
20
-3.5127782283464568
11
4.8661417322834648
21
-3.5125984251968503
0
LINE
8
BLACK
6
CONTINUOUS
10
4.8661417322834648
20
-3.5125984251968503
11
4.9960629921259843
21
-3.5125984251968503
0
LINE
8
BLACK
6
CONTINUOUS
10
4.9960629921259843
20
-3.5125984251968503
11
4.9969669685039371
21
-3.5127782283464568
0
LINE
8
BLACK
6
CONTINUOUS
10
4.8685039370078735
20
-3.5173228346456691
11
4.8685039370078735
21
-3.6267716535433072
0
LINE
8
BLACK
6
CONTINUOUS
10
4.8685039370078735
20
-3.6267716535433072
11
4.9937007874015746
21
-3.6267716535433072
0
LINE
8
BLACK
6
CONTINUOUS
10
4.9937007874015746
20
-3.6267716535433072
11
4.9937007874015746
21
-3.5173228346456691
0
LINE
8
BLACK
6
CONTINUOUS
10
4.9937007874015746
20
-3.5173228346456691
11
4.8685039370078735
21
-3.5173228346456691
0
LINE
8
BLACK
6
CONTINUOUS
10
5.7469669685039371
20
-3.5127782283464568
11
5.7482453937007874
21
-3.5140566535433071
0
LINE
8
BLACK
6
CONTINUOUS
10
5.7482453937007874
20
-3.5140566535433071
11
5.7484251968503939
21
-3.5149606299212599
0
LINE
8
BLACK
6
CONTINUOUS
10
5.7484251968503939
20
-3.5149606299212599
11
5.7484251968503939
21
-3.6291338582677164
0
LINE
8
BLACK
6
CONTINUOUS
10
5.7484251968503939
20
-3.6291338582677164
11
5.7482453937007874
21
-3.6300378346456692
0
LINE
8
BLACK
6
CONTINUOUS
10
5.7482453937007874
20
-3.6300378346456692
11
5.7469669685039371
21
-3.6313162598425195
0
LINE
8
BLACK
6
CONTINUOUS
10
5.7469669685039371
20
-3.6313162598425195
11
5.7460629921259843
21
-3.631496062992126
0
LINE
8
BLACK
6
CONTINUOUS
10
5.7460629921259843
20
-3.631496062992126
11
5.6161417322834648
21
-3.631496062992126
0
LINE
8
BLACK
6
CONTINUOUS
10
5.6161417322834648
20
-3.631496062992126
11
5.615237755905512
21
-3.6313162598425195
0
LINE
8
BLACK
6
CONTINUOUS
10
5.615237755905512
20
-3.6313162598425195
11
5.6139593307086617
21
-3.6300378346456692
0
LINE
8
BLACK
6
CONTINUOUS
10
5.6139593307086617
20
-3.6300378346456692
11
5.6137795275590552
21
-3.6291338582677164
0
LINE
8
BLACK
6
CONTINUOUS
10
5.6137795275590552
20
-3.6291338582677164
11
5.6137795275590552
21
-3.5149606299212599
0
LINE
8
BLACK
6
CONTINUOUS
10
5.6137795275590552
20
-3.5149606299212599
11
5.6139593307086617
21
-3.5140566535433071
0
LINE
8
BLACK
6
CONTINUOUS
10
5.6139593307086617
20
-3.5140566535433071
11
5.615237755905512
21
-3.5127782283464568
0
LINE
8
BLACK
6
CONTINUOUS
10
5.615237755905512
20
-3.5127782283464568
11
5.6161417322834648
21
-3.5125984251968503
0
LINE
8
BLACK
6
CONTINUOUS
10
5.6161417322834648
20
-3.5125984251968503
11
5.7460629921259843
21
-3.5125984251968503
0
LINE
8
BLACK
6
CONTINUOUS
10
5.7460629921259843
20
-3.5125984251968503
11
5.7469669685039371
21
-3.5127782283464568
0
LINE
8
BLACK
6
CONTINUOUS
10
5.6185039370078735
20
-3.5173228346456691
11
5.6185039370078735
21
-3.6267716535433072
0
LINE
8
BLACK
6
CONTINUOUS
10
5.6185039370078735
20
-3.6267716535433072
11
5.7437007874015746
21
-3.6267716535433072
0
LINE
8
BLACK
6
CONTINUOUS
10
5.7437007874015746
20
-3.6267716535433072
11
5.7437007874015746
21
-3.5173228346456691
0
LINE
8
BLACK
6
CONTINUOUS
10
5.7437007874015746
20
-3.5173228346456691
11
5.6185039370078735
21
-3.5173228346456691
0
LINE
8
BLACK
6
CONTINUOUS
10
6.4969669685039371
20
-3.5127782283464568
11
6.4982453937007874
21
-3.5140566535433071
0
LINE
8
BLACK
6
CONTINUOUS
10
6.4982453937007874
20
-3.5140566535433071
11
6.4984251968503939
21
-3.5149606299212599
0
LINE
8
BLACK
6
CONTINUOUS
10
6.4984251968503939
20
-3.5149606299212599
11
6.4984251968503939
21
-3.6291338582677164
0
LINE
8
BLACK
6
CONTINUOUS
10
6.4984251968503939
20
-3.6291338582677164
11
6.4982453937007874
21
-3.6300378346456692
0
LINE
8
BLACK
6
CONTINUOUS
10
6.4982453937007874
20
-3.6300378346456692
11
6.4969669685039371
21
-3.6313162598425195
0
LINE
8
BLACK
6
CONTINUOUS
10
6.4969669685039371
20
-3.6313162598425195
11
6.4960629921259843
21
-3.631496062992126
0
LINE
8
BLACK
6
CONTINUOUS
10
6.4960629921259843
20
-3.631496062992126
11
6.3661417322834648
21
-3.631496062992126
0
LINE
8
BLACK
6
CONTINUOUS
10
6.3661417322834648
20
-3.631496062992126
11
6.365237755905512
21
-3.6313162598425195
0
LINE
8
BLACK
6
CONTINUOUS
10
6.365237755905512
20
-3.6313162598425195
11
6.3639593307086617
21
-3.6300378346456692
0
LINE
8
BLACK
6
CONTINUOUS
10
6.3639593307086617
20
-3.6300378346456692
11
6.3637795275590552
21
-3.6291338582677164
0
LINE
8
BLACK
6
CONTINUOUS
10
6.3637795275590552
20
-3.6291338582677164
11
6.3637795275590552
21
-3.5149606299212599
0
LINE
8
BLACK
6
CONTINUOUS
10
6.3637795275590552
20
-3.5149606299212599
11
6.3639593307086617
21
-3.5140566535433071
0
LINE
8
BLACK
6
CONTINUOUS
10
6.3639593307086617
20
-3.5140566535433071
11
6.365237755905512
21
-3.5127782283464568
0
LINE
8
BLACK
6
CONTINUOUS
10
6.365237755905512
20
-3.5127782283464568
11
6.3661417322834648
21
-3.5125984251968503
0
LINE
8
BLACK
6
CONTINUOUS
10
6.3661417322834648
20
-3.5125984251968503
11
6.4960629921259843
21
-3.5125984251968503
0
LINE
8
BLACK
6
CONTINUOUS
10
6.4960629921259843
20
-3.5125984251968503
11
6.4969669685039371
21
-3.5127782283464568
0
LINE
8
BLACK
6
CONTINUOUS
10
6.3685039370078735
20
-3.5173228346456691
11
6.3685039370078735
21
-3.6267716535433072
0
LINE
8
BLACK
6
CONTINUOUS
10
6.3685039370078735
20
-3.6267716535433072
11
6.4937007874015746
21
-3.6267716535433072
0
LINE
8
BLACK
6
CONTINUOUS
10
6.4937007874015746
20
-3.6267716535433072
11
6.4937007874015746
21
-3.5173228346456691
0
LINE
8
BLACK
6
CONTINUOUS
10
6.4937007874015746
20
-3.5173228346456691
11
6.3685039370078735
21
-3.5173228346456691
0
LINE
8
BLACK
6
CONTINUOUS
10
1.2469669685039371
20
-2.8218333464566929
11
1.2482453937007874
21
-2.8231117716535432
0
LINE
8
BLACK
6
CONTINUOUS
10
1.2482453937007874
20
-2.8231117716535432
11
1.2484251968503937
21
-2.824015748031496
0
LINE
8
BLACK
6
CONTINUOUS
10
1.2484251968503937
20
-2.824015748031496
11
1.2484251968503937
21
-2.9381889763779525
0
LINE
8
BLACK
6
CONTINUOUS
10
1.2484251968503937
20
-2.9381889763779525
11
1.2482453937007874
21
-2.9390929527559053
0
LINE
8
BLACK
6
CONTINUOUS
10
1.2482453937007874
20
-2.9390929527559053
11
1.2469669685039371
21
-2.940371377952756
0
LINE
8
BLACK
6
CONTINUOUS
10
1.2469669685039371
20
-2.940371377952756
11
1.2460629921259843
21
-2.9405511811023621
0
LINE
8
BLACK
6
CONTINUOUS
10
1.2460629921259843
20
-2.9405511811023621
11
1.1161417322834646
21
-2.9405511811023621
0
LINE
8
BLACK
6
CONTINUOUS
10
1.1161417322834646
20
-2.9405511811023621
11
1.1152377559055118
21
-2.940371377952756
0
LINE
8
BLACK
6
CONTINUOUS
10
1.1152377559055118
20
-2.940371377952756
11
1.1139593307086615
21
-2.9390929527559053
0
LINE
8
BLACK
6
CONTINUOUS
10
1.1139593307086615
20
-2.9390929527559053
11
1.1137795275590552
21
-2.9381889763779525
0
LINE
8
BLACK
6
CONTINUOUS
10
1.1137795275590552
20
-2.9381889763779525
11
1.1137795275590552
21
-2.824015748031496
0
LINE
8
BLACK
6
CONTINUOUS
10
1.1137795275590552
20
-2.824015748031496
11
1.1139593307086615
21
-2.8231117716535432
0
LINE
8
BLACK
6
CONTINUOUS
10
1.1139593307086615
20
-2.8231117716535432
11
1.1152377559055118
21
-2.8218333464566929
0
LINE
8
BLACK
6
CONTINUOUS
10
1.1152377559055118
20
-2.8218333464566929
11
1.1161417322834646
21
-2.8216535433070864
0
LINE
8
BLACK
6
CONTINUOUS
10
1.1161417322834646
20
-2.8216535433070864
11
1.2460629921259843
21
-2.8216535433070864
0
LINE
8
BLACK
6
CONTINUOUS
10
1.2460629921259843
20
-2.8216535433070864
11
1.2469669685039371
21
-2.8218333464566929
0
LINE
8
BLACK
6
CONTINUOUS
10
1.118503937007874
20
-2.8263779527559056
11
1.118503937007874
21
-2.9358267716535433
0
LINE
8
BLACK
6
CONTINUOUS
10
1.118503937007874
20
-2.9358267716535433
11
1.2437007874015749
21
-2.9358267716535433
0
LINE
8
BLACK
6
CONTINUOUS
10
1.2437007874015749
20
-2.9358267716535433
11
1.2437007874015749
21
-2.8263779527559056
0
LINE
8
BLACK
6
CONTINUOUS
10
1.2437007874015749
20
-2.8263779527559056
11
1.118503937007874
21
-2.8263779527559056
0
LINE
8
BLACK
6
CONTINUOUS
10
1.9969669685039371
20
-2.8218333464566929
11
1.9982453937007874
21
-2.8231117716535432
0
LINE
8
BLACK
6
CONTINUOUS
10
1.9982453937007874
20
-2.8231117716535432
11
1.9984251968503937
21
-2.824015748031496
0
LINE
8
BLACK
6
CONTINUOUS
10
1.9984251968503937
20
-2.824015748031496
11
1.9984251968503937
21
-2.9381889763779525
0
LINE
8
BLACK
6
CONTINUOUS
10
1.9984251968503937
20
-2.9381889763779525
11
1.9982453937007874
21
-2.9390929527559053
0
LINE
8
BLACK
6
CONTINUOUS
10
1.9982453937007874
20
-2.9390929527559053
11
1.9969669685039371
21
-2.940371377952756
0
LINE
8
BLACK
6
CONTINUOUS
10
1.9969669685039371
20
-2.940371377952756
11
1.9960629921259843
21
-2.9405511811023621
0
LINE
8
BLACK
6
CONTINUOUS
10
1.9960629921259843
20
-2.9405511811023621
11
1.8661417322834646
21
-2.9405511811023621
0
LINE
8
BLACK
6
CONTINUOUS
10
1.8661417322834646
20
-2.9405511811023621
11
1.8652377559055118
21
-2.940371377952756
0
LINE
8
BLACK
6
CONTINUOUS
10
1.8652377559055118
20
-2.940371377952756
11
1.8639593307086613
21
-2.9390929527559053
0
LINE
8
BLACK
6
CONTINUOUS
10
1.8639593307086613
20
-2.9390929527559053
11
1.8637795275590552
21
-2.9381889763779525
0
LINE
8
BLACK
6
CONTINUOUS
10
1.8637795275590552
20
-2.9381889763779525
11
1.8637795275590552
21
-2.824015748031496
0
LINE
8
BLACK
6
CONTINUOUS
10
1.8637795275590552
20
-2.824015748031496
11
1.8639593307086613
21
-2.8231117716535432
0
LINE
8
BLACK
6
CONTINUOUS
10
1.8639593307086613
20
-2.8231117716535432
11
1.8652377559055118
21
-2.8218333464566929
0
LINE
8
BLACK
6
CONTINUOUS
10
1.8652377559055118
20
-2.8218333464566929
11
1.8661417322834646
21
-2.8216535433070864
0
LINE
8
BLACK
6
CONTINUOUS
10
1.8661417322834646
20
-2.8216535433070864
11
1.9960629921259843
21
-2.8216535433070864
0
LINE
8
BLACK
6
CONTINUOUS
10
1.9960629921259843
20
-2.8216535433070864
11
1.9969669685039371
21
-2.8218333464566929
0
LINE
8
BLACK
6
CONTINUOUS
10
1.868503937007874
20
-2.8263779527559056
11
1.868503937007874
21
-2.9358267716535433
0
LINE
8
BLACK
6
CONTINUOUS
10
1.868503937007874
20
-2.9358267716535433
11
1.9937007874015749
21
-2.9358267716535433
0
LINE
8
BLACK
6
CONTINUOUS
10
1.9937007874015749
20
-2.9358267716535433
11
1.9937007874015749
21
-2.8263779527559056
0
LINE
8
BLACK
6
CONTINUOUS
10
1.9937007874015749
20
-2.8263779527559056
11
1.868503937007874
21
-2.8263779527559056
0
LINE
8
BLACK
6
CONTINUOUS
10
2.7469669685039371
20
-2.8218333464566929
11
2.7482453937007874
21
-2.8231117716535432
0
LINE
8
BLACK
6
CONTINUOUS
10
2.7482453937007874
20
-2.8231117716535432
11
2.7484251968503934
21
-2.824015748031496
0
LINE
8
BLACK
6
CONTINUOUS
10
2.7484251968503934
20
-2.824015748031496
11
2.7484251968503934
21
-2.9381889763779525
0
LINE
8
BLACK
6
CONTINUOUS
10
2.7484251968503934
20
-2.9381889763779525
11
2.7482453937007874
21
-2.9390929527559053
0
LINE
8
BLACK
6
CONTINUOUS
10
2.7482453937007874
20
-2.9390929527559053
11
2.7469669685039371
21
-2.940371377952756
0
LINE
8
BLACK
6
CONTINUOUS
10
2.7469669685039371
20
-2.940371377952756
11
2.7460629921259843
21
-2.9405511811023621
0
LINE
8
BLACK
6
CONTINUOUS
10
2.7460629921259843
20
-2.9405511811023621
11
2.6161417322834644
21
-2.9405511811023621
0
LINE
8
BLACK
6
CONTINUOUS
10
2.6161417322834644
20
-2.9405511811023621
11
2.6152377559055116
21
-2.940371377952756
0
LINE
8
BLACK
6
CONTINUOUS
10
2.6152377559055116
20
-2.940371377952756
11
2.6139593307086613
21
-2.9390929527559053
0
LINE
8
BLACK
6
CONTINUOUS
10
2.6139593307086613
20
-2.9390929527559053
11
2.6137795275590552
21
-2.9381889763779525
0
LINE
8
BLACK
6
CONTINUOUS
10
2.6137795275590552
20
-2.9381889763779525
11
2.6137795275590552
21
-2.824015748031496
0
LINE
8
BLACK
6
CONTINUOUS
10
2.6137795275590552
20
-2.824015748031496
11
2.6139593307086613
21
-2.8231117716535432
0
LINE
8
BLACK
6
CONTINUOUS
10
2.6139593307086613
20
-2.8231117716535432
11
2.6152377559055116
21
-2.8218333464566929
0
LINE
8
BLACK
6
CONTINUOUS
10
2.6152377559055116
20
-2.8218333464566929
11
2.6161417322834644
21
-2.8216535433070864
0
LINE
8
BLACK
6
CONTINUOUS
10
2.6161417322834644
20
-2.8216535433070864
11
2.7460629921259843
21
-2.8216535433070864
0
LINE
8
BLACK
6
CONTINUOUS
10
2.7460629921259843
20
-2.8216535433070864
11
2.7469669685039371
21
-2.8218333464566929
0
LINE
8
BLACK
6
CONTINUOUS
10
2.618503937007874
20
-2.8263779527559056
11
2.618503937007874
21
-2.9358267716535433
0
LINE
8
BLACK
6
CONTINUOUS
10
2.618503937007874
20
-2.9358267716535433
11
2.7437007874015746
21
-2.9358267716535433
0
LINE
8
BLACK
6
CONTINUOUS
10
2.7437007874015746
20
-2.9358267716535433
11
2.7437007874015746
21
-2.8263779527559056
0
LINE
8
BLACK
6
CONTINUOUS
10
2.7437007874015746
20
-2.8263779527559056
11
2.618503937007874
21
-2.8263779527559056
0
LINE
8
BLACK
6
CONTINUOUS
10
3.4969669685039371
20
-2.8218333464566929
11
3.4982453937007874
21
-2.8231117716535432
0
LINE
8
BLACK
6
CONTINUOUS
10
3.4982453937007874
20
-2.8231117716535432
11
3.4984251968503934
21
-2.824015748031496
0
LINE
8
BLACK
6
CONTINUOUS
10
3.4984251968503934
20
-2.824015748031496
11
3.4984251968503934
21
-2.9381889763779525
0
LINE
8
BLACK
6
CONTINUOUS
10
3.4984251968503934
20
-2.9381889763779525
11
3.4982453937007874
21
-2.9390929527559053
0
LINE
8
BLACK
6
CONTINUOUS
10
3.4982453937007874
20
-2.9390929527559053
11
3.4969669685039371
21
-2.940371377952756
0
LINE
8
BLACK
6
CONTINUOUS
10
3.4969669685039371
20
-2.940371377952756
11
3.4960629921259843
21
-2.9405511811023621
0
LINE
8
BLACK
6
CONTINUOUS
10
3.4960629921259843
20
-2.9405511811023621
11
3.3661417322834644
21
-2.9405511811023621
0
LINE
8
BLACK
6
CONTINUOUS
10
3.3661417322834644
20
-2.9405511811023621
11
3.3652377559055116
21
-2.940371377952756
0
LINE
8
BLACK
6
CONTINUOUS
10
3.3652377559055116
20
-2.940371377952756
11
3.3639593307086613
21
-2.9390929527559053
0
LINE
8
BLACK
6
CONTINUOUS
10
3.3639593307086613
20
-2.9390929527559053
11
3.3637795275590552
21
-2.9381889763779525
0
LINE
8
BLACK
6
CONTINUOUS
10
3.3637795275590552
20
-2.9381889763779525
11
3.3637795275590552
21
-2.824015748031496
0
LINE
8
BLACK
6
CONTINUOUS
10
3.3637795275590552
20
-2.824015748031496
11
3.3639593307086613
21
-2.8231117716535432
0
LINE
8
BLACK
6
CONTINUOUS
10
3.3639593307086613
20
-2.8231117716535432
11
3.3652377559055116
21
-2.8218333464566929
0
LINE
8
BLACK
6
CONTINUOUS
10
3.3652377559055116
20
-2.8218333464566929
11
3.3661417322834644
21
-2.8216535433070864
0
LINE
8
BLACK
6
CONTINUOUS
10
3.3661417322834644
20
-2.8216535433070864
11
3.4960629921259843
21
-2.8216535433070864
0
LINE
8
BLACK
6
CONTINUOUS
10
3.4960629921259843
20
-2.8216535433070864
11
3.4969669685039371
21
-2.8218333464566929
0
LINE
8
BLACK
6
CONTINUOUS
10
3.368503937007874
20
-2.8263779527559056
11
3.368503937007874
21
-2.9358267716535433
0
LINE
8
BLACK
6
CONTINUOUS
10
3.368503937007874
20
-2.9358267716535433
11
3.4937007874015746
21
-2.9358267716535433
0
LINE
8
BLACK
6
CONTINUOUS
10
3.4937007874015746
20
-2.9358267716535433
11
3.4937007874015746
21
-2.8263779527559056
0
LINE
8
BLACK
6
CONTINUOUS
10
3.4937007874015746
20
-2.8263779527559056
11
3.368503937007874
21
-2.8263779527559056
0
LINE
8
BLACK
6
CONTINUOUS
10
4.2469669685039371
20
-2.8218333464566929
11
4.2482453937007874
21
-2.8231117716535432
0
LINE
8
BLACK
6
CONTINUOUS
10
4.2482453937007874
20
-2.8231117716535432
11
4.2484251968503939
21
-2.824015748031496
0
LINE
8
BLACK
6
CONTINUOUS
10
4.2484251968503939
20
-2.824015748031496
11
4.2484251968503939
21
-2.9381889763779525
0
LINE
8
BLACK
6
CONTINUOUS
10
4.2484251968503939
20
-2.9381889763779525
11
4.2482453937007874
21
-2.9390929527559053
0
LINE
8
BLACK
6
CONTINUOUS
10
4.2482453937007874
20
-2.9390929527559053
11
4.2469669685039371
21
-2.940371377952756
0
LINE
8
BLACK
6
CONTINUOUS
10
4.2469669685039371
20
-2.940371377952756
11
4.2460629921259843
21
-2.9405511811023621
0
LINE
8
BLACK
6
CONTINUOUS
10
4.2460629921259843
20
-2.9405511811023621
11
4.1161417322834648
21
-2.9405511811023621
0
LINE
8
BLACK
6
CONTINUOUS
10
4.1161417322834648
20
-2.9405511811023621
11
4.115237755905512
21
-2.940371377952756
0
LINE
8
BLACK
6
CONTINUOUS
10
4.115237755905512
20
-2.940371377952756
11
4.1139593307086617
21
-2.9390929527559053
0
LINE
8
BLACK
6
CONTINUOUS
10
4.1139593307086617
20
-2.9390929527559053
11
4.1137795275590552
21
-2.9381889763779525
0
LINE
8
BLACK
6
CONTINUOUS
10
4.1137795275590552
20
-2.9381889763779525
11
4.1137795275590552
21
-2.824015748031496
0
LINE
8
BLACK
6
CONTINUOUS
10
4.1137795275590552
20
-2.824015748031496
11
4.1139593307086617
21
-2.8231117716535432
0
LINE
8
BLACK
6
CONTINUOUS
10
4.1139593307086617
20
-2.8231117716535432
11
4.115237755905512
21
-2.8218333464566929
0
LINE
8
BLACK
6
CONTINUOUS
10
4.115237755905512
20
-2.8218333464566929
11
4.1161417322834648
21
-2.8216535433070864
0
LINE
8
BLACK
6
CONTINUOUS
10
4.1161417322834648
20
-2.8216535433070864
11
4.2460629921259843
21
-2.8216535433070864
0
LINE
8
BLACK
6
CONTINUOUS
10
4.2460629921259843
20
-2.8216535433070864
11
4.2469669685039371
21
-2.8218333464566929
0
LINE
8
BLACK
6
CONTINUOUS
10
4.1185039370078735
20
-2.8263779527559056
11
4.1185039370078735
21
-2.9358267716535433
0
LINE
8
BLACK
6
CONTINUOUS
10
4.1185039370078735
20
-2.9358267716535433
11
4.2437007874015746
21
-2.9358267716535433
0
LINE
8
BLACK
6
CONTINUOUS
10
4.2437007874015746
20
-2.9358267716535433
11
4.2437007874015746
21
-2.8263779527559056
0
LINE
8
BLACK
6
CONTINUOUS
10
4.2437007874015746
20
-2.8263779527559056
11
4.1185039370078735
21
-2.8263779527559056
0
LINE
8
BLACK
6
CONTINUOUS
10
4.9969669685039371
20
-2.8218333464566929
11
4.9982453937007874
21
-2.8231117716535432
0
LINE
8
BLACK
6
CONTINUOUS
10
4.9982453937007874
20
-2.8231117716535432
11
4.9984251968503939
21
-2.824015748031496
0
LINE
8
BLACK
6
CONTINUOUS
10
4.9984251968503939
20
-2.824015748031496
11
4.9984251968503939
21
-2.9381889763779525
0
LINE
8
BLACK
6
CONTINUOUS
10
4.9984251968503939
20
-2.9381889763779525
11
4.9982453937007874
21
-2.9390929527559053
0
LINE
8
BLACK
6
CONTINUOUS
10
4.9982453937007874
20
-2.9390929527559053
11
4.9969669685039371
21
-2.940371377952756
0
LINE
8
BLACK
6
CONTINUOUS
10
4.9969669685039371
20
-2.940371377952756
11
4.9960629921259843
21
-2.9405511811023621
0
LINE
8
BLACK
6
CONTINUOUS
10
4.9960629921259843
20
-2.9405511811023621
11
4.8661417322834648
21
-2.9405511811023621
0
LINE
8
BLACK
6
CONTINUOUS
10
4.8661417322834648
20
-2.9405511811023621
11
4.865237755905512
21
-2.940371377952756
0
LINE
8
BLACK
6
CONTINUOUS
10
4.865237755905512
20
-2.940371377952756
11
4.8639593307086617
21
-2.9390929527559053
0
LINE
8
BLACK
6
CONTINUOUS
10
4.8639593307086617
20
-2.9390929527559053
11
4.8637795275590552
21
-2.9381889763779525
0
LINE
8
BLACK
6
CONTINUOUS
10
4.8637795275590552
20
-2.9381889763779525
11
4.8637795275590552
21
-2.824015748031496
0
LINE
8
BLACK
6
CONTINUOUS
10
4.8637795275590552
20
-2.824015748031496
11
4.8639593307086617
21
-2.8231117716535432
0
LINE
8
BLACK
6
CONTINUOUS
10
4.8639593307086617
20
-2.8231117716535432
11
4.865237755905512
21
-2.8218333464566929
0
LINE
8
BLACK
6
CONTINUOUS
10
4.865237755905512
20
-2.8218333464566929
11
4.8661417322834648
21
-2.8216535433070864
0
LINE
8
BLACK
6
CONTINUOUS
10
4.8661417322834648
20
-2.8216535433070864
11
4.9960629921259843
21
-2.8216535433070864
0
LINE
8
BLACK
6
CONTINUOUS
10
4.9960629921259843
20
-2.8216535433070864
11
4.9969669685039371
21
-2.8218333464566929
0
LINE
8
BLACK
6
CONTINUOUS
10
4.8685039370078735
20
-2.8263779527559056
11
4.8685039370078735
21
-2.9358267716535433
0
LINE
8
BLACK
6
CONTINUOUS
10
4.8685039370078735
20
-2.9358267716535433
11
4.9937007874015746
21
-2.9358267716535433
0
LINE
8
BLACK
6
CONTINUOUS
10
4.9937007874015746
20
-2.9358267716535433
11
4.9937007874015746
21
-2.8263779527559056
0
LINE
8
BLACK
6
CONTINUOUS
10
4.9937007874015746
20
-2.8263779527559056
11
4.8685039370078735
21
-2.8263779527559056
0
LINE
8
BLACK
6
CONTINUOUS
10
5.7469669685039371
20
-2.8218333464566929
11
5.7482453937007874
21
-2.8231117716535432
0
LINE
8
BLACK
6
CONTINUOUS
10
5.7482453937007874
20
-2.8231117716535432
11
5.7484251968503939
21
-2.824015748031496
0
LINE
8
BLACK
6
CONTINUOUS
10
5.7484251968503939
20
-2.824015748031496
11
5.7484251968503939
21
-2.9381889763779525
0
LINE
8
BLACK
6
CONTINUOUS
10
5.7484251968503939
20
-2.9381889763779525
11
5.7482453937007874
21
-2.9390929527559053
0
LINE
8
BLACK
6
CONTINUOUS
10
5.7482453937007874
20
-2.9390929527559053
11
5.7469669685039371
21
-2.940371377952756
0
LINE
8
BLACK
6
CONTINUOUS
10
5.7469669685039371
20
-2.940371377952756
11
5.7460629921259843
21
-2.9405511811023621
0
LINE
8
BLACK
6
CONTINUOUS
10
5.7460629921259843
20
-2.9405511811023621
11
5.6161417322834648
21
-2.9405511811023621
0
LINE
8
BLACK
6
CONTINUOUS
10
5.6161417322834648
20
-2.9405511811023621
11
5.615237755905512
21
-2.940371377952756
0
LINE
8
BLACK
6
CONTINUOUS
10
5.615237755905512
20
-2.940371377952756
11
5.6139593307086617
21
-2.9390929527559053
0
LINE
8
BLACK
6
CONTINUOUS
10
5.6139593307086617
20
-2.9390929527559053
11
5.6137795275590552
21
-2.9381889763779525
0
LINE
8
BLACK
6
CONTINUOUS
10
5.6137795275590552
20
-2.9381889763779525
11
5.6137795275590552
21
-2.824015748031496
0
LINE
8
BLACK
6
CONTINUOUS
10
5.6137795275590552
20
-2.824015748031496
11
5.6139593307086617
21
-2.8231117716535432
0
LINE
8
BLACK
6
CONTINUOUS
10
5.6139593307086617
20
-2.8231117716535432
11
5.615237755905512
21
-2.8218333464566929
0
LINE
8
BLACK
6
CONTINUOUS
10
5.615237755905512
20
-2.8218333464566929
11
5.6161417322834648
21
-2.8216535433070864
0
LINE
8
BLACK
6
CONTINUOUS
10
5.6161417322834648
20
-2.8216535433070864
11
5.7460629921259843
21
-2.8216535433070864
0
LINE
8
BLACK
6
CONTINUOUS
10
5.7460629921259843
20
-2.8216535433070864
11
5.7469669685039371
21
-2.8218333464566929
0
LINE
8
BLACK
6
CONTINUOUS
10
5.6185039370078735
20
-2.8263779527559056
11
5.6185039370078735
21
-2.9358267716535433
0
LINE
8
BLACK
6
CONTINUOUS
10
5.6185039370078735
20
-2.9358267716535433
11
5.7437007874015746
21
-2.9358267716535433
0
LINE
8
BLACK
6
CONTINUOUS
10
5.7437007874015746
20
-2.9358267716535433
11
5.7437007874015746
21
-2.8263779527559056
0
LINE
8
BLACK
6
CONTINUOUS
10
5.7437007874015746
20
-2.8263779527559056
11
5.6185039370078735
21
-2.8263779527559056
0
LINE
8
BLACK
6
CONTINUOUS
10
6.4969669685039371
20
-2.8218333464566929
11
6.4982453937007874
21
-2.8231117716535432
0
LINE
8
BLACK
6
CONTINUOUS
10
6.4982453937007874
20
-2.8231117716535432
11
6.4984251968503939
21
-2.824015748031496
0
LINE
8
BLACK
6
CONTINUOUS
10
6.4984251968503939
20
-2.824015748031496
11
6.4984251968503939
21
-2.9381889763779525
0
LINE
8
BLACK
6
CONTINUOUS
10
6.4984251968503939
20
-2.9381889763779525
11
6.4982453937007874
21
-2.9390929527559053
0
LINE
8
BLACK
6
CONTINUOUS
10
6.4982453937007874
20
-2.9390929527559053
11
6.4969669685039371
21
-2.940371377952756
0
LINE
8
BLACK
6
CONTINUOUS
10
6.4969669685039371
20
-2.940371377952756
11
6.4960629921259843
21
-2.9405511811023621
0
LINE
8
BLACK
6
CONTINUOUS
10
6.4960629921259843
20
-2.9405511811023621
11
6.3661417322834648
21
-2.9405511811023621
0
LINE
8
BLACK
6
CONTINUOUS
10
6.3661417322834648
20
-2.9405511811023621
11
6.365237755905512
21
-2.940371377952756
0
LINE
8
BLACK
6
CONTINUOUS
10
6.365237755905512
20
-2.940371377952756
11
6.3639593307086617
21
-2.9390929527559053
0
LINE
8
BLACK
6
CONTINUOUS
10
6.3639593307086617
20
-2.9390929527559053
11
6.3637795275590552
21
-2.9381889763779525
0
LINE
8
BLACK
6
CONTINUOUS
10
6.3637795275590552
20
-2.9381889763779525
11
6.3637795275590552
21
-2.824015748031496
0
LINE
8
BLACK
6
CONTINUOUS
10
6.3637795275590552
20
-2.824015748031496
11
6.3639593307086617
21
-2.8231117716535432
0
LINE
8
BLACK
6
CONTINUOUS
10
6.3639593307086617
20
-2.8231117716535432
11
6.365237755905512
21
-2.8218333464566929
0
LINE
8
BLACK
6
CONTINUOUS
10
6.365237755905512
20
-2.8218333464566929
11
6.3661417322834648
21
-2.8216535433070864
0
LINE
8
BLACK
6
CONTINUOUS
10
6.3661417322834648
20
-2.8216535433070864
11
6.4960629921259843
21
-2.8216535433070864
0
LINE
8
BLACK
6
CONTINUOUS
10
6.4960629921259843
20
-2.8216535433070864
11
6.4969669685039371
21
-2.8218333464566929
0
LINE
8
BLACK
6
CONTINUOUS
10
6.3685039370078735
20
-2.8263779527559056
11
6.3685039370078735
21
-2.9358267716535433
0
LINE
8
BLACK
6
CONTINUOUS
10
6.3685039370078735
20
-2.9358267716535433
11
6.4937007874015746
21
-2.9358267716535433
0
LINE
8
BLACK
6
CONTINUOUS
10
6.4937007874015746
20
-2.9358267716535433
11
6.4937007874015746
21
-2.8263779527559056
0
LINE
8
BLACK
6
CONTINUOUS
10
6.4937007874015746
20
-2.8263779527559056
11
6.3685039370078735
21
-2.8263779527559056
0
LINE
8
BLACK
6
CONTINUOUS
10
7.2469669685039371
20
-2.8218333464566929
11
7.2482453937007874
21
-2.8231117716535432
0
LINE
8
BLACK
6
CONTINUOUS
10
7.2482453937007874
20
-2.8231117716535432
11
7.2484251968503939
21
-2.824015748031496
0
LINE
8
BLACK
6
CONTINUOUS
10
7.2484251968503939
20
-2.824015748031496
11
7.2484251968503939
21
-2.9381889763779525
0
LINE
8
BLACK
6
CONTINUOUS
10
7.2484251968503939
20
-2.9381889763779525
11
7.2482453937007874
21
-2.9390929527559053
0
LINE
8
BLACK
6
CONTINUOUS
10
7.2482453937007874
20
-2.9390929527559053
11
7.2469669685039371
21
-2.940371377952756
0
LINE
8
BLACK
6
CONTINUOUS
10
7.2469669685039371
20
-2.940371377952756
11
7.2460629921259843
21
-2.9405511811023621
0
LINE
8
BLACK
6
CONTINUOUS
10
7.2460629921259843
20
-2.9405511811023621
11
7.1161417322834648
21
-2.9405511811023621
0
LINE
8
BLACK
6
CONTINUOUS
10
7.1161417322834648
20
-2.9405511811023621
11
7.115237755905512
21
-2.940371377952756
0
LINE
8
BLACK
6
CONTINUOUS
10
7.115237755905512
20
-2.940371377952756
11
7.1139593307086608
21
-2.9390929527559053
0
LINE
8
BLACK
6
CONTINUOUS
10
7.1139593307086608
20
-2.9390929527559053
11
7.1137795275590552
21
-2.9381889763779525
0
LINE
8
BLACK
6
CONTINUOUS
10
7.1137795275590552
20
-2.9381889763779525
11
7.1137795275590552
21
-2.824015748031496
0
LINE
8
BLACK
6
CONTINUOUS
10
7.1137795275590552
20
-2.824015748031496
11
7.1139593307086608
21
-2.8231117716535432
0
LINE
8
BLACK
6
CONTINUOUS
10
7.1139593307086608
20
-2.8231117716535432
11
7.115237755905512
21
-2.8218333464566929
0
LINE
8
BLACK
6
CONTINUOUS
10
7.115237755905512
20
-2.8218333464566929
11
7.1161417322834648
21
-2.8216535433070864
0
LINE
8
BLACK
6
CONTINUOUS
10
7.1161417322834648
20
-2.8216535433070864
11
7.2460629921259843
21
-2.8216535433070864
0
LINE
8
BLACK
6
CONTINUOUS
10
7.2460629921259843
20
-2.8216535433070864
11
7.2469669685039371
21
-2.8218333464566929
0
LINE
8
BLACK
6
CONTINUOUS
10
7.1185039370078735
20
-2.8263779527559056
11
7.1185039370078735
21
-2.9358267716535433
0
LINE
8
BLACK
6
CONTINUOUS
10
7.1185039370078735
20
-2.9358267716535433
11
7.2437007874015746
21
-2.9358267716535433
0
LINE
8
BLACK
6
CONTINUOUS
10
7.2437007874015746
20
-2.9358267716535433
11
7.2437007874015746
21
-2.8263779527559056
0
LINE
8
BLACK
6
CONTINUOUS
10
7.2437007874015746
20
-2.8263779527559056
11
7.1185039370078735
21
-2.8263779527559056
0
LINE
8
BLACK
6
CONTINUOUS
10
7.9969669685039371
20
-2.8218333464566929
11
7.9982453937007874
21
-2.8231117716535432
0
LINE
8
BLACK
6
CONTINUOUS
10
7.9982453937007874
20
-2.8231117716535432
11
7.9984251968503939
21
-2.824015748031496
0
LINE
8
BLACK
6
CONTINUOUS
10
7.9984251968503939
20
-2.824015748031496
11
7.9984251968503939
21
-2.9381889763779525
0
LINE
8
BLACK
6
CONTINUOUS
10
7.9984251968503939
20
-2.9381889763779525
11
7.9982453937007874
21
-2.9390929527559053
0
LINE
8
BLACK
6
CONTINUOUS
10
7.9982453937007874
20
-2.9390929527559053
11
7.9969669685039371
21
-2.940371377952756
0
LINE
8
BLACK
6
CONTINUOUS
10
7.9969669685039371
20
-2.940371377952756
11
7.9960629921259843
21
-2.9405511811023621
0
LINE
8
BLACK
6
CONTINUOUS
10
7.9960629921259843
20
-2.9405511811023621
11
7.8661417322834648
21
-2.9405511811023621
0
LINE
8
BLACK
6
CONTINUOUS
10
7.8661417322834648
20
-2.9405511811023621
11
7.865237755905512
21
-2.940371377952756
0
LINE
8
BLACK
6
CONTINUOUS
10
7.865237755905512
20
-2.940371377952756
11
7.8639593307086608
21
-2.9390929527559053
0
LINE
8
BLACK
6
CONTINUOUS
10
7.8639593307086608
20
-2.9390929527559053
11
7.8637795275590552
21
-2.9381889763779525
0
LINE
8
BLACK
6
CONTINUOUS
10
7.8637795275590552
20
-2.9381889763779525
11
7.8637795275590552
21
-2.824015748031496
0
LINE
8
BLACK
6
CONTINUOUS
10
7.8637795275590552
20
-2.824015748031496
11
7.8639593307086608
21
-2.8231117716535432
0
LINE
8
BLACK
6
CONTINUOUS
10
7.8639593307086608
20
-2.8231117716535432
11
7.865237755905512
21
-2.8218333464566929
0
LINE
8
BLACK
6
CONTINUOUS
10
7.865237755905512
20
-2.8218333464566929
11
7.8661417322834648
21
-2.8216535433070864
0
LINE
8
BLACK
6
CONTINUOUS
10
7.8661417322834648
20
-2.8216535433070864
11
7.9960629921259843
21
-2.8216535433070864
0
LINE
8
BLACK
6
CONTINUOUS
10
7.9960629921259843
20
-2.8216535433070864
11
7.9969669685039371
21
-2.8218333464566929
0
LINE
8
BLACK
6
CONTINUOUS
10
7.8685039370078735
20
-2.8263779527559056
11
7.8685039370078735
21
-2.9358267716535433
0
LINE
8
BLACK
6
CONTINUOUS
10
7.8685039370078735
20
-2.9358267716535433
11
7.9937007874015746
21
-2.9358267716535433
0
LINE
8
BLACK
6
CONTINUOUS
10
7.9937007874015746
20
-2.9358267716535433
11
7.9937007874015746
21
-2.8263779527559056
0
LINE
8
BLACK
6
CONTINUOUS
10
7.9937007874015746
20
-2.8263779527559056
11
7.8685039370078735
21
-2.8263779527559056
0
LINE
8
BLACK
6
CONTINUOUS
10
1.2469669685039371
20
-2.0718333464566929
11
1.2482453937007874
21
-2.0731117716535432
0
LINE
8
BLACK
6
CONTINUOUS
10
1.2482453937007874
20
-2.0731117716535432
11
1.2484251968503937
21
-2.074015748031496
0
LINE
8
BLACK
6
CONTINUOUS
10
1.2484251968503937
20
-2.074015748031496
11
1.2484251968503937
21
-2.1881889763779525
0
LINE
8
BLACK
6
CONTINUOUS
10
1.2484251968503937
20
-2.1881889763779525
11
1.2482453937007874
21
-2.1890929527559053
0
LINE
8
BLACK
6
CONTINUOUS
10
1.2482453937007874
20
-2.1890929527559053
11
1.2469669685039371
21
-2.190371377952756
0
LINE
8
BLACK
6
CONTINUOUS
10
1.2469669685039371
20
-2.190371377952756
11
1.2460629921259843
21
-2.1905511811023621
0
LINE
8
BLACK
6
CONTINUOUS
10
1.2460629921259843
20
-2.1905511811023621
11
1.1161417322834646
21
-2.1905511811023621
0
LINE
8
BLACK
6
CONTINUOUS
10
1.1161417322834646
20
-2.1905511811023621
11
1.1152377559055118
21
-2.190371377952756
0
LINE
8
BLACK
6
CONTINUOUS
10
1.1152377559055118
20
-2.190371377952756
11
1.1139593307086615
21
-2.1890929527559053
0
LINE
8
BLACK
6
CONTINUOUS
10
1.1139593307086615
20
-2.1890929527559053
11
1.1137795275590552
21
-2.1881889763779525
0
LINE
8
BLACK
6
CONTINUOUS
10
1.1137795275590552
20
-2.1881889763779525
11
1.1137795275590552
21
-2.074015748031496
0
LINE
8
BLACK
6
CONTINUOUS
10
1.1137795275590552
20
-2.074015748031496
11
1.1139593307086615
21
-2.0731117716535432
0
LINE
8
BLACK
6
CONTINUOUS
10
1.1139593307086615
20
-2.0731117716535432
11
1.1152377559055118
21
-2.0718333464566929
0
LINE
8
BLACK
6
CONTINUOUS
10
1.1152377559055118
20
-2.0718333464566929
11
1.1161417322834646
21
-2.0716535433070864
0
LINE
8
BLACK
6
CONTINUOUS
10
1.1161417322834646
20
-2.0716535433070864
11
1.2460629921259843
21
-2.0716535433070864
0
LINE
8
BLACK
6
CONTINUOUS
10
1.2460629921259843
20
-2.0716535433070864
11
1.2469669685039371
21
-2.0718333464566929
0
LINE
8
BLACK
6
CONTINUOUS
10
1.118503937007874
20
-2.0763779527559056
11
1.118503937007874
21
-2.1858267716535433
0
LINE
8
BLACK
6
CONTINUOUS
10
1.118503937007874
20
-2.1858267716535433
11
1.2437007874015749
21
-2.1858267716535433
0
LINE
8
BLACK
6
CONTINUOUS
10
1.2437007874015749
20
-2.1858267716535433
11
1.2437007874015749
21
-2.0763779527559056
0
LINE
8
BLACK
6
CONTINUOUS
10
1.2437007874015749
20
-2.0763779527559056
11
1.118503937007874
21
-2.0763779527559056
0
LINE
8
BLACK
6
CONTINUOUS
10
1.9969669685039371
20
-2.0718333464566929
11
1.9982453937007874
21
-2.0731117716535432
0
LINE
8
BLACK
6
CONTINUOUS
10
1.9982453937007874
20
-2.0731117716535432
11
1.9984251968503937
21
-2.074015748031496
0
LINE
8
BLACK
6
CONTINUOUS
10
1.9984251968503937
20
-2.074015748031496
11
1.9984251968503937
21
-2.1881889763779525
0
LINE
8
BLACK
6
CONTINUOUS
10
1.9984251968503937
20
-2.1881889763779525
11
1.9982453937007874
21
-2.1890929527559053
0
LINE
8
BLACK
6
CONTINUOUS
10
1.9982453937007874
20
-2.1890929527559053
11
1.9969669685039371
21
-2.190371377952756
0
LINE
8
BLACK
6
CONTINUOUS
10
1.9969669685039371
20
-2.190371377952756
11
1.9960629921259843
21
-2.1905511811023621
0
LINE
8
BLACK
6
CONTINUOUS
10
1.9960629921259843
20
-2.1905511811023621
11
1.8661417322834646
21
-2.1905511811023621
0
LINE
8
BLACK
6
CONTINUOUS
10
1.8661417322834646
20
-2.1905511811023621
11
1.8652377559055118
21
-2.190371377952756
0
LINE
8
BLACK
6
CONTINUOUS
10
1.8652377559055118
20
-2.190371377952756
11
1.8639593307086613
21
-2.1890929527559053
0
LINE
8
BLACK
6
CONTINUOUS
10
1.8639593307086613
20
-2.1890929527559053
11
1.8637795275590552
21
-2.1881889763779525
0
LINE
8
BLACK
6
CONTINUOUS
10
1.8637795275590552
20
-2.1881889763779525
11
1.8637795275590552
21
-2.074015748031496
0
LINE
8
BLACK
6
CONTINUOUS
10
1.8637795275590552
20
-2.074015748031496
11
1.8639593307086613
21
-2.0731117716535432
0
LINE
8
BLACK
6
CONTINUOUS
10
1.8639593307086613
20
-2.0731117716535432
11
1.8652377559055118
21
-2.0718333464566929
0
LINE
8
BLACK
6
CONTINUOUS
10
1.8652377559055118
20
-2.0718333464566929
11
1.8661417322834646
21
-2.0716535433070864
0
LINE
8
BLACK
6
CONTINUOUS
10
1.8661417322834646
20
-2.0716535433070864
11
1.9960629921259843
21
-2.0716535433070864
0
LINE
8
BLACK
6
CONTINUOUS
10
1.9960629921259843
20
-2.0716535433070864
11
1.9969669685039371
21
-2.0718333464566929
0
LINE
8
BLACK
6
CONTINUOUS
10
1.868503937007874
20
-2.0763779527559056
11
1.868503937007874
21
-2.1858267716535433
0
LINE
8
BLACK
6
CONTINUOUS
10
1.868503937007874
20
-2.1858267716535433
11
1.9937007874015749
21
-2.1858267716535433
0
LINE
8
BLACK
6
CONTINUOUS
10
1.9937007874015749
20
-2.1858267716535433
11
1.9937007874015749
21
-2.0763779527559056
0
LINE
8
BLACK
6
CONTINUOUS
10
1.9937007874015749
20
-2.0763779527559056
11
1.868503937007874
21
-2.0763779527559056
0
LINE
8
BLACK
6
CONTINUOUS
10
2.7469669685039371
20
-2.0718333464566929
11
2.7482453937007874
21
-2.0731117716535432
0
LINE
8
BLACK
6
CONTINUOUS
10
2.7482453937007874
20
-2.0731117716535432
11
2.7484251968503934
21
-2.074015748031496
0
LINE
8
BLACK
6
CONTINUOUS
10
2.7484251968503934
20
-2.074015748031496
11
2.7484251968503934
21
-2.1881889763779525
0
LINE
8
BLACK
6
CONTINUOUS
10
2.7484251968503934
20
-2.1881889763779525
11
2.7482453937007874
21
-2.1890929527559053
0
LINE
8
BLACK
6
CONTINUOUS
10
2.7482453937007874
20
-2.1890929527559053
11
2.7469669685039371
21
-2.190371377952756
0
LINE
8
BLACK
6
CONTINUOUS
10
2.7469669685039371
20
-2.190371377952756
11
2.7460629921259843
21
-2.1905511811023621
0
LINE
8
BLACK
6
CONTINUOUS
10
2.7460629921259843
20
-2.1905511811023621
11
2.6161417322834644
21
-2.1905511811023621
0
LINE
8
BLACK
6
CONTINUOUS
10
2.6161417322834644
20
-2.1905511811023621
11
2.6152377559055116
21
-2.190371377952756
0
LINE
8
BLACK
6
CONTINUOUS
10
2.6152377559055116
20
-2.190371377952756
11
2.6139593307086613
21
-2.1890929527559053
0
LINE
8
BLACK
6
CONTINUOUS
10
2.6139593307086613
20
-2.1890929527559053
11
2.6137795275590552
21
-2.1881889763779525
0
LINE
8
BLACK
6
CONTINUOUS
10
2.6137795275590552
20
-2.1881889763779525
11
2.6137795275590552
21
-2.074015748031496
0
LINE
8
BLACK
6
CONTINUOUS
10
2.6137795275590552
20
-2.074015748031496
11
2.6139593307086613
21
-2.0731117716535432
0
LINE
8
BLACK
6
CONTINUOUS
10
2.6139593307086613
20
-2.0731117716535432
11
2.6152377559055116
21
-2.0718333464566929
0
LINE
8
BLACK
6
CONTINUOUS
10
2.6152377559055116
20
-2.0718333464566929
11
2.6161417322834644
21
-2.0716535433070864
0
LINE
8
BLACK
6
CONTINUOUS
10
2.6161417322834644
20
-2.0716535433070864
11
2.7460629921259843
21
-2.0716535433070864
0
LINE
8
BLACK
6
CONTINUOUS
10
2.7460629921259843
20
-2.0716535433070864
11
2.7469669685039371
21
-2.0718333464566929
0
LINE
8
BLACK
6
CONTINUOUS
10
2.618503937007874
20
-2.0763779527559056
11
2.618503937007874
21
-2.1858267716535433
0
LINE
8
BLACK
6
CONTINUOUS
10
2.618503937007874
20
-2.1858267716535433
11
2.7437007874015746
21
-2.1858267716535433
0
LINE
8
BLACK
6
CONTINUOUS
10
2.7437007874015746
20
-2.1858267716535433
11
2.7437007874015746
21
-2.0763779527559056
0
LINE
8
BLACK
6
CONTINUOUS
10
2.7437007874015746
20
-2.0763779527559056
11
2.618503937007874
21
-2.0763779527559056
0
LINE
8
BLACK
6
CONTINUOUS
10
3.4969669685039371
20
-2.0718333464566929
11
3.4982453937007874
21
-2.0731117716535432
0
LINE
8
BLACK
6
CONTINUOUS
10
3.4982453937007874
20
-2.0731117716535432
11
3.4984251968503934
21
-2.074015748031496
0
LINE
8
BLACK
6
CONTINUOUS
10
3.4984251968503934
20
-2.074015748031496
11
3.4984251968503934
21
-2.1881889763779525
0
LINE
8
BLACK
6
CONTINUOUS
10
3.4984251968503934
20
-2.1881889763779525
11
3.4982453937007874
21
-2.1890929527559053
0
LINE
8
BLACK
6
CONTINUOUS
10
3.4982453937007874
20
-2.1890929527559053
11
3.4969669685039371
21
-2.190371377952756
0
LINE
8
BLACK
6
CONTINUOUS
10
3.4969669685039371
20
-2.190371377952756
11
3.4960629921259843
21
-2.1905511811023621
0
LINE
8
BLACK
6
CONTINUOUS
10
3.4960629921259843
20
-2.1905511811023621
11
3.3661417322834644
21
-2.1905511811023621
0
LINE
8
BLACK
6
CONTINUOUS
10
3.3661417322834644
20
-2.1905511811023621
11
3.3652377559055116
21
-2.190371377952756
0
LINE
8
BLACK
6
CONTINUOUS
10
3.3652377559055116
20
-2.190371377952756
11
3.3639593307086613
21
-2.1890929527559053
0
LINE
8
BLACK
6
CONTINUOUS
10
3.3639593307086613
20
-2.1890929527559053
11
3.3637795275590552
21
-2.1881889763779525
0
LINE
8
BLACK
6
CONTINUOUS
10
3.3637795275590552
20
-2.1881889763779525
11
3.3637795275590552
21
-2.074015748031496
0
LINE
8
BLACK
6
CONTINUOUS
10
3.3637795275590552
20
-2.074015748031496
11
3.3639593307086613
21
-2.0731117716535432
0
LINE
8
BLACK
6
CONTINUOUS
10
3.3639593307086613
20
-2.0731117716535432
11
3.3652377559055116
21
-2.0718333464566929
0
LINE
8
BLACK
6
CONTINUOUS
10
3.3652377559055116
20
-2.0718333464566929
11
3.3661417322834644
21
-2.0716535433070864
0
LINE
8
BLACK
6
CONTINUOUS
10
3.3661417322834644
20
-2.0716535433070864
11
3.4960629921259843
21
-2.0716535433070864
0
LINE
8
BLACK
6
CONTINUOUS
10
3.4960629921259843
20
-2.0716535433070864
11
3.4969669685039371
21
-2.0718333464566929
0
LINE
8
BLACK
6
CONTINUOUS
10
3.368503937007874
20
-2.0763779527559056
11
3.368503937007874
21
-2.1858267716535433
0
LINE
8
BLACK
6
CONTINUOUS
10
3.368503937007874
20
-2.1858267716535433
11
3.4937007874015746
21
-2.1858267716535433
0
LINE
8
BLACK
6
CONTINUOUS
10
3.4937007874015746
20
-2.1858267716535433
11
3.4937007874015746
21
-2.0763779527559056
0
LINE
8
BLACK
6
CONTINUOUS
10
3.4937007874015746
20
-2.0763779527559056
11
3.368503937007874
21
-2.0763779527559056
0
LINE
8
BLACK
6
CONTINUOUS
10
4.2469669685039371
20
-2.0718333464566929
11
4.2482453937007874
21
-2.0731117716535432
0
LINE
8
BLACK
6
CONTINUOUS
10
4.2482453937007874
20
-2.0731117716535432
11
4.2484251968503939
21
-2.074015748031496
0
LINE
8
BLACK
6
CONTINUOUS
10
4.2484251968503939
20
-2.074015748031496
11
4.2484251968503939
21
-2.1881889763779525
0
LINE
8
BLACK
6
CONTINUOUS
10
4.2484251968503939
20
-2.1881889763779525
11
4.2482453937007874
21
-2.1890929527559053
0
LINE
8
BLACK
6
CONTINUOUS
10
4.2482453937007874
20
-2.1890929527559053
11
4.2469669685039371
21
-2.190371377952756
0
LINE
8
BLACK
6
CONTINUOUS
10
4.2469669685039371
20
-2.190371377952756
11
4.2460629921259843
21
-2.1905511811023621
0
LINE
8
BLACK
6
CONTINUOUS
10
4.2460629921259843
20
-2.1905511811023621
11
4.1161417322834648
21
-2.1905511811023621
0
LINE
8
BLACK
6
CONTINUOUS
10
4.1161417322834648
20
-2.1905511811023621
11
4.115237755905512
21
-2.190371377952756
0
LINE
8
BLACK
6
CONTINUOUS
10
4.115237755905512
20
-2.190371377952756
11
4.1139593307086617
21
-2.1890929527559053
0
LINE
8
BLACK
6
CONTINUOUS
10
4.1139593307086617
20
-2.1890929527559053
11
4.1137795275590552
21
-2.1881889763779525
0
LINE
8
BLACK
6
CONTINUOUS
10
4.1137795275590552
20
-2.1881889763779525
11
4.1137795275590552
21
-2.074015748031496
0
LINE
8
BLACK
6
CONTINUOUS
10
4.1137795275590552
20
-2.074015748031496
11
4.1139593307086617
21
-2.0731117716535432
0
LINE
8
BLACK
6
CONTINUOUS
10
4.1139593307086617
20
-2.0731117716535432
11
4.115237755905512
21
-2.0718333464566929
0
LINE
8
BLACK
6
CONTINUOUS
10
4.115237755905512
20
-2.0718333464566929
11
4.1161417322834648
21
-2.0716535433070864
0
LINE
8
BLACK
6
CONTINUOUS
10
4.1161417322834648
20
-2.0716535433070864
11
4.2460629921259843
21
-2.0716535433070864
0
LINE
8
BLACK
6
CONTINUOUS
10
4.2460629921259843
20
-2.0716535433070864
11
4.2469669685039371
21
-2.0718333464566929
0
LINE
8
BLACK
6
CONTINUOUS
10
4.1185039370078735
20
-2.0763779527559056
11
4.1185039370078735
21
-2.1858267716535433
0
LINE
8
BLACK
6
CONTINUOUS
10
4.1185039370078735
20
-2.1858267716535433
11
4.2437007874015746
21
-2.1858267716535433
0
LINE
8
BLACK
6
CONTINUOUS
10
4.2437007874015746
20
-2.1858267716535433
11
4.2437007874015746
21
-2.0763779527559056
0
LINE
8
BLACK
6
CONTINUOUS
10
4.2437007874015746
20
-2.0763779527559056
11
4.1185039370078735
21
-2.0763779527559056
0
LINE
8
BLACK
6
CONTINUOUS
10
4.9969669685039371
20
-2.0718333464566929
11
4.9982453937007874
21
-2.0731117716535432
0
LINE
8
BLACK
6
CONTINUOUS
10
4.9982453937007874
20
-2.0731117716535432
11
4.9984251968503939
21
-2.074015748031496
0
LINE
8
BLACK
6
CONTINUOUS
10
4.9984251968503939
20
-2.074015748031496
11
4.9984251968503939
21
-2.1881889763779525
0
LINE
8
BLACK
6
CONTINUOUS
10
4.9984251968503939
20
-2.1881889763779525
11
4.9982453937007874
21
-2.1890929527559053
0
LINE
8
BLACK
6
CONTINUOUS
10
4.9982453937007874
20
-2.1890929527559053
11
4.9969669685039371
21
-2.190371377952756
0
LINE
8
BLACK
6
CONTINUOUS
10
4.9969669685039371
20
-2.190371377952756
11
4.9960629921259843
21
-2.1905511811023621
0
LINE
8
BLACK
6
CONTINUOUS
10
4.9960629921259843
20
-2.1905511811023621
11
4.8661417322834648
21
-2.1905511811023621
0
LINE
8
BLACK
6
CONTINUOUS
10
4.8661417322834648
20
-2.1905511811023621
11
4.865237755905512
21
-2.190371377952756
0
LINE
8
BLACK
6
CONTINUOUS
10
4.865237755905512
20
-2.190371377952756
11
4.8639593307086617
21
-2.1890929527559053
0
LINE
8
BLACK
6
CONTINUOUS
10
4.8639593307086617
20
-2.1890929527559053
11
4.8637795275590552
21
-2.1881889763779525
0
LINE
8
BLACK
6
CONTINUOUS
10
4.8637795275590552
20
-2.1881889763779525
11
4.8637795275590552
21
-2.074015748031496
0
LINE
8
BLACK
6
CONTINUOUS
10
4.8637795275590552
20
-2.074015748031496
11
4.8639593307086617
21
-2.0731117716535432
0
LINE
8
BLACK
6
CONTINUOUS
10
4.8639593307086617
20
-2.0731117716535432
11
4.865237755905512
21
-2.0718333464566929
0
LINE
8
BLACK
6
CONTINUOUS
10
4.865237755905512
20
-2.0718333464566929
11
4.8661417322834648
21
-2.0716535433070864
0
LINE
8
BLACK
6
CONTINUOUS
10
4.8661417322834648
20
-2.0716535433070864
11
4.9960629921259843
21
-2.0716535433070864
0
LINE
8
BLACK
6
CONTINUOUS
10
4.9960629921259843
20
-2.0716535433070864
11
4.9969669685039371
21
-2.0718333464566929
0
LINE
8
BLACK
6
CONTINUOUS
10
4.8685039370078735
20
-2.0763779527559056
11
4.8685039370078735
21
-2.1858267716535433
0
LINE
8
BLACK
6
CONTINUOUS
10
4.8685039370078735
20
-2.1858267716535433
11
4.9937007874015746
21
-2.1858267716535433
0
LINE
8
BLACK
6
CONTINUOUS
10
4.9937007874015746
20
-2.1858267716535433
11
4.9937007874015746
21
-2.0763779527559056
0
LINE
8
BLACK
6
CONTINUOUS
10
4.9937007874015746
20
-2.0763779527559056
11
4.8685039370078735
21
-2.0763779527559056
0
LINE
8
BLACK
6
CONTINUOUS
10
5.7469669685039371
20
-2.0718333464566929
11
5.7482453937007874
21
-2.0731117716535432
0
LINE
8
BLACK
6
CONTINUOUS
10
5.7482453937007874
20
-2.0731117716535432
11
5.7484251968503939
21
-2.074015748031496
0
LINE
8
BLACK
6
CONTINUOUS
10
5.7484251968503939
20
-2.074015748031496
11
5.7484251968503939
21
-2.1881889763779525
0
LINE
8
BLACK
6
CONTINUOUS
10
5.7484251968503939
20
-2.1881889763779525
11
5.7482453937007874
21
-2.1890929527559053
0
LINE
8
BLACK
6
CONTINUOUS
10
5.7482453937007874
20
-2.1890929527559053
11
5.7469669685039371
21
-2.190371377952756
0
LINE
8
BLACK
6
CONTINUOUS
10
5.7469669685039371
20
-2.190371377952756
11
5.7460629921259843
21
-2.1905511811023621
0
LINE
8
BLACK
6
CONTINUOUS
10
5.7460629921259843
20
-2.1905511811023621
11
5.6161417322834648
21
-2.1905511811023621
0
LINE
8
BLACK
6
CONTINUOUS
10
5.6161417322834648
20
-2.1905511811023621
11
5.615237755905512
21
-2.190371377952756
0
LINE
8
BLACK
6
CONTINUOUS
10
5.615237755905512
20
-2.190371377952756
11
5.6139593307086617
21
-2.1890929527559053
0
LINE
8
BLACK
6
CONTINUOUS
10
5.6139593307086617
20
-2.1890929527559053
11
5.6137795275590552
21
-2.1881889763779525
0
LINE
8
BLACK
6
CONTINUOUS
10
5.6137795275590552
20
-2.1881889763779525
11
5.6137795275590552
21
-2.074015748031496
0
LINE
8
BLACK
6
CONTINUOUS
10
5.6137795275590552
20
-2.074015748031496
11
5.6139593307086617
21
-2.0731117716535432
0
LINE
8
BLACK
6
CONTINUOUS
10
5.6139593307086617
20
-2.0731117716535432
11
5.615237755905512
21
-2.0718333464566929
0
LINE
8
BLACK
6
CONTINUOUS
10
5.615237755905512
20
-2.0718333464566929
11
5.6161417322834648
21
-2.0716535433070864
0
LINE
8
BLACK
6
CONTINUOUS
10
5.6161417322834648
20
-2.0716535433070864
11
5.7460629921259843
21
-2.0716535433070864
0
LINE
8
BLACK
6
CONTINUOUS
10
5.7460629921259843
20
-2.0716535433070864
11
5.7469669685039371
21
-2.0718333464566929
0
LINE
8
BLACK
6
CONTINUOUS
10
5.6185039370078735
20
-2.0763779527559056
11
5.6185039370078735
21
-2.1858267716535433
0
LINE
8
BLACK
6
CONTINUOUS
10
5.6185039370078735
20
-2.1858267716535433
11
5.7437007874015746
21
-2.1858267716535433
0
LINE
8
BLACK
6
CONTINUOUS
10
5.7437007874015746
20
-2.1858267716535433
11
5.7437007874015746
21
-2.0763779527559056
0
LINE
8
BLACK
6
CONTINUOUS
10
5.7437007874015746
20
-2.0763779527559056
11
5.6185039370078735
21
-2.0763779527559056
0
LINE
8
BLACK
6
CONTINUOUS
10
6.4969669685039371
20
-2.0718333464566929
11
6.4982453937007874
21
-2.0731117716535432
0
LINE
8
BLACK
6
CONTINUOUS
10
6.4982453937007874
20
-2.0731117716535432
11
6.4984251968503939
21
-2.074015748031496
0
LINE
8
BLACK
6
CONTINUOUS
10
6.4984251968503939
20
-2.074015748031496
11
6.4984251968503939
21
-2.1881889763779525
0
LINE
8
BLACK
6
CONTINUOUS
10
6.4984251968503939
20
-2.1881889763779525
11
6.4982453937007874
21
-2.1890929527559053
0
LINE
8
BLACK
6
CONTINUOUS
10
6.4982453937007874
20
-2.1890929527559053
11
6.4969669685039371
21
-2.190371377952756
0
LINE
8
BLACK
6
CONTINUOUS
10
6.4969669685039371
20
-2.190371377952756
11
6.4960629921259843
21
-2.1905511811023621
0
LINE
8
BLACK
6
CONTINUOUS
10
6.4960629921259843
20
-2.1905511811023621
11
6.3661417322834648
21
-2.1905511811023621
0
LINE
8
BLACK
6
CONTINUOUS
10
6.3661417322834648
20
-2.1905511811023621
11
6.365237755905512
21
-2.190371377952756
0
LINE
8
BLACK
6
CONTINUOUS
10
6.365237755905512
20
-2.190371377952756
11
6.3639593307086617
21
-2.1890929527559053
0
LINE
8
BLACK
6
CONTINUOUS
10
6.3639593307086617
20
-2.1890929527559053
11
6.3637795275590552
21
-2.1881889763779525
0
LINE
8
BLACK
6
CONTINUOUS
10
6.3637795275590552
20
-2.1881889763779525
11
6.3637795275590552
21
-2.074015748031496
0
LINE
8
BLACK
6
CONTINUOUS
10
6.3637795275590552
20
-2.074015748031496
11
6.3639593307086617
21
-2.0731117716535432
0
LINE
8
BLACK
6
CONTINUOUS
10
6.3639593307086617
20
-2.0731117716535432
11
6.365237755905512
21
-2.0718333464566929
0
LINE
8
BLACK
6
CONTINUOUS
10
6.365237755905512
20
-2.0718333464566929
11
6.3661417322834648
21
-2.0716535433070864
0
LINE
8
BLACK
6
CONTINUOUS
10
6.3661417322834648
20
-2.0716535433070864
11
6.4960629921259843
21
-2.0716535433070864
0
LINE
8
BLACK
6
CONTINUOUS
10
6.4960629921259843
20
-2.0716535433070864
11
6.4969669685039371
21
-2.0718333464566929
0
LINE
8
BLACK
6
CONTINUOUS
10
6.3685039370078735
20
-2.0763779527559056
11
6.3685039370078735
21
-2.1858267716535433
0
LINE
8
BLACK
6
CONTINUOUS
10
6.3685039370078735
20
-2.1858267716535433
11
6.4937007874015746
21
-2.1858267716535433
0
LINE
8
BLACK
6
CONTINUOUS
10
6.4937007874015746
20
-2.1858267716535433
11
6.4937007874015746
21
-2.0763779527559056
0
LINE
8
BLACK
6
CONTINUOUS
10
6.4937007874015746
20
-2.0763779527559056
11
6.3685039370078735
21
-2.0763779527559056
0
LINE
8
BLACK
6
CONTINUOUS
10
7.2469669685039371
20
-2.0718333464566929
11
7.2482453937007874
21
-2.0731117716535432
0
LINE
8
BLACK
6
CONTINUOUS
10
7.2482453937007874
20
-2.0731117716535432
11
7.2484251968503939
21
-2.074015748031496
0
LINE
8
BLACK
6
CONTINUOUS
10
7.2484251968503939
20
-2.074015748031496
11
7.2484251968503939
21
-2.1881889763779525
0
LINE
8
BLACK
6
CONTINUOUS
10
7.2484251968503939
20
-2.1881889763779525
11
7.2482453937007874
21
-2.1890929527559053
0
LINE
8
BLACK
6
CONTINUOUS
10
7.2482453937007874
20
-2.1890929527559053
11
7.2469669685039371
21
-2.190371377952756
0
LINE
8
BLACK
6
CONTINUOUS
10
7.2469669685039371
20
-2.190371377952756
11
7.2460629921259843
21
-2.1905511811023621
0
LINE
8
BLACK
6
CONTINUOUS
10
7.2460629921259843
20
-2.1905511811023621
11
7.1161417322834648
21
-2.1905511811023621
0
LINE
8
BLACK
6
CONTINUOUS
10
7.1161417322834648
20
-2.1905511811023621
11
7.115237755905512
21
-2.190371377952756
0
LINE
8
BLACK
6
CONTINUOUS
10
7.115237755905512
20
-2.190371377952756
11
7.1139593307086608
21
-2.1890929527559053
0
LINE
8
BLACK
6
CONTINUOUS
10
7.1139593307086608
20
-2.1890929527559053
11
7.1137795275590552
21
-2.1881889763779525
0
LINE
8
BLACK
6
CONTINUOUS
10
7.1137795275590552
20
-2.1881889763779525
11
7.1137795275590552
21
-2.074015748031496
0
LINE
8
BLACK
6
CONTINUOUS
10
7.1137795275590552
20
-2.074015748031496
11
7.1139593307086608
21
-2.0731117716535432
0
LINE
8
BLACK
6
CONTINUOUS
10
7.1139593307086608
20
-2.0731117716535432
11
7.115237755905512
21
-2.0718333464566929
0
LINE
8
BLACK
6
CONTINUOUS
10
7.115237755905512
20
-2.0718333464566929
11
7.1161417322834648
21
-2.0716535433070864
0
LINE
8
BLACK
6
CONTINUOUS
10
7.1161417322834648
20
-2.0716535433070864
11
7.2460629921259843
21
-2.0716535433070864
0
LINE
8
BLACK
6
CONTINUOUS
10
7.2460629921259843
20
-2.0716535433070864
11
7.2469669685039371
21
-2.0718333464566929
0
LINE
8
BLACK
6
CONTINUOUS
10
7.1185039370078735
20
-2.0763779527559056
11
7.1185039370078735
21
-2.1858267716535433
0
LINE
8
BLACK
6
CONTINUOUS
10
7.1185039370078735
20
-2.1858267716535433
11
7.2437007874015746
21
-2.1858267716535433
0
LINE
8
BLACK
6
CONTINUOUS
10
7.2437007874015746
20
-2.1858267716535433
11
7.2437007874015746
21
-2.0763779527559056
0
LINE
8
BLACK
6
CONTINUOUS
10
7.2437007874015746
20
-2.0763779527559056
11
7.1185039370078735
21
-2.0763779527559056
0
LINE
8
BLACK
6
CONTINUOUS
10
7.9969669685039371
20
-2.0718333464566929
11
7.9982453937007874
21
-2.0731117716535432
0
LINE
8
BLACK
6
CONTINUOUS
10
7.9982453937007874
20
-2.0731117716535432
11
7.9984251968503939
21
-2.074015748031496
0
LINE
8
BLACK
6
CONTINUOUS
10
7.9984251968503939
20
-2.074015748031496
11
7.9984251968503939
21
-2.1881889763779525
0
LINE
8
BLACK
6
CONTINUOUS
10
7.9984251968503939
20
-2.1881889763779525
11
7.9982453937007874
21
-2.1890929527559053
0
LINE
8
BLACK
6
CONTINUOUS
10
7.9982453937007874
20
-2.1890929527559053
11
7.9969669685039371
21
-2.190371377952756
0
LINE
8
BLACK
6
CONTINUOUS
10
7.9969669685039371
20
-2.190371377952756
11
7.9960629921259843
21
-2.1905511811023621
0
LINE
8
BLACK
6
CONTINUOUS
10
7.9960629921259843
20
-2.1905511811023621
11
7.8661417322834648
21
-2.1905511811023621
0
LINE
8
BLACK
6
CONTINUOUS
10
7.8661417322834648
20
-2.1905511811023621
11
7.865237755905512
21
-2.190371377952756
0
LINE
8
BLACK
6
CONTINUOUS
10
7.865237755905512
20
-2.190371377952756
11
7.8639593307086608
21
-2.1890929527559053
0
LINE
8
BLACK
6
CONTINUOUS
10
7.8639593307086608
20
-2.1890929527559053
11
7.8637795275590552
21
-2.1881889763779525
0
LINE
8
BLACK
6
CONTINUOUS
10
7.8637795275590552
20
-2.1881889763779525
11
7.8637795275590552
21
-2.074015748031496
0
LINE
8
BLACK
6
CONTINUOUS
10
7.8637795275590552
20
-2.074015748031496
11
7.8639593307086608
21
-2.0731117716535432
0
LINE
8
BLACK
6
CONTINUOUS
10
7.8639593307086608
20
-2.0731117716535432
11
7.865237755905512
21
-2.0718333464566929
0
LINE
8
BLACK
6
CONTINUOUS
10
7.865237755905512
20
-2.0718333464566929
11
7.8661417322834648
21
-2.0716535433070864
0
LINE
8
BLACK
6
CONTINUOUS
10
7.8661417322834648
20
-2.0716535433070864
11
7.9960629921259843
21
-2.0716535433070864
0
LINE
8
BLACK
6
CONTINUOUS
10
7.9960629921259843
20
-2.0716535433070864
11
7.9969669685039371
21
-2.0718333464566929
0
LINE
8
BLACK
6
CONTINUOUS
10
7.8685039370078735
20
-2.0763779527559056
11
7.8685039370078735
21
-2.1858267716535433
0
LINE
8
BLACK
6
CONTINUOUS
10
7.8685039370078735
20
-2.1858267716535433
11
7.9937007874015746
21
-2.1858267716535433
0
LINE
8
BLACK
6
CONTINUOUS
10
7.9937007874015746
20
-2.1858267716535433
11
7.9937007874015746
21
-2.0763779527559056
0
LINE
8
BLACK
6
CONTINUOUS
10
7.9937007874015746
20
-2.0763779527559056
11
7.8685039370078735
21
-2.0763779527559056
0
LINE
8
BLACK
6
CONTINUOUS
10
1.2469669685039371
20
-1.3218333464566929
11
1.2482453937007874
21
-1.3231117716535432
0
LINE
8
BLACK
6
CONTINUOUS
10
1.2482453937007874
20
-1.3231117716535432
11
1.2484251968503937
21
-1.324015748031496
0
LINE
8
BLACK
6
CONTINUOUS
10
1.2484251968503937
20
-1.324015748031496
11
1.2484251968503937
21
-1.4381889763779527
0
LINE
8
BLACK
6
CONTINUOUS
10
1.2484251968503937
20
-1.4381889763779527
11
1.2482453937007874
21
-1.4390929527559055
0
LINE
8
BLACK
6
CONTINUOUS
10
1.2482453937007874
20
-1.4390929527559055
11
1.2469669685039371
21
-1.4403713779527558
0
LINE
8
BLACK
6
CONTINUOUS
10
1.2469669685039371
20
-1.4403713779527558
11
1.2460629921259843
21
-1.4405511811023621
0
LINE
8
BLACK
6
CONTINUOUS
10
1.2460629921259843
20
-1.4405511811023621
11
1.1161417322834646
21
-1.4405511811023621
0
LINE
8
BLACK
6
CONTINUOUS
10
1.1161417322834646
20
-1.4405511811023621
11
1.1152377559055118
21
-1.4403713779527558
0
LINE
8
BLACK
6
CONTINUOUS
10
1.1152377559055118
20
-1.4403713779527558
11
1.1139593307086615
21
-1.4390929527559055
0
LINE
8
BLACK
6
CONTINUOUS
10
1.1139593307086615
20
-1.4390929527559055
11
1.1137795275590552
21
-1.4381889763779527
0
LINE
8
BLACK
6
CONTINUOUS
10
1.1137795275590552
20
-1.4381889763779527
11
1.1137795275590552
21
-1.324015748031496
0
LINE
8
BLACK
6
CONTINUOUS
10
1.1137795275590552
20
-1.324015748031496
11
1.1139593307086615
21
-1.3231117716535432
0
LINE
8
BLACK
6
CONTINUOUS
10
1.1139593307086615
20
-1.3231117716535432
11
1.1152377559055118
21
-1.3218333464566929
0
LINE
8
BLACK
6
CONTINUOUS
10
1.1152377559055118
20
-1.3218333464566929
11
1.1161417322834646
21
-1.3216535433070866
0
LINE
8
BLACK
6
CONTINUOUS
10
1.1161417322834646
20
-1.3216535433070866
11
1.2460629921259843
21
-1.3216535433070866
0
LINE
8
BLACK
6
CONTINUOUS
10
1.2460629921259843
20
-1.3216535433070866
11
1.2469669685039371
21
-1.3218333464566929
0
LINE
8
BLACK
6
CONTINUOUS
10
1.118503937007874
20
-1.3263779527559054
11
1.118503937007874
21
-1.4358267716535433
0
LINE
8
BLACK
6
CONTINUOUS
10
1.118503937007874
20
-1.4358267716535433
11
1.2437007874015749
21
-1.4358267716535433
0
LINE
8
BLACK
6
CONTINUOUS
10
1.2437007874015749
20
-1.4358267716535433
11
1.2437007874015749
21
-1.3263779527559054
0
LINE
8
BLACK
6
CONTINUOUS
10
1.2437007874015749
20
-1.3263779527559054
11
1.118503937007874
21
-1.3263779527559054
0
LINE
8
BLACK
6
CONTINUOUS
10
1.9969669685039371
20
-1.3218333464566929
11
1.9982453937007874
21
-1.3231117716535432
0
LINE
8
BLACK
6
CONTINUOUS
10
1.9982453937007874
20
-1.3231117716535432
11
1.9984251968503937
21
-1.324015748031496
0
LINE
8
BLACK
6
CONTINUOUS
10
1.9984251968503937
20
-1.324015748031496
11
1.9984251968503937
21
-1.4381889763779527
0
LINE
8
BLACK
6
CONTINUOUS
10
1.9984251968503937
20
-1.4381889763779527
11
1.9982453937007874
21
-1.4390929527559055
0
LINE
8
BLACK
6
CONTINUOUS
10
1.9982453937007874
20
-1.4390929527559055
11
1.9969669685039371
21
-1.4403713779527558
0
LINE
8
BLACK
6
CONTINUOUS
10
1.9969669685039371
20
-1.4403713779527558
11
1.9960629921259843
21
-1.4405511811023621
0
LINE
8
BLACK
6
CONTINUOUS
10
1.9960629921259843
20
-1.4405511811023621
11
1.8661417322834646
21
-1.4405511811023621
0
LINE
8
BLACK
6
CONTINUOUS
10
1.8661417322834646
20
-1.4405511811023621
11
1.8652377559055118
21
-1.4403713779527558
0
LINE
8
BLACK
6
CONTINUOUS
10
1.8652377559055118
20
-1.4403713779527558
11
1.8639593307086613
21
-1.4390929527559055
0
LINE
8
BLACK
6
CONTINUOUS
10
1.8639593307086613
20
-1.4390929527559055
11
1.8637795275590552
21
-1.4381889763779527
0
LINE
8
BLACK
6
CONTINUOUS
10
1.8637795275590552
20
-1.4381889763779527
11
1.8637795275590552
21
-1.324015748031496
0
LINE
8
BLACK
6
CONTINUOUS
10
1.8637795275590552
20
-1.324015748031496
11
1.8639593307086613
21
-1.3231117716535432
0
LINE
8
BLACK
6
CONTINUOUS
10
1.8639593307086613
20
-1.3231117716535432
11
1.8652377559055118
21
-1.3218333464566929
0
LINE
8
BLACK
6
CONTINUOUS
10
1.8652377559055118
20
-1.3218333464566929
11
1.8661417322834646
21
-1.3216535433070866
0
LINE
8
BLACK
6
CONTINUOUS
10
1.8661417322834646
20
-1.3216535433070866
11
1.9960629921259843
21
-1.3216535433070866
0
LINE
8
BLACK
6
CONTINUOUS
10
1.9960629921259843
20
-1.3216535433070866
11
1.9969669685039371
21
-1.3218333464566929
0
LINE
8
BLACK
6
CONTINUOUS
10
1.868503937007874
20
-1.3263779527559054
11
1.868503937007874
21
-1.4358267716535433
0
LINE
8
BLACK
6
CONTINUOUS
10
1.868503937007874
20
-1.4358267716535433
11
1.9937007874015749
21
-1.4358267716535433
0
LINE
8
BLACK
6
CONTINUOUS
10
1.9937007874015749
20
-1.4358267716535433
11
1.9937007874015749
21
-1.3263779527559054
0
LINE
8
BLACK
6
CONTINUOUS
10
1.9937007874015749
20
-1.3263779527559054
11
1.868503937007874
21
-1.3263779527559054
0
LINE
8
BLACK
6
CONTINUOUS
10
2.7469669685039371
20
-1.3218333464566929
11
2.7482453937007874
21
-1.3231117716535432
0
LINE
8
BLACK
6
CONTINUOUS
10
2.7482453937007874
20
-1.3231117716535432
11
2.7484251968503934
21
-1.324015748031496
0
LINE
8
BLACK
6
CONTINUOUS
10
2.7484251968503934
20
-1.324015748031496
11
2.7484251968503934
21
-1.4381889763779527
0
LINE
8
BLACK
6
CONTINUOUS
10
2.7484251968503934
20
-1.4381889763779527
11
2.7482453937007874
21
-1.4390929527559055
0
LINE
8
BLACK
6
CONTINUOUS
10
2.7482453937007874
20
-1.4390929527559055
11
2.7469669685039371
21
-1.4403713779527558
0
LINE
8
BLACK
6
CONTINUOUS
10
2.7469669685039371
20
-1.4403713779527558
11
2.7460629921259843
21
-1.4405511811023621
0
LINE
8
BLACK
6
CONTINUOUS
10
2.7460629921259843
20
-1.4405511811023621
11
2.6161417322834644
21
-1.4405511811023621
0
LINE
8
BLACK
6
CONTINUOUS
10
2.6161417322834644
20
-1.4405511811023621
11
2.6152377559055116
21
-1.4403713779527558
0
LINE
8
BLACK
6
CONTINUOUS
10
2.6152377559055116
20
-1.4403713779527558
11
2.6139593307086613
21
-1.4390929527559055
0
LINE
8
BLACK
6
CONTINUOUS
10
2.6139593307086613
20
-1.4390929527559055
11
2.6137795275590552
21
-1.4381889763779527
0
LINE
8
BLACK
6
CONTINUOUS
10
2.6137795275590552
20
-1.4381889763779527
11
2.6137795275590552
21
-1.324015748031496
0
LINE
8
BLACK
6
CONTINUOUS
10
2.6137795275590552
20
-1.324015748031496
11
2.6139593307086613
21
-1.3231117716535432
0
LINE
8
BLACK
6
CONTINUOUS
10
2.6139593307086613
20
-1.3231117716535432
11
2.6152377559055116
21
-1.3218333464566929
0
LINE
8
BLACK
6
CONTINUOUS
10
2.6152377559055116
20
-1.3218333464566929
11
2.6161417322834644
21
-1.3216535433070866
0
LINE
8
BLACK
6
CONTINUOUS
10
2.6161417322834644
20
-1.3216535433070866
11
2.7460629921259843
21
-1.3216535433070866
0
LINE
8
BLACK
6
CONTINUOUS
10
2.7460629921259843
20
-1.3216535433070866
11
2.7469669685039371
21
-1.3218333464566929
0
LINE
8
BLACK
6
CONTINUOUS
10
2.618503937007874
20
-1.3263779527559054
11
2.618503937007874
21
-1.4358267716535433
0
LINE
8
BLACK
6
CONTINUOUS
10
2.618503937007874
20
-1.4358267716535433
11
2.7437007874015746
21
-1.4358267716535433
0
LINE
8
BLACK
6
CONTINUOUS
10
2.7437007874015746
20
-1.4358267716535433
11
2.7437007874015746
21
-1.3263779527559054
0
LINE
8
BLACK
6
CONTINUOUS
10
2.7437007874015746
20
-1.3263779527559054
11
2.618503937007874
21
-1.3263779527559054
0
LINE
8
BLACK
6
CONTINUOUS
10
3.4969669685039371
20
-1.3218333464566929
11
3.4982453937007874
21
-1.3231117716535432
0
LINE
8
BLACK
6
CONTINUOUS
10
3.4982453937007874
20
-1.3231117716535432
11
3.4984251968503934
21
-1.324015748031496
0
LINE
8
BLACK
6
CONTINUOUS
10
3.4984251968503934
20
-1.324015748031496
11
3.4984251968503934
21
-1.4381889763779527
0
LINE
8
BLACK
6
CONTINUOUS
10
3.4984251968503934
20
-1.4381889763779527
11
3.4982453937007874
21
-1.4390929527559055
0
LINE
8
BLACK
6
CONTINUOUS
10
3.4982453937007874
20
-1.4390929527559055
11
3.4969669685039371
21
-1.4403713779527558
0
LINE
8
BLACK
6
CONTINUOUS
10
3.4969669685039371
20
-1.4403713779527558
11
3.4960629921259843
21
-1.4405511811023621
0
LINE
8
BLACK
6
CONTINUOUS
10
3.4960629921259843
20
-1.4405511811023621
11
3.3661417322834644
21
-1.4405511811023621
0
LINE
8
BLACK
6
CONTINUOUS
10
3.3661417322834644
20
-1.4405511811023621
11
3.3652377559055116
21
-1.4403713779527558
0
LINE
8
BLACK
6
CONTINUOUS
10
3.3652377559055116
20
-1.4403713779527558
11
3.3639593307086613
21
-1.4390929527559055
0
LINE
8
BLACK
6
CONTINUOUS
10
3.3639593307086613
20
-1.4390929527559055
11
3.3637795275590552
21
-1.4381889763779527
0
LINE
8
BLACK
6
CONTINUOUS
10
3.3637795275590552
20
-1.4381889763779527
11
3.3637795275590552
21
-1.324015748031496
0
LINE
8
BLACK
6
CONTINUOUS
10
3.3637795275590552
20
-1.324015748031496
11
3.3639593307086613
21
-1.3231117716535432
0
LINE
8
BLACK
6
CONTINUOUS
10
3.3639593307086613
20
-1.3231117716535432
11
3.3652377559055116
21
-1.3218333464566929
0
LINE
8
BLACK
6
CONTINUOUS
10
3.3652377559055116
20
-1.3218333464566929
11
3.3661417322834644
21
-1.3216535433070866
0
LINE
8
BLACK
6
CONTINUOUS
10
3.3661417322834644
20
-1.3216535433070866
11
3.4960629921259843
21
-1.3216535433070866
0
LINE
8
BLACK
6
CONTINUOUS
10
3.4960629921259843
20
-1.3216535433070866
11
3.4969669685039371
21
-1.3218333464566929
0
LINE
8
BLACK
6
CONTINUOUS
10
3.368503937007874
20
-1.3263779527559054
11
3.368503937007874
21
-1.4358267716535433
0
LINE
8
BLACK
6
CONTINUOUS
10
3.368503937007874
20
-1.4358267716535433
11
3.4937007874015746
21
-1.4358267716535433
0
LINE
8
BLACK
6
CONTINUOUS
10
3.4937007874015746
20
-1.4358267716535433
11
3.4937007874015746
21
-1.3263779527559054
0
LINE
8
BLACK
6
CONTINUOUS
10
3.4937007874015746
20
-1.3263779527559054
11
3.368503937007874
21
-1.3263779527559054
0
LINE
8
BLACK
6
CONTINUOUS
10
4.2469669685039371
20
-1.3218333464566929
11
4.2482453937007874
21
-1.3231117716535432
0
LINE
8
BLACK
6
CONTINUOUS
10
4.2482453937007874
20
-1.3231117716535432
11
4.2484251968503939
21
-1.324015748031496
0
LINE
8
BLACK
6
CONTINUOUS
10
4.2484251968503939
20
-1.324015748031496
11
4.2484251968503939
21
-1.4381889763779527
0
LINE
8
BLACK
6
CONTINUOUS
10
4.2484251968503939
20
-1.4381889763779527
11
4.2482453937007874
21
-1.4390929527559055
0
LINE
8
BLACK
6
CONTINUOUS
10
4.2482453937007874
20
-1.4390929527559055
11
4.2469669685039371
21
-1.4403713779527558
0
LINE
8
BLACK
6
CONTINUOUS
10
4.2469669685039371
20
-1.4403713779527558
11
4.2460629921259843
21
-1.4405511811023621
0
LINE
8
BLACK
6
CONTINUOUS
10
4.2460629921259843
20
-1.4405511811023621
11
4.1161417322834648
21
-1.4405511811023621
0
LINE
8
BLACK
6
CONTINUOUS
10
4.1161417322834648
20
-1.4405511811023621
11
4.115237755905512
21
-1.4403713779527558
0
LINE
8
BLACK
6
CONTINUOUS
10
4.115237755905512
20
-1.4403713779527558
11
4.1139593307086617
21
-1.4390929527559055
0
LINE
8
BLACK
6
CONTINUOUS
10
4.1139593307086617
20
-1.4390929527559055
11
4.1137795275590552
21
-1.4381889763779527
0
LINE
8
BLACK
6
CONTINUOUS
10
4.1137795275590552
20
-1.4381889763779527
11
4.1137795275590552
21
-1.324015748031496
0
LINE
8
BLACK
6
CONTINUOUS
10
4.1137795275590552
20
-1.324015748031496
11
4.1139593307086617
21
-1.3231117716535432
0
LINE
8
BLACK
6
CONTINUOUS
10
4.1139593307086617
20
-1.3231117716535432
11
4.115237755905512
21
-1.3218333464566929
0
LINE
8
BLACK
6
CONTINUOUS
10
4.115237755905512
20
-1.3218333464566929
11
4.1161417322834648
21
-1.3216535433070866
0
LINE
8
BLACK
6
CONTINUOUS
10
4.1161417322834648
20
-1.3216535433070866
11
4.2460629921259843
21
-1.3216535433070866
0
LINE
8
BLACK
6
CONTINUOUS
10
4.2460629921259843
20
-1.3216535433070866
11
4.2469669685039371
21
-1.3218333464566929
0
LINE
8
BLACK
6
CONTINUOUS
10
4.1185039370078735
20
-1.3263779527559054
11
4.1185039370078735
21
-1.4358267716535433
0
LINE
8
BLACK
6
CONTINUOUS
10
4.1185039370078735
20
-1.4358267716535433
11
4.2437007874015746
21
-1.4358267716535433
0
LINE
8
BLACK
6
CONTINUOUS
10
4.2437007874015746
20
-1.4358267716535433
11
4.2437007874015746
21
-1.3263779527559054
0
LINE
8
BLACK
6
CONTINUOUS
10
4.2437007874015746
20
-1.3263779527559054
11
4.1185039370078735
21
-1.3263779527559054
0
LINE
8
BLACK
6
CONTINUOUS
10
4.9969669685039371
20
-1.3218333464566929
11
4.9982453937007874
21
-1.3231117716535432
0
LINE
8
BLACK
6
CONTINUOUS
10
4.9982453937007874
20
-1.3231117716535432
11
4.9984251968503939
21
-1.324015748031496
0
LINE
8
BLACK
6
CONTINUOUS
10
4.9984251968503939
20
-1.324015748031496
11
4.9984251968503939
21
-1.4381889763779527
0
LINE
8
BLACK
6
CONTINUOUS
10
4.9984251968503939
20
-1.4381889763779527
11
4.9982453937007874
21
-1.4390929527559055
0
LINE
8
BLACK
6
CONTINUOUS
10
4.9982453937007874
20
-1.4390929527559055
11
4.9969669685039371
21
-1.4403713779527558
0
LINE
8
BLACK
6
CONTINUOUS
10
4.9969669685039371
20
-1.4403713779527558
11
4.9960629921259843
21
-1.4405511811023621
0
LINE
8
BLACK
6
CONTINUOUS
10
4.9960629921259843
20
-1.4405511811023621
11
4.8661417322834648
21
-1.4405511811023621
0
LINE
8
BLACK
6
CONTINUOUS
10
4.8661417322834648
20
-1.4405511811023621
11
4.865237755905512
21
-1.4403713779527558
0
LINE
8
BLACK
6
CONTINUOUS
10
4.865237755905512
20
-1.4403713779527558
11
4.8639593307086617
21
-1.4390929527559055
0
LINE
8
BLACK
6
CONTINUOUS
10
4.8639593307086617
20
-1.4390929527559055
11
4.8637795275590552
21
-1.4381889763779527
0
LINE
8
BLACK
6
CONTINUOUS
10
4.8637795275590552
20
-1.4381889763779527
11
4.8637795275590552
21
-1.324015748031496
0
LINE
8
BLACK
6
CONTINUOUS
10
4.8637795275590552
20
-1.324015748031496
11
4.8639593307086617
21
-1.3231117716535432
0
LINE
8
BLACK
6
CONTINUOUS
10
4.8639593307086617
20
-1.3231117716535432
11
4.865237755905512
21
-1.3218333464566929
0
LINE
8
BLACK
6
CONTINUOUS
10
4.865237755905512
20
-1.3218333464566929
11
4.8661417322834648
21
-1.3216535433070866
0
LINE
8
BLACK
6
CONTINUOUS
10
4.8661417322834648
20
-1.3216535433070866
11
4.9960629921259843
21
-1.3216535433070866
0
LINE
8
BLACK
6
CONTINUOUS
10
4.9960629921259843
20
-1.3216535433070866
11
4.9969669685039371
21
-1.3218333464566929
0
LINE
8
BLACK
6
CONTINUOUS
10
4.8685039370078735
20
-1.3263779527559054
11
4.8685039370078735
21
-1.4358267716535433
0
LINE
8
BLACK
6
CONTINUOUS
10
4.8685039370078735
20
-1.4358267716535433
11
4.9937007874015746
21
-1.4358267716535433
0
LINE
8
BLACK
6
CONTINUOUS
10
4.9937007874015746
20
-1.4358267716535433
11
4.9937007874015746
21
-1.3263779527559054
0
LINE
8
BLACK
6
CONTINUOUS
10
4.9937007874015746
20
-1.3263779527559054
11
4.8685039370078735
21
-1.3263779527559054
0
LINE
8
BLACK
6
CONTINUOUS
10
5.7469669685039371
20
-1.3218333464566929
11
5.7482453937007874
21
-1.3231117716535432
0
LINE
8
BLACK
6
CONTINUOUS
10
5.7482453937007874
20
-1.3231117716535432
11
5.7484251968503939
21
-1.324015748031496
0
LINE
8
BLACK
6
CONTINUOUS
10
5.7484251968503939
20
-1.324015748031496
11
5.7484251968503939
21
-1.4381889763779527
0
LINE
8
BLACK
6
CONTINUOUS
10
5.7484251968503939
20
-1.4381889763779527
11
5.7482453937007874
21
-1.4390929527559055
0
LINE
8
BLACK
6
CONTINUOUS
10
5.7482453937007874
20
-1.4390929527559055
11
5.7469669685039371
21
-1.4403713779527558
0
LINE
8
BLACK
6
CONTINUOUS
10
5.7469669685039371
20
-1.4403713779527558
11
5.7460629921259843
21
-1.4405511811023621
0
LINE
8
BLACK
6
CONTINUOUS
10
5.7460629921259843
20
-1.4405511811023621
11
5.6161417322834648
21
-1.4405511811023621
0
LINE
8
BLACK
6
CONTINUOUS
10
5.6161417322834648
20
-1.4405511811023621
11
5.615237755905512
21
-1.4403713779527558
0
LINE
8
BLACK
6
CONTINUOUS
10
5.615237755905512
20
-1.4403713779527558
11
5.6139593307086617
21
-1.4390929527559055
0
LINE
8
BLACK
6
CONTINUOUS
10
5.6139593307086617
20
-1.4390929527559055
11
5.6137795275590552
21
-1.4381889763779527
0
LINE
8
BLACK
6
CONTINUOUS
10
5.6137795275590552
20
-1.4381889763779527
11
5.6137795275590552
21
-1.324015748031496
0
LINE
8
BLACK
6
CONTINUOUS
10
5.6137795275590552
20
-1.324015748031496
11
5.6139593307086617
21
-1.3231117716535432
0
LINE
8
BLACK
6
CONTINUOUS
10
5.6139593307086617
20
-1.3231117716535432
11
5.615237755905512
21
-1.3218333464566929
0
LINE
8
BLACK
6
CONTINUOUS
10
5.615237755905512
20
-1.3218333464566929
11
5.6161417322834648
21
-1.3216535433070866
0
LINE
8
BLACK
6
CONTINUOUS
10
5.6161417322834648
20
-1.3216535433070866
11
5.7460629921259843
21
-1.3216535433070866
0
LINE
8
BLACK
6
CONTINUOUS
10
5.7460629921259843
20
-1.3216535433070866
11
5.7469669685039371
21
-1.3218333464566929
0
LINE
8
BLACK
6
CONTINUOUS
10
5.6185039370078735
20
-1.3263779527559054
11
5.6185039370078735
21
-1.4358267716535433
0
LINE
8
BLACK
6
CONTINUOUS
10
5.6185039370078735
20
-1.4358267716535433
11
5.7437007874015746
21
-1.4358267716535433
0
LINE
8
BLACK
6
CONTINUOUS
10
5.7437007874015746
20
-1.4358267716535433
11
5.7437007874015746
21
-1.3263779527559054
0
LINE
8
BLACK
6
CONTINUOUS
10
5.7437007874015746
20
-1.3263779527559054
11
5.6185039370078735
21
-1.3263779527559054
0
LINE
8
BLACK
6
CONTINUOUS
10
6.4969669685039371
20
-1.3218333464566929
11
6.4982453937007874
21
-1.3231117716535432
0
LINE
8
BLACK
6
CONTINUOUS
10
6.4982453937007874
20
-1.3231117716535432
11
6.4984251968503939
21
-1.324015748031496
0
LINE
8
BLACK
6
CONTINUOUS
10
6.4984251968503939
20
-1.324015748031496
11
6.4984251968503939
21
-1.4381889763779527
0
LINE
8
BLACK
6
CONTINUOUS
10
6.4984251968503939
20
-1.4381889763779527
11
6.4982453937007874
21
-1.4390929527559055
0
LINE
8
BLACK
6
CONTINUOUS
10
6.4982453937007874
20
-1.4390929527559055
11
6.4969669685039371
21
-1.4403713779527558
0
LINE
8
BLACK
6
CONTINUOUS
10
6.4969669685039371
20
-1.4403713779527558
11
6.4960629921259843
21
-1.4405511811023621
0
LINE
8
BLACK
6
CONTINUOUS
10
6.4960629921259843
20
-1.4405511811023621
11
6.3661417322834648
21
-1.4405511811023621
0
LINE
8
BLACK
6
CONTINUOUS
10
6.3661417322834648
20
-1.4405511811023621
11
6.365237755905512
21
-1.4403713779527558
0
LINE
8
BLACK
6
CONTINUOUS
10
6.365237755905512
20
-1.4403713779527558
11
6.3639593307086617
21
-1.4390929527559055
0
LINE
8
BLACK
6
CONTINUOUS
10
6.3639593307086617
20
-1.4390929527559055
11
6.3637795275590552
21
-1.4381889763779527
0
LINE
8
BLACK
6
CONTINUOUS
10
6.3637795275590552
20
-1.4381889763779527
11
6.3637795275590552
21
-1.324015748031496
0
LINE
8
BLACK
6
CONTINUOUS
10
6.3637795275590552
20
-1.324015748031496
11
6.3639593307086617
21
-1.3231117716535432
0
LINE
8
BLACK
6
CONTINUOUS
10
6.3639593307086617
20
-1.3231117716535432
11
6.365237755905512
21
-1.3218333464566929
0
LINE
8
BLACK
6
CONTINUOUS
10
6.365237755905512
20
-1.3218333464566929
11
6.3661417322834648
21
-1.3216535433070866
0
LINE
8
BLACK
6
CONTINUOUS
10
6.3661417322834648
20
-1.3216535433070866
11
6.4960629921259843
21
-1.3216535433070866
0
LINE
8
BLACK
6
CONTINUOUS
10
6.4960629921259843
20
-1.3216535433070866
11
6.4969669685039371
21
-1.3218333464566929
0
LINE
8
BLACK
6
CONTINUOUS
10
6.3685039370078735
20
-1.3263779527559054
11
6.3685039370078735
21
-1.4358267716535433
0
LINE
8
BLACK
6
CONTINUOUS
10
6.3685039370078735
20
-1.4358267716535433
11
6.4937007874015746
21
-1.4358267716535433
0
LINE
8
BLACK
6
CONTINUOUS
10
6.4937007874015746
20
-1.4358267716535433
11
6.4937007874015746
21
-1.3263779527559054
0
LINE
8
BLACK
6
CONTINUOUS
10
6.4937007874015746
20
-1.3263779527559054
11
6.3685039370078735
21
-1.3263779527559054
0
LINE
8
BLACK
6
CONTINUOUS
10
7.2469669685039371
20
-1.3218333464566929
11
7.2482453937007874
21
-1.3231117716535432
0
LINE
8
BLACK
6
CONTINUOUS
10
7.2482453937007874
20
-1.3231117716535432
11
7.2484251968503939
21
-1.324015748031496
0
LINE
8
BLACK
6
CONTINUOUS
10
7.2484251968503939
20
-1.324015748031496
11
7.2484251968503939
21
-1.4381889763779527
0
LINE
8
BLACK
6
CONTINUOUS
10
7.2484251968503939
20
-1.4381889763779527
11
7.2482453937007874
21
-1.4390929527559055
0
LINE
8
BLACK
6
CONTINUOUS
10
7.2482453937007874
20
-1.4390929527559055
11
7.2469669685039371
21
-1.4403713779527558
0
LINE
8
BLACK
6
CONTINUOUS
10
7.2469669685039371
20
-1.4403713779527558
11
7.2460629921259843
21
-1.4405511811023621
0
LINE
8
BLACK
6
CONTINUOUS
10
7.2460629921259843
20
-1.4405511811023621
11
7.1161417322834648
21
-1.4405511811023621
0
LINE
8
BLACK
6
CONTINUOUS
10
7.1161417322834648
20
-1.4405511811023621
11
7.115237755905512
21
-1.4403713779527558
0
LINE
8
BLACK
6
CONTINUOUS
10
7.115237755905512
20
-1.4403713779527558
11
7.1139593307086608
21
-1.4390929527559055
0
LINE
8
BLACK
6
CONTINUOUS
10
7.1139593307086608
20
-1.4390929527559055
11
7.1137795275590552
21
-1.4381889763779527
0
LINE
8
BLACK
6
CONTINUOUS
10
7.1137795275590552
20
-1.4381889763779527
11
7.1137795275590552
21
-1.324015748031496
0
LINE
8
BLACK
6
CONTINUOUS
10
7.1137795275590552
20
-1.324015748031496
11
7.1139593307086608
21
-1.3231117716535432
0
LINE
8
BLACK
6
CONTINUOUS
10
7.1139593307086608
20
-1.3231117716535432
11
7.115237755905512
21
-1.3218333464566929
0
LINE
8
BLACK
6
CONTINUOUS
10
7.115237755905512
20
-1.3218333464566929
11
7.1161417322834648
21
-1.3216535433070866
0
LINE
8
BLACK
6
CONTINUOUS
10
7.1161417322834648
20
-1.3216535433070866
11
7.2460629921259843
21
-1.3216535433070866
0
LINE
8
BLACK
6
CONTINUOUS
10
7.2460629921259843
20
-1.3216535433070866
11
7.2469669685039371
21
-1.3218333464566929
0
LINE
8
BLACK
6
CONTINUOUS
10
7.1185039370078735
20
-1.3263779527559054
11
7.1185039370078735
21
-1.4358267716535433
0
LINE
8
BLACK
6
CONTINUOUS
10
7.1185039370078735
20
-1.4358267716535433
11
7.2437007874015746
21
-1.4358267716535433
0
LINE
8
BLACK
6
CONTINUOUS
10
7.2437007874015746
20
-1.4358267716535433
11
7.2437007874015746
21
-1.3263779527559054
0
LINE
8
BLACK
6
CONTINUOUS
10
7.2437007874015746
20
-1.3263779527559054
11
7.1185039370078735
21
-1.3263779527559054
0
LINE
8
BLACK
6
CONTINUOUS
10
7.9969669685039371
20
-1.3218333464566929
11
7.9982453937007874
21
-1.3231117716535432
0
LINE
8
BLACK
6
CONTINUOUS
10
7.9982453937007874
20
-1.3231117716535432
11
7.9984251968503939
21
-1.324015748031496
0
LINE
8
BLACK
6
CONTINUOUS
10
7.9984251968503939
20
-1.324015748031496
11
7.9984251968503939
21
-1.4381889763779527
0
LINE
8
BLACK
6
CONTINUOUS
10
7.9984251968503939
20
-1.4381889763779527
11
7.9982453937007874
21
-1.4390929527559055
0
LINE
8
BLACK
6
CONTINUOUS
10
7.9982453937007874
20
-1.4390929527559055
11
7.9969669685039371
21
-1.4403713779527558
0
LINE
8
BLACK
6
CONTINUOUS
10
7.9969669685039371
20
-1.4403713779527558
11
7.9960629921259843
21
-1.4405511811023621
0
LINE
8
BLACK
6
CONTINUOUS
10
7.9960629921259843
20
-1.4405511811023621
11
7.8661417322834648
21
-1.4405511811023621
0
LINE
8
BLACK
6
CONTINUOUS
10
7.8661417322834648
20
-1.4405511811023621
11
7.865237755905512
21
-1.4403713779527558
0
LINE
8
BLACK
6
CONTINUOUS
10
7.865237755905512
20
-1.4403713779527558
11
7.8639593307086608
21
-1.4390929527559055
0
LINE
8
BLACK
6
CONTINUOUS
10
7.8639593307086608
20
-1.4390929527559055
11
7.8637795275590552
21
-1.4381889763779527
0
LINE
8
BLACK
6
CONTINUOUS
10
7.8637795275590552
20
-1.4381889763779527
11
7.8637795275590552
21
-1.324015748031496
0
LINE
8
BLACK
6
CONTINUOUS
10
7.8637795275590552
20
-1.324015748031496
11
7.8639593307086608
21
-1.3231117716535432
0
LINE
8
BLACK
6
CONTINUOUS
10
7.8639593307086608
20
-1.3231117716535432
11
7.865237755905512
21
-1.3218333464566929
0
LINE
8
BLACK
6
CONTINUOUS
10
7.865237755905512
20
-1.3218333464566929
11
7.8661417322834648
21
-1.3216535433070866
0
LINE
8
BLACK
6
CONTINUOUS
10
7.8661417322834648
20
-1.3216535433070866
11
7.9960629921259843
21
-1.3216535433070866
0
LINE
8
BLACK
6
CONTINUOUS
10
7.9960629921259843
20
-1.3216535433070866
11
7.9969669685039371
21
-1.3218333464566929
0
LINE
8
BLACK
6
CONTINUOUS
10
7.8685039370078735
20
-1.3263779527559054
11
7.8685039370078735
21
-1.4358267716535433
0
LINE
8
BLACK
6
CONTINUOUS
10
7.8685039370078735
20
-1.4358267716535433
11
7.9937007874015746
21
-1.4358267716535433
0
LINE
8
BLACK
6
CONTINUOUS
10
7.9937007874015746
20
-1.4358267716535433
11
7.9937007874015746
21
-1.3263779527559054
0
LINE
8
BLACK
6
CONTINUOUS
10
7.9937007874015746
20
-1.3263779527559054
11
7.8685039370078735
21
-1.3263779527559054
0
LINE
8
BLACK
6
CONTINUOUS
10
4.7436023622047241
20
-0.8041338582677166
11
4.7481559842519685
21
-0.8047333464566929
0
LINE
8
BLACK
6
CONTINUOUS
10
4.7481559842519685
20
-0.8047333464566929
11
4.7523992913385822
21
-0.806490905511811
0
LINE
8
BLACK
6
CONTINUOUS
10
4.7523992913385822
20
-0.806490905511811
11
4.7560431496062989
21
-0.8092867716535432
0
LINE
8
BLACK
6
CONTINUOUS
10
4.7560431496062989
20
-0.8092867716535432
11
4.7588392519685039
21
-0.8129304724409449
0
LINE
8
BLACK
6
CONTINUOUS
10
4.7588392519685039
20
-0.8129304724409449
11
4.7605970866141734
21
-0.8171736614173228
0
LINE
8
BLACK
6
CONTINUOUS
10
4.7605970866141734
20
-0.8171736614173228
11
4.7611968503937003
21
-0.8217272440944882
0
LINE
8
BLACK
6
CONTINUOUS
10
4.7611968503937003
20
-0.8217272440944882
11
4.7611958661417324
21
-0.8217272440944882
0
LINE
8
BLACK
6
CONTINUOUS
10
4.7611958661417324
20
-0.8217272440944882
11
4.7611948818897636
21
-0.8217302362204725
0
LINE
8
BLACK
6
CONTINUOUS
10
4.7611948818897636
20
-0.8217302362204725
11
4.7611951574803149
21
-0.8235249212598424
0
LINE
8
BLACK
6
CONTINUOUS
10
4.7611951574803149
20
-0.8235249212598424
11
4.7621263385826769
21
-0.8269981496062992
0
LINE
8
BLACK
6
CONTINUOUS
10
4.7621263385826769
20
-0.8269981496062992
11
4.7639245275590554
21
-0.830112125984252
0
LINE
8
BLACK
6
CONTINUOUS
10
4.7639245275590554
20
-0.830112125984252
11
4.7664672834645669
21
-0.8326547244094488
0
LINE
8
BLACK
6
CONTINUOUS
10
4.7664672834645669
20
-0.8326547244094488
11
4.7695813779527558
21
-0.8344527559055118
0
LINE
8
BLACK
6
CONTINUOUS
10
4.7695813779527558
20
-0.8344527559055118
11
4.7730546850393702
21
-0.8353837007874015
0
LINE
8
BLACK
6
CONTINUOUS
10
4.7730546850393702
20
-0.8353837007874015
11
4.7748525984251966
21
-0.8353838582677166
0
LINE
8
BLACK
6
CONTINUOUS
10
4.7748525984251966
20
-0.8353838582677166
11
7.3686023622047241
21
-0.8353838582677166
0
LINE
8
BLACK
6
CONTINUOUS
10
7.3686023622047241
20
-0.8353838582677166
11
7.3777772834645665
21
-0.8360400393700788
0
LINE
8
BLACK
6
CONTINUOUS
10
7.3777772834645665
20
-0.8360400393700788
11
7.3867654330708659
21
-0.8379952755905512
0
LINE
8
BLACK
6
CONTINUOUS
10
7.3867654330708659
20
-0.8379952755905512
11
7.3953838582677163
21
-0.8412096850393701
0
LINE
8
BLACK
6
CONTINUOUS
10
7.3953838582677163
20
-0.8412096850393701
11
7.4034571259842519
21
-0.8456179133858267
0
LINE
8
BLACK
6
CONTINUOUS
10
7.4034571259842519
20
-0.8456179133858267
11
7.4108208267716531
21
-0.8511301968503937
0
LINE
8
BLACK
6
CONTINUOUS
10
7.4108208267716531
20
-0.8511301968503937
11
7.417325157480315
21
-0.8576343307086614
0
LINE
8
BLACK
6
CONTINUOUS
10
7.417325157480315
20
-0.8576343307086614
11
7.4228376771653544
21
-0.864997874015748
0
LINE
8
BLACK
6
CONTINUOUS
10
7.4228376771653544
20
-0.864997874015748
11
7.427246141732283
21
-0.8730709842519685
0
LINE
8
BLACK
6
CONTINUOUS
10
7.427246141732283
20
-0.8730709842519685
11
7.4304608661417317
21
-0.8816892913385826
0
LINE
8
BLACK
6
CONTINUOUS
10
7.4304608661417317
20
-0.8816892913385826
11
7.4324163385826774
21
-0.8906774015748031
0
LINE
8
BLACK
6
CONTINUOUS
10
7.4324163385826774
20
-0.8906774015748031
11
7.4330728346456691
21
-0.8998522834645669
0
LINE
8
BLACK
6
CONTINUOUS
10
7.4330728346456691
20
-0.8998522834645669
11
7.4330708661417324
21
-0.8998522834645669
0
LINE
8
BLACK
6
CONTINUOUS
10
7.4330708661417324
20
-0.8998522834645669
11
7.4330708267716536
21
-0.8998523228346457
0
LINE
8
BLACK
6
CONTINUOUS
10
7.4330708267716536
20
-0.8998523228346457
11
7.4330708661417324
21
-0.8998523622047244
0
LINE
8
BLACK
6
CONTINUOUS
10
7.4330708661417324
20
-0.8998523622047244
11
7.4330708661417324
21
-0.9065229527559054
0
LINE
8
BLACK
6
CONTINUOUS
10
7.4330708661417324
20
-0.9065229527559054
11
7.4345133070866138
21
-0.9197858661417323
0
LINE
8
BLACK
6
CONTINUOUS
10
7.4345133070866138
20
-0.9197858661417323
11
7.4373812598425193
21
-0.9328151181102362
0
LINE
8
BLACK
6
CONTINUOUS
10
7.4373812598425193
20
-0.9328151181102362
11
7.4416411023622047
21
-0.9454579133858267
0
LINE
8
BLACK
6
CONTINUOUS
10
7.4416411023622047
20
-0.9454579133858267
11
7.4472429133858267
21
-0.9575659842519685
0
LINE
8
BLACK
6
CONTINUOUS
10
7.4472429133858267
20
-0.9575659842519685
11
7.4541209842519685
21
-0.9689974409448818
0
LINE
8
BLACK
6
CONTINUOUS
10
7.4541209842519685
20
-0.9689974409448818
11
7.4621946850393703
21
-0.9796182677165354
0
LINE
8
BLACK
6
CONTINUOUS
10
7.4621946850393703
20
-0.9796182677165354
11
7.471369409448819
21
-0.9893038582677165
0
LINE
8
BLACK
6
CONTINUOUS
10
7.471369409448819
20
-0.9893038582677165
11
7.4815375196850393
21
-0.997940748031496
0
LINE
8
BLACK
6
CONTINUOUS
10
7.4815375196850393
20
-0.997940748031496
11
7.4925798425196852
21
-1.0054276377952756
0
LINE
8
BLACK
6
CONTINUOUS
10
7.4925798425196852
20
-1.0054276377952756
11
7.5043668897637792
21
-1.0116767322834646
0
LINE
8
BLACK
6
CONTINUOUS
10
7.5043668897637792
20
-1.0116767322834646
11
7.5167605118110234
21
-1.0166148031496063
0
LINE
8
BLACK
6
CONTINUOUS
10
7.5167605118110234
20
-1.0166148031496063
11
7.5296153937007873
21
-1.020183937007874
0
LINE
8
BLACK
6
CONTINUOUS
10
7.5296153937007873
20
-1.020183937007874
11
7.5427807874015746
21
-1.022342283464567
0
LINE
8
BLACK
6
CONTINUOUS
10
7.5427807874015746
20
-1.022342283464567
11
7.5561023622047241
21
-1.0230645669291338
0
LINE
8
BLACK
6
CONTINUOUS
10
7.5561023622047241
20
-1.0230645669291338
11
7.5694239370078735
21
-1.022342283464567
0
LINE
8
BLACK
6
CONTINUOUS
10
7.5694239370078735
20
-1.022342283464567
11
7.5825893307086609
21
-1.020183937007874
0
LINE
8
BLACK
6
CONTINUOUS
10
7.5825893307086609
20
-1.020183937007874
11
7.5954442125984247
21
-1.0166148031496063
0
LINE
8
BLACK
6
CONTINUOUS
10
7.5954442125984247
20
-1.0166148031496063
11
7.607837834645669
21
-1.0116767322834646
0
LINE
8
BLACK
6
CONTINUOUS
10
7.607837834645669
20
-1.0116767322834646
11
7.6196248818897638
21
-1.0054276377952756
0
LINE
8
BLACK
6
CONTINUOUS
10
7.6196248818897638
20
-1.0054276377952756
11
7.6306672047244088
21
-0.997940748031496
0
LINE
8
BLACK
6
CONTINUOUS
10
7.6306672047244088
20
-0.997940748031496
11
7.6408353149606301
21
-0.9893038582677165
0
LINE
8
BLACK
6
CONTINUOUS
10
7.6408353149606301
20
-0.9893038582677165
11
7.6500100393700787
21
-0.9796182677165354
0
LINE
8
BLACK
6
CONTINUOUS
10
7.6500100393700787
20
-0.9796182677165354
11
7.6580837401574797
21
-0.9689974409448818
0
LINE
8
BLACK
6
CONTINUOUS
10
7.6580837401574797
20
-0.9689974409448818
11
7.6649618110236215
21
-0.9575659842519685
0
LINE
8
BLACK
6
CONTINUOUS
10
7.6649618110236215
20
-0.9575659842519685
11
7.6705636220472435
21
-0.9454579133858267
0
LINE
8
BLACK
6
CONTINUOUS
10
7.6705636220472435
20
-0.9454579133858267
11
7.6748234645669289
21
-0.9328151181102362
0
LINE
8
BLACK
6
CONTINUOUS
10
7.6748234645669289
20
-0.9328151181102362
11
7.6776914173228343
21
-0.9197858661417323
0
LINE
8
BLACK
6
CONTINUOUS
10
7.6776914173228343
20
-0.9197858661417323
11
7.6791338582677167
21
-0.9065229527559054
0
LINE
8
BLACK
6
CONTINUOUS
10
7.6791338582677167
20
-0.9065229527559054
11
7.6791338582677167
21
-0.8998523622047244
0
LINE
8
BLACK
6
CONTINUOUS
10
7.6791338582677167
20
-0.8998523622047244
11
7.6791338582677167
21
-0.8998523228346457
0
LINE
8
BLACK
6
CONTINUOUS
10
7.6791338582677167
20
-0.8998523228346457
11
7.6791338582677167
21
-0.8998522834645669
0
LINE
8
BLACK
6
CONTINUOUS
10
7.6791338582677167
20
-0.8998522834645669
11
7.6797903149606297
21
-0.8906774803149606
0
LINE
8
BLACK
6
CONTINUOUS
10
7.6797903149606297
20
-0.8906774803149606
11
7.6817457086614169
21
-0.8816894488188977
0
LINE
8
BLACK
6
CONTINUOUS
10
7.6817457086614169
20
-0.8816894488188977
11
7.6849602755905506
21
-0.8730711811023621
0
LINE
8
BLACK
6
CONTINUOUS
10
7.6849602755905506
20
-0.8730711811023621
11
7.6893685433070864
21
-0.8649980708661417
0
LINE
8
BLACK
6
CONTINUOUS
10
7.6893685433070864
20
-0.8649980708661417
11
7.6948807874015746
21
-0.8576344094488189
0
LINE
8
BLACK
6
CONTINUOUS
10
7.6948807874015746
20
-0.8576344094488189
11
7.7013848425196851
21
-0.851130157480315
0
LINE
8
BLACK
6
CONTINUOUS
10
7.7013848425196851
20
-0.851130157480315
11
7.7087483070866138
21
-0.8456176771653543
0
LINE
8
BLACK
6
CONTINUOUS
10
7.7087483070866138
20
-0.8456176771653543
11
7.7168212992125982
21
-0.8412091338582677
0
LINE
8
BLACK
6
CONTINUOUS
10
7.7168212992125982
20
-0.8412091338582677
11
7.7254394881889761
21
-0.8379942913385826
0
LINE
8
BLACK
6
CONTINUOUS
10
7.7254394881889761
20
-0.8379942913385826
11
7.7344274409448817
21
-0.8360386220472441
0
LINE
8
BLACK
6
CONTINUOUS
10
7.7344274409448817
20
-0.8360386220472441
11
7.7436022440944878
21
-0.8353818897637795
0
LINE
8
BLACK
6
CONTINUOUS
10
7.7436022440944878
20
-0.8353818897637795
11
7.7436022440944878
21
-0.8353838582677166
0
LINE
8
BLACK
6
CONTINUOUS
10
7.7436022440944878
20
-0.8353838582677166
11
7.7436022834645666
21
-0.8353838582677166
0
LINE
8
BLACK
6
CONTINUOUS
10
7.7436022834645666
20
-0.8353838582677166
11
7.7436023622047241
21
-0.8353838582677166
0
LINE
8
BLACK
6
CONTINUOUS
10
7.7436023622047241
20
-0.8353838582677166
11
8.2123523622047241
21
-0.8353838582677166
0
LINE
8
BLACK
6
CONTINUOUS
10
8.2123523622047241
20
-0.8353838582677166
11
8.2123524015748028
21
-0.8353838582677166
0
LINE
8
BLACK
6
CONTINUOUS
10
8.2123524015748028
20
-0.8353838582677166
11
8.2123524409448816
21
-0.8353838582677166
0
LINE
8
BLACK
6
CONTINUOUS
10
8.2123524409448816
20
-0.8353838582677166
11
8.2215271259842524
21
-0.8360403149606299
0
LINE
8
BLACK
6
CONTINUOUS
10
8.2215271259842524
20
-0.8360403149606299
11
8.230515078740158
21
-0.837995748031496
0
LINE
8
BLACK
6
CONTINUOUS
10
8.230515078740158
20
-0.837995748031496
11
8.2391332283464571
21
-0.8412103149606299
0
LINE
8
BLACK
6
CONTINUOUS
10
8.2391332283464571
20
-0.8412103149606299
11
8.2472062204724406
21
-0.845618622047244
0
LINE
8
BLACK
6
CONTINUOUS
10
8.2472062204724406
20
-0.845618622047244
11
8.254569724409448
21
-0.851130905511811
0
LINE
8
BLACK
6
CONTINUOUS
10
8.254569724409448
20
-0.851130905511811
11
8.2610738188976374
21
-0.8576349999999999
0
LINE
8
BLACK
6
CONTINUOUS
10
8.2610738188976374
20
-0.8576349999999999
11
8.2665861023622043
21
-0.8649985039370078
0
LINE
8
BLACK
6
CONTINUOUS
10
8.2665861023622043
20
-0.8649985039370078
11
8.2709944094488179
21
-0.8730714960629921
0
LINE
8
BLACK
6
CONTINUOUS
10
8.2709944094488179
20
-0.8730714960629921
11
8.2742089763779525
21
-0.8816896456692913
0
LINE
8
BLACK
6
CONTINUOUS
10
8.2742089763779525
20
-0.8816896456692913
11
8.2761644094488194
21
-0.8906775984251968
0
LINE
8
BLACK
6
CONTINUOUS
10
8.2761644094488194
20
-0.8906775984251968
11
8.2768208661417315
21
-0.8998522834645669
0
LINE
8
BLACK
6
CONTINUOUS
10
8.2768208661417315
20
-0.8998522834645669
11
8.2768208661417315
21
-0.8998523622047244
0
LINE
8
BLACK
6
CONTINUOUS
10
8.2768208661417315
20
-0.8998523622047244
11
8.2768208661417315
21
-3.7123523622047245
0
LINE
8
BLACK
6
CONTINUOUS
10
8.2768208661417315
20
-3.7123523622047245
11
8.2768208267716528
21
-3.7123524803149603
0
LINE
8
BLACK
6
CONTINUOUS
10
8.2768208267716528
20
-3.7123524803149603
11
8.2768208661417315
21
-3.7123525590551179
0
LINE
8
BLACK
6
CONTINUOUS
10
8.2768208661417315
20
-3.7123525590551179
11
8.2761638976377956
21
-3.7215270472440944
0
LINE
8
BLACK
6
CONTINUOUS
10
8.2761638976377956
20
-3.7215270472440944
11
8.2742081102362199
21
-3.7305147244094488
0
LINE
8
BLACK
6
CONTINUOUS
10
8.2742081102362199
20
-3.7305147244094488
11
8.2709933070866146
21
-3.7391325984251966
0
LINE
8
BLACK
6
CONTINUOUS
10
8.2709933070866146
20
-3.7391325984251966
11
8.2665848818897629
21
-3.7472053543307084
0
LINE
8
BLACK
6
CONTINUOUS
10
8.2665848818897629
20
-3.7472053543307084
11
8.261072598425196
21
-3.7545686220472438
0
LINE
8
BLACK
6
CONTINUOUS
10
8.261072598425196
20
-3.7545686220472438
11
8.2545686220472447
21
-3.7610725984251969
0
LINE
8
BLACK
6
CONTINUOUS
10
8.2545686220472447
20
-3.7610725984251969
11
8.247205354330708
21
-3.7665848818897638
0
LINE
8
BLACK
6
CONTINUOUS
10
8.247205354330708
20
-3.7665848818897638
11
8.2391325984251971
21
-3.7709933070866142
0
LINE
8
BLACK
6
CONTINUOUS
10
8.2391325984251971
20
-3.7709933070866142
11
8.2305147244094492
21
-3.7742081102362204
0
LINE
8
BLACK
6
CONTINUOUS
10
8.2305147244094492
20
-3.7742081102362204
11
8.2215270472440949
21
-3.7761638976377951
0
LINE
8
BLACK
6
CONTINUOUS
10
8.2215270472440949
20
-3.7761638976377951
11
8.2123525590551179
21
-3.7768208661417324
0
LINE
8
BLACK
6
CONTINUOUS
10
8.2123525590551179
20
-3.7768208661417324
11
8.2123524803149603
21
-3.7768208267716536
0
LINE
8
BLACK
6
CONTINUOUS
10
8.2123524803149603
20
-3.7768208267716536
11
8.2123523622047241
21
-3.7768208661417324
0
LINE
8
BLACK
6
CONTINUOUS
10
8.2123523622047241
20
-3.7768208661417324
11
7.7436023622047241
21
-3.7768208661417324
0
LINE
8
BLACK
6
CONTINUOUS
10
7.7436023622047241
20
-3.7768208661417324
11
7.7344274409448817
21
-3.7761646850393702
0
LINE
8
BLACK
6
CONTINUOUS
10
7.7344274409448817
20
-3.7761646850393702
11
7.7254392913385823
21
-3.7742094488188975
0
LINE
8
BLACK
6
CONTINUOUS
10
7.7254392913385823
20
-3.7742094488188975
11
7.7168208661417319
21
-3.7709950393700788
0
LINE
8
BLACK
6
CONTINUOUS
10
7.7168208661417319
20
-3.7709950393700788
11
7.7087475984251963
21
-3.7665868110236218
0
LINE
8
BLACK
6
CONTINUOUS
10
7.7087475984251963
20
-3.7665868110236218
11
7.7013838976377951
21
-3.7610745275590549
0
LINE
8
BLACK
6
CONTINUOUS
10
7.7013838976377951
20
-3.7610745275590549
11
7.6948795669291341
21
-3.7545703937007873
0
LINE
8
BLACK
6
CONTINUOUS
10
7.6948795669291341
20
-3.7545703937007873
11
7.6893670472440947
21
-3.7472068503937006
0
LINE
8
BLACK
6
CONTINUOUS
10
7.6893670472440947
20
-3.7472068503937006
11
7.6849585826771651
21
-3.73913374015748
0
LINE
8
BLACK
6
CONTINUOUS
10
7.6849585826771651
20
-3.73913374015748
11
7.6817438582677164
21
-3.7305154330708659
0
LINE
8
BLACK
6
CONTINUOUS
10
7.6817438582677164
20
-3.7305154330708659
11
7.6797883858267717
21
-3.7215273228346457
0
LINE
8
BLACK
6
CONTINUOUS
10
7.6797883858267717
20
-3.7215273228346457
11
7.679131889763779
21
-3.7123524409448816
0
LINE
8
BLACK
6
CONTINUOUS
10
7.679131889763779
20
-3.7123524409448816
11
7.6791338582677167
21
-3.7123524409448816
0
LINE
8
BLACK
6
CONTINUOUS
10
7.6791338582677167
20
-3.7123524409448816
11
7.6791338582677167
21
-3.7123523622047245
0
LINE
8
BLACK
6
CONTINUOUS
10
7.6791338582677167
20
-3.7123523622047245
11
7.6791338582677167
21
-3.7056817716535431
0
LINE
8
BLACK
6
CONTINUOUS
10
7.6791338582677167
20
-3.7056817716535431
11
7.6776914173228343
21
-3.6924188582677164
0
LINE
8
BLACK
6
CONTINUOUS
10
7.6776914173228343
20
-3.6924188582677164
11
7.6748234645669289
21
-3.6793896062992126
0
LINE
8
BLACK
6
CONTINUOUS
10
7.6748234645669289
20
-3.6793896062992126
11
7.6705636220472435
21
-3.6667468110236219
0
LINE
8
BLACK
6
CONTINUOUS
10
7.6705636220472435
20
-3.6667468110236219
11
7.6649618110236215
21
-3.65463874015748
0
LINE
8
BLACK
6
CONTINUOUS
10
7.6649618110236215
20
-3.65463874015748
11
7.6580837401574797
21
-3.6432072834645668
0
LINE
8
BLACK
6
CONTINUOUS
10
7.6580837401574797
20
-3.6432072834645668
11
7.6500100393700787
21
-3.6325864566929131
0
LINE
8
BLACK
6
CONTINUOUS
10
7.6500100393700787
20
-3.6325864566929131
11
7.6408353149606301
21
-3.6229008661417321
0
LINE
8
BLACK
6
CONTINUOUS
10
7.6408353149606301
20
-3.6229008661417321
11
7.6306672047244088
21
-3.6142639763779525
0
LINE
8
BLACK
6
CONTINUOUS
10
7.6306672047244088
20
-3.6142639763779525
11
7.6196248818897638
21
-3.6067770866141733
0
LINE
8
BLACK
6
CONTINUOUS
10
7.6196248818897638
20
-3.6067770866141733
11
7.607837834645669
21
-3.6005279921259841
0
LINE
8
BLACK
6
CONTINUOUS
10
7.607837834645669
20
-3.6005279921259841
11
7.5954442125984247
21
-3.5955899212598426
0
LINE
8
BLACK
6
CONTINUOUS
10
7.5954442125984247
20
-3.5955899212598426
11
7.5825893307086609
21
-3.5920207874015748
0
LINE
8
BLACK
6
CONTINUOUS
10
7.5825893307086609
20
-3.5920207874015748
11
7.5694239370078735
21
-3.5898624409448816
0
LINE
8
BLACK
6
CONTINUOUS
10
7.5694239370078735
20
-3.5898624409448816
11
7.5561023622047241
21
-3.589140157480315
0
LINE
8
BLACK
6
CONTINUOUS
10
7.5561023622047241
20
-3.589140157480315
11
7.5427807874015746
21
-3.5898624409448816
0
LINE
8
BLACK
6
CONTINUOUS
10
7.5427807874015746
20
-3.5898624409448816
11
7.5296153937007873
21
-3.5920207874015748
0
LINE
8
BLACK
6
CONTINUOUS
10
7.5296153937007873
20
-3.5920207874015748
11
7.5167605118110234
21
-3.5955899212598426
0
LINE
8
BLACK
6
CONTINUOUS
10
7.5167605118110234
20
-3.5955899212598426
11
7.5043668897637792
21
-3.6005279921259841
0
LINE
8
BLACK
6
CONTINUOUS
10
7.5043668897637792
20
-3.6005279921259841
11
7.4925798425196852
21
-3.6067770866141733
0
LINE
8
BLACK
6
CONTINUOUS
10
7.4925798425196852
20
-3.6067770866141733
11
7.4815375196850393
21
-3.6142639763779525
0
LINE
8
BLACK
6
CONTINUOUS
10
7.4815375196850393
20
-3.6142639763779525
11
7.471369409448819
21
-3.6229008661417321
0
LINE
8
BLACK
6
CONTINUOUS
10
7.471369409448819
20
-3.6229008661417321
11
7.4621946850393703
21
-3.6325864566929131
0
LINE
8
BLACK
6
CONTINUOUS
10
7.4621946850393703
20
-3.6325864566929131
11
7.4541209842519685
21
-3.6432072834645668
0
LINE
8
BLACK
6
CONTINUOUS
10
7.4541209842519685
20
-3.6432072834645668
11
7.4472429133858267
21
-3.65463874015748
0
LINE
8
BLACK
6
CONTINUOUS
10
7.4472429133858267
20
-3.65463874015748
11
7.4416411023622047
21
-3.6667468110236219
0
LINE
8
BLACK
6
CONTINUOUS
10
7.4416411023622047
20
-3.6667468110236219
11
7.4373812598425193
21
-3.6793896062992126
0
LINE
8
BLACK
6
CONTINUOUS
10
7.4373812598425193
20
-3.6793896062992126
11
7.4345133070866138
21
-3.6924188582677164
0
LINE
8
BLACK
6
CONTINUOUS
10
7.4345133070866138
20
-3.6924188582677164
11
7.4330708661417324
21
-3.7056817716535431
0
LINE
8
BLACK
6
CONTINUOUS
10
7.4330708661417324
20
-3.7056817716535431
11
7.4330708661417324
21
-3.7123523622047245
0
LINE
8
BLACK
6
CONTINUOUS
10
7.4330708661417324
20
-3.7123523622047245
11
7.4330708267716536
21
-3.7123523622047245
0
LINE
8
BLACK
6
CONTINUOUS
10
7.4330708267716536
20
-3.7123523622047245
11
7.4330708661417324
21
-3.7123524409448816
0
LINE
8
BLACK
6
CONTINUOUS
10
7.4330708661417324
20
-3.7123524409448816
11
7.4324144094488185
21
-3.7215272440944882
0
LINE
8
BLACK
6
CONTINUOUS
10
7.4324144094488185
20
-3.7215272440944882
11
7.4304590157480312
21
-3.7305152755905513
0
LINE
8
BLACK
6
CONTINUOUS
10
7.4304590157480312
20
-3.7305152755905513
11
7.4272444488188976
21
-3.7391335433070867
0
LINE
8
BLACK
6
CONTINUOUS
10
7.4272444488188976
20
-3.7391335433070867
11
7.4228361811023618
21
-3.7472066535433068
0
LINE
8
BLACK
6
CONTINUOUS
10
7.4228361811023618
20
-3.7472066535433068
11
7.4173239370078736
21
-3.7545703149606298
0
LINE
8
BLACK
6
CONTINUOUS
10
7.4173239370078736
20
-3.7545703149606298
11
7.4108198818897639
21
-3.7610745669291337
0
LINE
8
BLACK
6
CONTINUOUS
10
7.4108198818897639
20
-3.7610745669291337
11
7.4034564173228343
21
-3.7665870472440943
0
LINE
8
BLACK
6
CONTINUOUS
10
7.4034564173228343
20
-3.7665870472440943
11
7.39538342519685
21
-3.7709955905511809
0
LINE
8
BLACK
6
CONTINUOUS
10
7.39538342519685
20
-3.7709955905511809
11
7.3867652362204721
21
-3.7742104330708659
0
LINE
8
BLACK
6
CONTINUOUS
10
7.3867652362204721
20
-3.7742104330708659
11
7.3777772834645665
21
-3.7761661023622048
0
LINE
8
BLACK
6
CONTINUOUS
10
7.3777772834645665
20
-3.7761661023622048
11
7.3686024803149603
21
-3.7768228346456691
0
LINE
8
BLACK
6
CONTINUOUS
10
7.3686024803149603
20
-3.7768228346456691
11
7.3686024803149603
21
-3.7768208661417324
0
LINE
8
BLACK
6
CONTINUOUS
10
7.3686024803149603
20
-3.7768208661417324
11
7.3686024015748028
21
-3.7768208267716536
0
LINE
8
BLACK
6
CONTINUOUS
10
7.3686024015748028
20
-3.7768208267716536
11
7.3686023622047241
21
-3.7768208661417324
0
LINE
8
BLACK
6
CONTINUOUS
10
7.3686023622047241
20
-3.7768208661417324
11
1.7436023622047243
21
-3.7768208661417324
0
LINE
8
BLACK
6
CONTINUOUS
10
1.7436023622047243
20
-3.7768208661417324
11
1.7344276377952756
21
-3.7761646456692914
0
LINE
8
BLACK
6
CONTINUOUS
10
1.7344276377952756
20
-3.7761646456692914
11
1.7254396850393701
21
-3.7742094094488188
0
LINE
8
BLACK
6
CONTINUOUS
10
1.7254396850393701
20
-3.7742094094488188
11
1.7168214960629922
21
-3.7709949212598426
0
LINE
8
BLACK
6
CONTINUOUS
10
1.7168214960629922
20
-3.7709949212598426
11
1.7087485039370078
21
-3.766586614173228
0
LINE
8
BLACK
6
CONTINUOUS
10
1.7087485039370078
20
-3.766586614173228
11
1.7013850787401574
21
-3.7610742913385824
0
LINE
8
BLACK
6
CONTINUOUS
10
1.7013850787401574
20
-3.7610742913385824
11
1.694881062992126
21
-3.7545700787401572
0
LINE
8
BLACK
6
CONTINUOUS
10
1.694881062992126
20
-3.7545700787401572
11
1.6893689763779527
21
-3.7472064960629918
0
LINE
8
BLACK
6
CONTINUOUS
10
1.6893689763779527
20
-3.7472064960629918
11
1.6849609448818896
21
-3.7391333464566929
0
LINE
8
BLACK
6
CONTINUOUS
10
1.6849609448818896
20
-3.7391333464566929
11
1.6817466929133857
21
-3.7305150393700788
0
LINE
8
BLACK
6
CONTINUOUS
10
1.6817466929133857
20
-3.7305150393700788
11
1.6797917322834646
21
-3.7215270472440944
0
LINE
8
BLACK
6
CONTINUOUS
10
1.6797917322834646
20
-3.7215270472440944
11
1.6791363779527559
21
-3.7123601181102361
0
LINE
8
BLACK
6
CONTINUOUS
10
1.6791363779527559
20
-3.7123601181102361
11
1.6791338582677164
21
-3.7123523622047245
0
LINE
8
BLACK
6
CONTINUOUS
10
1.6791338582677164
20
-3.7123523622047245
11
1.6791338582677164
21
-3.7056817716535431
0
LINE
8
BLACK
6
CONTINUOUS
10
1.6791338582677164
20
-3.7056817716535431
11
1.6776914173228346
21
-3.6924188582677164
0
LINE
8
BLACK
6
CONTINUOUS
10
1.6776914173228346
20
-3.6924188582677164
11
1.6748234645669291
21
-3.6793896062992126
0
LINE
8
BLACK
6
CONTINUOUS
10
1.6748234645669291
20
-3.6793896062992126
11
1.670563622047244
21
-3.6667468110236219
0
LINE
8
BLACK
6
CONTINUOUS
10
1.670563622047244
20
-3.6667468110236219
11
1.664961811023622
21
-3.65463874015748
0
LINE
8
BLACK
6
CONTINUOUS
10
1.664961811023622
20
-3.65463874015748
11
1.6580837401574802
21
-3.6432072834645668
0
LINE
8
BLACK
6
CONTINUOUS
10
1.6580837401574802
20
-3.6432072834645668
11
1.6500100393700787
21
-3.6325864566929131
0
LINE
8
BLACK
6
CONTINUOUS
10
1.6500100393700787
20
-3.6325864566929131
11
1.6408353149606298
21
-3.6229008661417321
0
LINE
8
BLACK
6
CONTINUOUS
10
1.6408353149606298
20
-3.6229008661417321
11
1.6306672047244095
21
-3.6142639763779525
0
LINE
8
BLACK
6
CONTINUOUS
10
1.6306672047244095
20
-3.6142639763779525
11
1.6196248818897638
21
-3.6067770866141733
0
LINE
8
BLACK
6
CONTINUOUS
10
1.6196248818897638
20
-3.6067770866141733
11
1.6078378346456692
21
-3.6005279921259841
0
LINE
8
BLACK
6
CONTINUOUS
10
1.6078378346456692
20
-3.6005279921259841
11
1.5954442125984252
21
-3.5955899212598426
0
LINE
8
BLACK
6
CONTINUOUS
10
1.5954442125984252
20
-3.5955899212598426
11
1.5825893307086614
21
-3.5920207874015748
0
LINE
8
BLACK
6
CONTINUOUS
10
1.5825893307086614
20
-3.5920207874015748
11
1.569423937007874
21
-3.5898624409448816
0
LINE
8
BLACK
6
CONTINUOUS
10
1.569423937007874
20
-3.5898624409448816
11
1.5561023622047243
21
-3.589140157480315
0
LINE
8
BLACK
6
CONTINUOUS
10
1.5561023622047243
20
-3.589140157480315
11
1.5427807874015749
21
-3.5898624409448816
0
LINE
8
BLACK
6
CONTINUOUS
10
1.5427807874015749
20
-3.5898624409448816
11
1.5296153937007875
21
-3.5920207874015748
0
LINE
8
BLACK
6
CONTINUOUS
10
1.5296153937007875
20
-3.5920207874015748
11
1.5167605118110237
21
-3.5955899212598426
0
LINE
8
BLACK
6
CONTINUOUS
10
1.5167605118110237
20
-3.5955899212598426
11
1.5043668897637794
21
-3.6005279921259841
0
LINE
8
BLACK
6
CONTINUOUS
10
1.5043668897637794
20
-3.6005279921259841
11
1.492579842519685
21
-3.6067770866141733
0
LINE
8
BLACK
6
CONTINUOUS
10
1.492579842519685
20
-3.6067770866141733
11
1.4815375196850393
21
-3.6142639763779525
0
LINE
8
BLACK
6
CONTINUOUS
10
1.4815375196850393
20
-3.6142639763779525
11
1.4713694094488188
21
-3.6229008661417321
0
LINE
8
BLACK
6
CONTINUOUS
10
1.4713694094488188
20
-3.6229008661417321
11
1.4621946850393701
21
-3.6325864566929131
0
LINE
8
BLACK
6
CONTINUOUS
10
1.4621946850393701
20
-3.6325864566929131
11
1.4541209842519685
21
-3.6432072834645668
0
LINE
8
BLACK
6
CONTINUOUS
10
1.4541209842519685
20
-3.6432072834645668
11
1.4472429133858267
21
-3.65463874015748
0
LINE
8
BLACK
6
CONTINUOUS
10
1.4472429133858267
20
-3.65463874015748
11
1.4416411023622047
21
-3.6667468110236219
0
LINE
8
BLACK
6
CONTINUOUS
10
1.4416411023622047
20
-3.6667468110236219
11
1.4373812598425197
21
-3.6793896062992126
0
LINE
8
BLACK
6
CONTINUOUS
10
1.4373812598425197
20
-3.6793896062992126
11
1.4345133070866141
21
-3.6924188582677164
0
LINE
8
BLACK
6
CONTINUOUS
10
1.4345133070866141
20
-3.6924188582677164
11
1.4330708661417322
21
-3.7056817716535431
0
LINE
8
BLACK
6
CONTINUOUS
10
1.4330708661417322
20
-3.7056817716535431
11
1.4330708661417322
21
-3.7123523622047245
0
LINE
8
BLACK
6
CONTINUOUS
10
1.4330708661417322
20
-3.7123523622047245
11
1.43241468503937
21
-3.7215272047244095
0
LINE
8
BLACK
6
CONTINUOUS
10
1.43241468503937
20
-3.7215272047244095
11
1.4304594488188975
21
-3.7305152362204725
0
LINE
8
BLACK
6
CONTINUOUS
10
1.4304594488188975
20
-3.7305152362204725
11
1.4272449606299211
21
-3.7391335433070867
0
LINE
8
BLACK
6
CONTINUOUS
10
1.4272449606299211
20
-3.7391335433070867
11
1.4228367322834645
21
-3.7472066535433068
0
LINE
8
BLACK
6
CONTINUOUS
10
1.4228367322834645
20
-3.7472066535433068
11
1.4173244094488189
21
-3.7545702362204723
0
LINE
8
BLACK
6
CONTINUOUS
10
1.4173244094488189
20
-3.7545702362204723
11
1.4108202362204725
21
-3.7610744094488187
0
LINE
8
BLACK
6
CONTINUOUS
10
1.4108202362204725
20
-3.7610744094488187
11
1.4034566535433071
21
-3.7665867322834643
0
LINE
8
BLACK
6
CONTINUOUS
10
1.4034566535433071
20
-3.7665867322834643
11
1.3953835433070867
21
-3.7709949606299213
0
LINE
8
BLACK
6
CONTINUOUS
10
1.3953835433070867
20
-3.7709949606299213
11
1.3867652362204723
21
-3.7742094488188975
0
LINE
8
BLACK
6
CONTINUOUS
10
1.3867652362204723
20
-3.7742094488188975
11
1.3777772047244095
21
-3.7761646850393702
0
LINE
8
BLACK
6
CONTINUOUS
10
1.3777772047244095
20
-3.7761646850393702
11
1.3686023622047243
21
-3.7768208661417324
0
LINE
8
BLACK
6
CONTINUOUS
10
1.3686023622047243
20
-3.7768208661417324
11
0.8998523622047244
21
-3.7768208661417324
0
LINE
8
BLACK
6
CONTINUOUS
10
0.8998523622047244
20
-3.7768208661417324
11
0.8998522834645669
21
-3.7768208267716536
0
LINE
8
BLACK
6
CONTINUOUS
10
0.8998522834645669
20
-3.7768208267716536
11
0.8998522834645669
21
-3.7768208661417324
0
LINE
8
BLACK
6
CONTINUOUS
10
0.8998522834645669
20
-3.7768208661417324
11
0.8906775984251968
21
-3.7761644094488189
0
LINE
8
BLACK
6
CONTINUOUS
10
0.8906775984251968
20
-3.7761644094488189
11
0.8816896456692913
21
-3.7742089763779525
0
LINE
8
BLACK
6
CONTINUOUS
10
0.8816896456692913
20
-3.7742089763779525
11
0.8730714960629921
21
-3.7709944094488188
0
LINE
8
BLACK
6
CONTINUOUS
10
0.8730714960629921
20
-3.7709944094488188
11
0.8649985039370078
21
-3.7665861023622047
0
LINE
8
BLACK
6
CONTINUOUS
10
0.8649985039370078
20
-3.7665861023622047
11
0.8576349999999999
21
-3.7610738188976378
0
LINE
8
BLACK
6
CONTINUOUS
10
0.8576349999999999
20
-3.7610738188976378
11
0.851130905511811
21
-3.7545697244094489
0
LINE
8
BLACK
6
CONTINUOUS
10
0.851130905511811
20
-3.7545697244094489
11
0.845618622047244
21
-3.747206220472441
0
LINE
8
BLACK
6
CONTINUOUS
10
0.845618622047244
20
-3.747206220472441
11
0.8412103149606299
21
-3.7391332283464567
0
LINE
8
BLACK
6
CONTINUOUS
10
0.8412103149606299
20
-3.7391332283464567
11
0.837995748031496
21
-3.7305150787401575
0
LINE
8
BLACK
6
CONTINUOUS
10
0.837995748031496
20
-3.7305150787401575
11
0.8360403149606299
21
-3.7215271259842519
0
LINE
8
BLACK
6
CONTINUOUS
10
0.8360403149606299
20
-3.7215271259842519
11
0.8353838582677166
21
-3.7123524409448816
0
LINE
8
BLACK
6
CONTINUOUS
10
0.8353838582677166
20
-3.7123524409448816
11
0.8353838582677166
21
-3.7123524015748033
0
LINE
8
BLACK
6
CONTINUOUS
10
0.8353838582677166
20
-3.7123524015748033
11
0.8353838582677166
21
-3.7123523622047245
0
LINE
8
BLACK
6
CONTINUOUS
10
0.8353838582677166
20
-3.7123523622047245
11
0.8353838582677166
21
-0.8998523622047244
0
LINE
8
BLACK
6
CONTINUOUS
10
0.8353838582677166
20
-0.8998523622047244
11
0.8353838582677166
21
-0.8998522834645669
0
LINE
8
BLACK
6
CONTINUOUS
10
0.8353838582677166
20
-0.8998522834645669
11
0.8360400393700788
21
-0.8906775196850394
0
LINE
8
BLACK
6
CONTINUOUS
10
0.8360400393700788
20
-0.8906775196850394
11
0.8379952755905512
21
-0.8816894881889764
0
LINE
8
BLACK
6
CONTINUOUS
10
0.8379952755905512
20
-0.8816894881889764
11
0.8412097637795275
21
-0.8730711811023621
0
LINE
8
BLACK
6
CONTINUOUS
10
0.8412097637795275
20
-0.8730711811023621
11
0.8456179921259842
21
-0.8649980708661417
0
LINE
8
BLACK
6
CONTINUOUS
10
0.8456179921259842
20
-0.8649980708661417
11
0.8511303149606299
21
-0.8576344881889764
0
LINE
8
BLACK
6
CONTINUOUS
10
0.8511303149606299
20
-0.8576344881889764
11
0.8576344881889764
21
-0.8511303149606299
0
LINE
8
BLACK
6
CONTINUOUS
10
0.8576344881889764
20
-0.8511303149606299
11
0.8649980708661417
21
-0.8456179921259842
0
LINE
8
BLACK
6
CONTINUOUS
10
0.8649980708661417
20
-0.8456179921259842
11
0.8730711811023621
21
-0.8412097637795275
0
LINE
8
BLACK
6
CONTINUOUS
10
0.8730711811023621
20
-0.8412097637795275
11
0.8816894881889764
21
-0.8379952755905512
0
LINE
8
BLACK
6
CONTINUOUS
10
0.8816894881889764
20
-0.8379952755905512
11
0.8906775196850394
21
-0.8360400393700788
0
LINE
8
BLACK
6
CONTINUOUS
10
0.8906775196850394
20
-0.8360400393700788
11
0.8998523622047244
21
-0.8353838582677166
0
LINE
8
BLACK
6
CONTINUOUS
10
0.8998523622047244
20
-0.8353838582677166
11
1.3686023622047243
21
-0.8353838582677166
0
LINE
8
BLACK
6
CONTINUOUS
10
1.3686023622047243
20
-0.8353838582677166
11
1.3777770866141732
21
-0.8360400787401575
0
LINE
8
BLACK
6
CONTINUOUS
10
1.3777770866141732
20
-0.8360400787401575
11
1.3867650393700788
21
-0.83799531496063
0
LINE
8
BLACK
6
CONTINUOUS
10
1.3867650393700788
20
-0.83799531496063
11
1.3953832283464567
21
-0.8412098031496063
0
LINE
8
BLACK
6
CONTINUOUS
10
1.3953832283464567
20
-0.8412098031496063
11
1.403456220472441
21
-0.8456181102362205
0
LINE
8
BLACK
6
CONTINUOUS
10
1.403456220472441
20
-0.8456181102362205
11
1.4108196456692914
21
-0.8511304330708661
0
LINE
8
BLACK
6
CONTINUOUS
10
1.4108196456692914
20
-0.8511304330708661
11
1.4173236614173228
21
-0.8576346456692914
0
LINE
8
BLACK
6
CONTINUOUS
10
1.4173236614173228
20
-0.8576346456692914
11
1.4228357480314959
21
-0.8649982283464567
0
LINE
8
BLACK
6
CONTINUOUS
10
1.4228357480314959
20
-0.8649982283464567
11
1.427243779527559
21
-0.8730713779527559
0
LINE
8
BLACK
6
CONTINUOUS
10
1.427243779527559
20
-0.8730713779527559
11
1.4304580314960629
21
-0.8816896850393701
0
LINE
8
BLACK
6
CONTINUOUS
10
1.4304580314960629
20
-0.8816896850393701
11
1.4324129921259843
21
-0.8906776771653543
0
LINE
8
BLACK
6
CONTINUOUS
10
1.4324129921259843
20
-0.8906776771653543
11
1.4330683070866141
21
-0.8998445669291338
0
LINE
8
BLACK
6
CONTINUOUS
10
1.4330683070866141
20
-0.8998445669291338
11
1.4330708661417322
21
-0.8998523622047244
0
LINE
8
BLACK
6
CONTINUOUS
10
1.4330708661417322
20
-0.8998523622047244
11
1.4330708661417322
21
-0.9065229527559054
0
LINE
8
BLACK
6
CONTINUOUS
10
1.4330708661417322
20
-0.9065229527559054
11
1.4345133070866141
21
-0.9197858661417323
0
LINE
8
BLACK
6
CONTINUOUS
10
1.4345133070866141
20
-0.9197858661417323
11
1.4373812598425197
21
-0.9328151181102362
0
LINE
8
BLACK
6
CONTINUOUS
10
1.4373812598425197
20
-0.9328151181102362
11
1.4416411023622047
21
-0.9454579133858267
0
LINE
8
BLACK
6
CONTINUOUS
10
1.4416411023622047
20
-0.9454579133858267
11
1.4472429133858267
21
-0.9575659842519685
0
LINE
8
BLACK
6
CONTINUOUS
10
1.4472429133858267
20
-0.9575659842519685
11
1.4541209842519685
21
-0.9689974409448818
0
LINE
8
BLACK
6
CONTINUOUS
10
1.4541209842519685
20
-0.9689974409448818
11
1.4621946850393701
21
-0.9796182677165354
0
LINE
8
BLACK
6
CONTINUOUS
10
1.4621946850393701
20
-0.9796182677165354
11
1.4713694094488188
21
-0.9893038582677165
0
LINE
8
BLACK
6
CONTINUOUS
10
1.4713694094488188
20
-0.9893038582677165
11
1.4815375196850393
21
-0.997940748031496
0
LINE
8
BLACK
6
CONTINUOUS
10
1.4815375196850393
20
-0.997940748031496
11
1.492579842519685
21
-1.0054276377952756
0
LINE
8
BLACK
6
CONTINUOUS
10
1.492579842519685
20
-1.0054276377952756
11
1.5043668897637794
21
-1.0116767322834646
0
LINE
8
BLACK
6
CONTINUOUS
10
1.5043668897637794
20
-1.0116767322834646
11
1.5167605118110237
21
-1.0166148031496063
0
LINE
8
BLACK
6
CONTINUOUS
10
1.5167605118110237
20
-1.0166148031496063
11
1.5296153937007875
21
-1.020183937007874
0
LINE
8
BLACK
6
CONTINUOUS
10
1.5296153937007875
20
-1.020183937007874
11
1.5427807874015749
21
-1.022342283464567
0
LINE
8
BLACK
6
CONTINUOUS
10
1.5427807874015749
20
-1.022342283464567
11
1.5561023622047243
21
-1.0230645669291338
0
LINE
8
BLACK
6
CONTINUOUS
10
1.5561023622047243
20
-1.0230645669291338
11
1.569423937007874
21
-1.022342283464567
0
LINE
8
BLACK
6
CONTINUOUS
10
1.569423937007874
20
-1.022342283464567
11
1.5825893307086614
21
-1.020183937007874
0
LINE
8
BLACK
6
CONTINUOUS
10
1.5825893307086614
20
-1.020183937007874
11
1.5954442125984252
21
-1.0166148031496063
0
LINE
8
BLACK
6
CONTINUOUS
10
1.5954442125984252
20
-1.0166148031496063
11
1.6078378346456692
21
-1.0116767322834646
0
LINE
8
BLACK
6
CONTINUOUS
10
1.6078378346456692
20
-1.0116767322834646
11
1.6196248818897638
21
-1.0054276377952756
0
LINE
8
BLACK
6
CONTINUOUS
10
1.6196248818897638
20
-1.0054276377952756
11
1.6306672047244095
21
-0.997940748031496
0
LINE
8
BLACK
6
CONTINUOUS
10
1.6306672047244095
20
-0.997940748031496
11
1.6408353149606298
21
-0.9893038582677165
0
LINE
8
BLACK
6
CONTINUOUS
10
1.6408353149606298
20
-0.9893038582677165
11
1.6500100393700787
21
-0.9796182677165354
0
LINE
8
BLACK
6
CONTINUOUS
10
1.6500100393700787
20
-0.9796182677165354
11
1.6580837401574802
21
-0.9689974409448818
0
LINE
8
BLACK
6
CONTINUOUS
10
1.6580837401574802
20
-0.9689974409448818
11
1.664961811023622
21
-0.9575659842519685
0
LINE
8
BLACK
6
CONTINUOUS
10
1.664961811023622
20
-0.9575659842519685
11
1.670563622047244
21
-0.9454579133858267
0
LINE
8
BLACK
6
CONTINUOUS
10
1.670563622047244
20
-0.9454579133858267
11
1.6748234645669291
21
-0.9328151181102362
0
LINE
8
BLACK
6
CONTINUOUS
10
1.6748234645669291
20
-0.9328151181102362
11
1.6776914173228346
21
-0.9197858661417323
0
LINE
8
BLACK
6
CONTINUOUS
10
1.6776914173228346
20
-0.9197858661417323
11
1.6791338582677164
21
-0.9065229527559054
0
LINE
8
BLACK
6
CONTINUOUS
10
1.6791338582677164
20
-0.9065229527559054
11
1.6791338582677164
21
-0.8998523622047244
0
LINE
8
BLACK
6
CONTINUOUS
10
1.6791338582677164
20
-0.8998523622047244
11
1.6791338582677164
21
-0.8998523228346457
0
LINE
8
BLACK
6
CONTINUOUS
10
1.6791338582677164
20
-0.8998523228346457
11
1.6791338582677164
21
-0.8998522834645669
0
LINE
8
BLACK
6
CONTINUOUS
10
1.6791338582677164
20
-0.8998522834645669
11
1.6797903149606299
21
-0.8906774803149606
0
LINE
8
BLACK
6
CONTINUOUS
10
1.6797903149606299
20
-0.8906774803149606
11
1.6817457086614174
21
-0.8816894488188977
0
LINE
8
BLACK
6
CONTINUOUS
10
1.6817457086614174
20
-0.8816894488188977
11
1.6849602755905511
21
-0.8730711811023621
0
LINE
8
BLACK
6
CONTINUOUS
10
1.6849602755905511
20
-0.8730711811023621
11
1.6893685433070866
21
-0.8649980708661417
0
LINE
8
BLACK
6
CONTINUOUS
10
1.6893685433070866
20
-0.8649980708661417
11
1.6948807874015748
21
-0.8576344094488189
0
LINE
8
BLACK
6
CONTINUOUS
10
1.6948807874015748
20
-0.8576344094488189
11
1.7013848425196849
21
-0.851130157480315
0
LINE
8
BLACK
6
CONTINUOUS
10
1.7013848425196849
20
-0.851130157480315
11
1.7087483070866141
21
-0.8456176771653543
0
LINE
8
BLACK
6
CONTINUOUS
10
1.7087483070866141
20
-0.8456176771653543
11
1.7168212992125984
21
-0.8412091338582677
0
LINE
8
BLACK
6
CONTINUOUS
10
1.7168212992125984
20
-0.8412091338582677
11
1.7254394881889763
21
-0.8379942913385826
0
LINE
8
BLACK
6
CONTINUOUS
10
1.7254394881889763
20
-0.8379942913385826
11
1.7344274409448819
21
-0.8360386220472441
0
LINE
8
BLACK
6
CONTINUOUS
10
1.7344274409448819
20
-0.8360386220472441
11
1.7436022440944881
21
-0.8353818897637795
0
LINE
8
BLACK
6
CONTINUOUS
10
1.7436022440944881
20
-0.8353818897637795
11
1.7436022440944881
21
-0.8353838582677166
0
LINE
8
BLACK
6
CONTINUOUS
10
1.7436022440944881
20
-0.8353838582677166
11
1.7436022834645668
21
-0.8353838582677166
0
LINE
8
BLACK
6
CONTINUOUS
10
1.7436022834645668
20
-0.8353838582677166
11
1.7436023622047243
21
-0.8353838582677166
0
LINE
8
BLACK
6
CONTINUOUS
10
1.7436023622047243
20
-0.8353838582677166
11
4.3373523622047241
21
-0.8353838582677166
0
LINE
8
BLACK
6
CONTINUOUS
10
4.3373523622047241
20
-0.8353838582677166
11
4.3373524803149603
21
-0.8353838582677166
0
LINE
8
BLACK
6
CONTINUOUS
10
4.3373524803149603
20
-0.8353838582677166
11
4.3373525984251966
21
-0.8353838582677166
0
LINE
8
BLACK
6
CONTINUOUS
10
4.3373525984251966
20
-0.8353838582677166
11
4.3373525984251966
21
-0.8353838976377953
0
LINE
8
BLACK
6
CONTINUOUS
10
4.3373525984251966
20
-0.8353838976377953
11
4.3373672047244094
21
-0.835386811023622
0
LINE
8
BLACK
6
CONTINUOUS
10
4.3373672047244094
20
-0.835386811023622
11
4.3391507480314964
21
-0.835386968503937
0
LINE
8
BLACK
6
CONTINUOUS
10
4.3391507480314964
20
-0.835386968503937
11
4.3426245669291337
21
-0.8344563779527558
0
LINE
8
BLACK
6
CONTINUOUS
10
4.3426245669291337
20
-0.8344563779527558
11
4.3457390551181101
21
-0.8326581496062992
0
LINE
8
BLACK
6
CONTINUOUS
10
4.3457390551181101
20
-0.8326581496062992
11
4.3482817716535429
21
-0.8301149212598425
0
LINE
8
BLACK
6
CONTINUOUS
10
4.3482817716535429
20
-0.8301149212598425
11
4.3500794094488189
21
-0.8270001181102362
0
LINE
8
BLACK
6
CONTINUOUS
10
4.3500794094488189
20
-0.8270001181102362
11
4.3510093700787404
21
-0.8235261417322834
0
LINE
8
BLACK
6
CONTINUOUS
10
4.3510093700787404
20
-0.8235261417322834
11
4.3510088582677167
21
-0.8217279921259842
0
LINE
8
BLACK
6
CONTINUOUS
10
4.3510088582677167
20
-0.8217279921259842
11
4.3510089763779529
21
-0.8217275984251968
0
LINE
8
BLACK
6
CONTINUOUS
10
4.3510089763779529
20
-0.8217275984251968
11
4.3510088582677167
21
-0.8217272440944882
0
LINE
8
BLACK
6
CONTINUOUS
10
4.3510088582677167
20
-0.8217272440944882
11
4.3516085826771649
21
-0.817173937007874
0
LINE
8
BLACK
6
CONTINUOUS
10
4.3516085826771649
20
-0.817173937007874
11
4.3533662992125981
21
-0.8129309448818898
0
LINE
8
BLACK
6
CONTINUOUS
10
4.3533662992125981
20
-0.8129309448818898
11
4.3561622834645668
21
-0.8092874803149606
0
LINE
8
BLACK
6
CONTINUOUS
10
4.3561622834645668
20
-0.8092874803149606
11
4.3598059448818898
21
-0.8064917322834646
0
LINE
8
BLACK
6
CONTINUOUS
10
4.3598059448818898
20
-0.8064917322834646
11
4.3640490157480318
21
-0.8047342913385827
0
LINE
8
BLACK
6
CONTINUOUS
10
4.3640490157480318
20
-0.8047342913385827
11
4.3685877165354325
21
-0.8041367322834645
0
LINE
8
BLACK
6
CONTINUOUS
10
4.3685877165354325
20
-0.8041367322834645
11
4.3686023622047241
21
-0.8041338582677166
0
LINE
8
BLACK
6
CONTINUOUS
10
4.3686023622047241
20
-0.8041338582677166
11
4.7436023622047241
21
-0.8041338582677166
0
LINE
8
BLACK
6
CONTINUOUS
10
4.3686023622047241
20
-0.8080708661417323
11
4.3686023622047241
21
-0.8080718503937008
0
LINE
8
BLACK
6
CONTINUOUS
10
4.3686023622047241
20
-0.8080718503937008
11
4.3668045275590552
21
-0.8080718503937008
0
LINE
8
BLACK
6
CONTINUOUS
10
4.3668045275590552
20
-0.8080718503937008
11
4.3633313385826771
21
-0.8090024409448818
0
LINE
8
BLACK
6
CONTINUOUS
10
4.3633313385826771
20
-0.8090024409448818
11
4.3602173622047244
21
-0.8108001968503937
0
LINE
8
BLACK
6
CONTINUOUS
10
4.3602173622047244
20
-0.8108001968503937
11
4.3576747637795279
21
-0.8133426771653544
0
LINE
8
BLACK
6
CONTINUOUS
10
4.3576747637795279
20
-0.8133426771653544
11
4.3558767716535431
21
-0.8164565354330708
0
LINE
8
BLACK
6
CONTINUOUS
10
4.3558767716535431
20
-0.8164565354330708
11
4.3549459842519687
21
-0.8199296456692913
0
LINE
8
BLACK
6
CONTINUOUS
10
4.3549459842519687
20
-0.8199296456692913
11
4.3549458661417324
21
-0.8217274803149606
0
LINE
8
BLACK
6
CONTINUOUS
10
4.3549458661417324
20
-0.8217274803149606
11
4.3549456692913386
21
-0.8217279527559055
0
LINE
8
BLACK
6
CONTINUOUS
10
4.3549456692913386
20
-0.8217279527559055
11
4.3543475590551184
21
-0.8262812204724409
0
LINE
8
BLACK
6
CONTINUOUS
10
4.3543475590551184
20
-0.8262812204724409
11
4.352590511811024
21
-0.8305254724409449
0
LINE
8
BLACK
6
CONTINUOUS
10
4.352590511811024
20
-0.8305254724409449
11
4.3497946062992128
21
-0.8341701968503937
0
LINE
8
BLACK
6
CONTINUOUS
10
4.3497946062992128
20
-0.8341701968503937
11
4.346150433070866
21
-0.836966811023622
0
LINE
8
BLACK
6
CONTINUOUS
10
4.346150433070866
20
-0.836966811023622
11
4.3419064566929135
21
-0.8387246456692913
0
LINE
8
BLACK
6
CONTINUOUS
10
4.3419064566929135
20
-0.8387246456692913
11
4.3373521259842516
21
-0.8393238188976377
0
LINE
8
BLACK
6
CONTINUOUS
10
4.3373521259842516
20
-0.8393238188976377
11
4.3373521259842516
21
-0.8393208661417323
0
LINE
8
BLACK
6
CONTINUOUS
10
4.3373521259842516
20
-0.8393208661417323
11
1.7436024803149606
21
-0.8393208661417323
0
LINE
8
BLACK
6
CONTINUOUS
10
1.7436024803149606
20
-0.8393208661417323
11
1.7436023622047243
21
-0.8393208661417323
0
LINE
8
BLACK
6
CONTINUOUS
10
1.7436023622047243
20
-0.8393208661417323
11
1.7435924409448817
21
-0.8393188976377952
0
LINE
8
BLACK
6
CONTINUOUS
10
1.7435924409448817
20
-0.8393188976377952
11
1.7392731496062992
21
-0.8393191338582677
0
LINE
8
BLACK
6
CONTINUOUS
10
1.7392731496062992
20
-0.8393191338582677
11
1.730702716535433
21
-0.8405518503937007
0
LINE
8
BLACK
6
CONTINUOUS
10
1.730702716535433
20
-0.8405518503937007
11
1.7223949212598424
21
-0.8429916535433071
0
LINE
8
BLACK
6
CONTINUOUS
10
1.7223949212598424
20
-0.8429916535433071
11
1.7145188976377952
21
-0.8465888976377952
0
LINE
8
BLACK
6
CONTINUOUS
10
1.7145188976377952
20
-0.8465888976377952
11
1.7072349212598426
21
-0.8512703149606299
0
LINE
8
BLACK
6
CONTINUOUS
10
1.7072349212598426
20
-0.8512703149606299
11
1.7006912598425197
21
-0.8569406299212599
0
LINE
8
BLACK
6
CONTINUOUS
10
1.7006912598425197
20
-0.8569406299212599
11
1.6950211417322834
21
-0.8634844881889764
0
LINE
8
BLACK
6
CONTINUOUS
10
1.6950211417322834
20
-0.8634844881889764
11
1.6903399212598424
21
-0.8707685826771653
0
LINE
8
BLACK
6
CONTINUOUS
10
1.6903399212598424
20
-0.8707685826771653
11
1.6867429527559055
21
-0.8786447637795275
0
LINE
8
BLACK
6
CONTINUOUS
10
1.6867429527559055
20
-0.8786447637795275
11
1.6843034251968503
21
-0.8869526377952756
0
LINE
8
BLACK
6
CONTINUOUS
10
1.6843034251968503
20
-0.8869526377952756
11
1.6830709842519684
21
-0.8955231102362204
0
LINE
8
BLACK
6
CONTINUOUS
10
1.6830709842519684
20
-0.8955231102362204
11
1.6830708661417322
21
-0.8998523622047244
0
LINE
8
BLACK
6
CONTINUOUS
10
1.6830708661417322
20
-0.8998523622047244
11
1.6823265748031495
21
-0.9135800787401575
0
LINE
8
BLACK
6
CONTINUOUS
10
1.6823265748031495
20
-0.9135800787401575
11
1.6801024015748032
21
-0.9271468503937008
0
LINE
8
BLACK
6
CONTINUOUS
10
1.6801024015748032
20
-0.9271468503937008
11
1.6764244488188975
21
-0.9403935826771653
0
LINE
8
BLACK
6
CONTINUOUS
10
1.6764244488188975
20
-0.9403935826771653
11
1.6713358661417324
21
-0.9531650393700787
0
LINE
8
BLACK
6
CONTINUOUS
10
1.6713358661417324
20
-0.9531650393700787
11
1.6648962204724409
21
-0.9653114566929134
0
LINE
8
BLACK
6
CONTINUOUS
10
1.6648962204724409
20
-0.9653114566929134
11
1.6571811023622047
21
-0.9766904330708661
0
LINE
8
BLACK
6
CONTINUOUS
10
1.6571811023622047
20
-0.9766904330708661
11
1.6482809055118111
21
-0.9871685433070866
0
LINE
8
BLACK
6
CONTINUOUS
10
1.6482809055118111
20
-0.9871685433070866
11
1.6383000393700786
21
-0.9966229527559055
0
LINE
8
BLACK
6
CONTINUOUS
10
1.6383000393700786
20
-0.9966229527559055
11
1.6273554330708662
21
-1.0049427952755905
0
LINE
8
BLACK
6
CONTINUOUS
10
1.6273554330708662
20
-1.0049427952755905
11
1.6155754724409448
21
-1.0120305511811023
0
LINE
8
BLACK
6
CONTINUOUS
10
1.6155754724409448
20
-1.0120305511811023
11
1.6030982677165353
21
-1.0178031496062991
0
LINE
8
BLACK
6
CONTINUOUS
10
1.6030982677165353
20
-1.0178031496062991
11
1.5900700393700786
21
-1.022192874015748
0
LINE
8
BLACK
6
CONTINUOUS
10
1.5900700393700786
20
-1.022192874015748
11
1.5766435826771654
21
-1.0251482677165353
0
LINE
8
BLACK
6
CONTINUOUS
10
1.5766435826771654
20
-1.0251482677165353
11
1.5629762992125984
21
-1.0266346456692914
0
LINE
8
BLACK
6
CONTINUOUS
10
1.5629762992125984
20
-1.0266346456692914
11
1.5492284251968504
21
-1.0266346456692914
0
LINE
8
BLACK
6
CONTINUOUS
10
1.5492284251968504
20
-1.0266346456692914
11
1.5355611417322834
21
-1.0251482677165353
0
LINE
8
BLACK
6
CONTINUOUS
10
1.5355611417322834
20
-1.0251482677165353
11
1.52213468503937
21
-1.022192874015748
0
LINE
8
BLACK
6
CONTINUOUS
10
1.52213468503937
20
-1.022192874015748
11
1.5091064566929133
21
-1.0178031496062991
0
LINE
8
BLACK
6
CONTINUOUS
10
1.5091064566929133
20
-1.0178031496062991
11
1.4966292519685038
21
-1.0120305511811023
0
LINE
8
BLACK
6
CONTINUOUS
10
1.4966292519685038
20
-1.0120305511811023
11
1.4848492913385827
21
-1.0049427952755905
0
LINE
8
BLACK
6
CONTINUOUS
10
1.4848492913385827
20
-1.0049427952755905
11
1.47390468503937
21
-0.9966229527559055
0
LINE
8
BLACK
6
CONTINUOUS
10
1.47390468503937
20
-0.9966229527559055
11
1.4639238188976378
21
-0.9871685433070866
0
LINE
8
BLACK
6
CONTINUOUS
10
1.4639238188976378
20
-0.9871685433070866
11
1.4550236220472441
21
-0.9766904330708661
0
LINE
8
BLACK
6
CONTINUOUS
10
1.4550236220472441
20
-0.9766904330708661
11
1.4473085039370079
21
-0.9653114566929134
0
LINE
8
BLACK
6
CONTINUOUS
10
1.4473085039370079
20
-0.9653114566929134
11
1.4408688582677165
21
-0.9531650393700787
0
LINE
8
BLACK
6
CONTINUOUS
10
1.4408688582677165
20
-0.9531650393700787
11
1.4357802755905511
21
-0.9403935826771653
0
LINE
8
BLACK
6
CONTINUOUS
10
1.4357802755905511
20
-0.9403935826771653
11
1.4321023228346457
21
-0.9271468503937008
0
LINE
8
BLACK
6
CONTINUOUS
10
1.4321023228346457
20
-0.9271468503937008
11
1.4298781496062991
21
-0.9135800787401575
0
LINE
8
BLACK
6
CONTINUOUS
10
1.4298781496062991
20
-0.9135800787401575
11
1.4291338582677164
21
-0.8998523622047244
0
LINE
8
BLACK
6
CONTINUOUS
10
1.4291338582677164
20
-0.8998523622047244
11
1.4291338582677164
21
-0.8998523228346457
0
LINE
8
BLACK
6
CONTINUOUS
10
1.4291338582677164
20
-0.8998523228346457
11
1.4291338582677164
21
-0.8998522834645669
0
LINE
8
BLACK
6
CONTINUOUS
10
1.4291338582677164
20
-0.8998522834645669
11
1.4291318897637795
21
-0.8998522834645669
0
LINE
8
BLACK
6
CONTINUOUS
10
1.4291318897637795
20
-0.8998522834645669
11
1.4291320078740157
21
-0.8955230708661417
0
LINE
8
BLACK
6
CONTINUOUS
10
1.4291320078740157
20
-0.8955230708661417
11
1.4279000393700787
21
-0.8869526771653543
0
LINE
8
BLACK
6
CONTINUOUS
10
1.4279000393700787
20
-0.8869526771653543
11
1.4254608661417323
21
-0.878644842519685
0
LINE
8
BLACK
6
CONTINUOUS
10
1.4254608661417323
20
-0.878644842519685
11
1.4218641732283464
21
-0.8707687401574803
0
LINE
8
BLACK
6
CONTINUOUS
10
1.4218641732283464
20
-0.8707687401574803
11
1.417183188976378
21
-0.8634846456692913
0
LINE
8
BLACK
6
CONTINUOUS
10
1.417183188976378
20
-0.8634846456692913
11
1.4115131889763779
21
-0.856940905511811
0
LINE
8
BLACK
6
CONTINUOUS
10
1.4115131889763779
20
-0.856940905511811
11
1.4049696456692913
21
-0.8512707086614173
0
LINE
8
BLACK
6
CONTINUOUS
10
1.4049696456692913
20
-0.8512707086614173
11
1.3976857086614174
21
-0.8465894881889764
0
LINE
8
BLACK
6
CONTINUOUS
10
1.3976857086614174
20
-0.8465894881889764
11
1.38980968503937
21
-0.8429925590551181
0
LINE
8
BLACK
6
CONTINUOUS
10
1.38980968503937
20
-0.8429925590551181
11
1.3815019685039369
21
-0.8405531496062992
0
LINE
8
BLACK
6
CONTINUOUS
10
1.3815019685039369
20
-0.8405531496062992
11
1.3729316141732284
21
-0.8393208661417323
0
LINE
8
BLACK
6
CONTINUOUS
10
1.3729316141732284
20
-0.8393208661417323
11
1.3686023622047243
21
-0.8393208661417323
0
LINE
8
BLACK
6
CONTINUOUS
10
1.3686023622047243
20
-0.8393208661417323
11
0.8998523622047244
21
-0.8393208661417323
0
LINE
8
BLACK
6
CONTINUOUS
10
0.8998523622047244
20
-0.8393208661417323
11
0.8955230708661417
21
-0.8393208661417323
0
LINE
8
BLACK
6
CONTINUOUS
10
0.8955230708661417
20
-0.8393208661417323
11
0.8869525984251968
21
-0.8405531102362205
0
LINE
8
BLACK
6
CONTINUOUS
10
0.8869525984251968
20
-0.8405531102362205
11
0.8786447244094489
21
-0.8429925196850393
0
LINE
8
BLACK
6
CONTINUOUS
10
0.8786447244094489
20
-0.8429925196850393
11
0.870768622047244
21
-0.8465894488188976
0
LINE
8
BLACK
6
CONTINUOUS
10
0.870768622047244
20
-0.8465894488188976
11
0.8634845275590551
21
-0.8512706299212598
0
LINE
8
BLACK
6
CONTINUOUS
10
0.8634845275590551
20
-0.8512706299212598
11
0.8569408267716535
21
-0.8569408267716535
0
LINE
8
BLACK
6
CONTINUOUS
10
0.8569408267716535
20
-0.8569408267716535
11
0.8512706299212598
21
-0.8634845275590551
0
LINE
8
BLACK
6
CONTINUOUS
10
0.8512706299212598
20
-0.8634845275590551
11
0.8465894488188976
21
-0.870768622047244
0
LINE
8
BLACK
6
CONTINUOUS
10
0.8465894488188976
20
-0.870768622047244
11
0.8429925196850393
21
-0.8786447244094489
0
LINE
8
BLACK
6
CONTINUOUS
10
0.8429925196850393
20
-0.8786447244094489
11
0.8405531102362205
21
-0.8869525984251968
0
LINE
8
BLACK
6
CONTINUOUS
10
0.8405531102362205
20
-0.8869525984251968
11
0.8393208661417323
21
-0.8955230708661417
0
LINE
8
BLACK
6
CONTINUOUS
10
0.8393208661417323
20
-0.8955230708661417
11
0.8393208661417323
21
-0.8998522834645669
0
LINE
8
BLACK
6
CONTINUOUS
10
0.8393208661417323
20
-0.8998522834645669
11
0.8393208661417323
21
-0.8998523622047244
0
LINE
8
BLACK
6
CONTINUOUS
10
0.8393208661417323
20
-0.8998523622047244
11
0.8393208661417323
21
-3.712352283464567
0
LINE
8
BLACK
6
CONTINUOUS
10
0.8393208661417323
20
-3.712352283464567
11
0.8393209842519684
21
-3.7166815748031494
0
LINE
8
BLACK
6
CONTINUOUS
10
0.8393209842519684
20
-3.7166815748031494
11
0.8405534251968504
21
-3.7252519291338584
0
LINE
8
BLACK
6
CONTINUOUS
10
0.8405534251968504
20
-3.7252519291338584
11
0.8429929921259842
21
-3.7335596850393702
0
LINE
8
BLACK
6
CONTINUOUS
10
0.8429929921259842
20
-3.7335596850393702
11
0.84659
21
-3.7414357086614172
0
LINE
8
BLACK
6
CONTINUOUS
10
0.84659
20
-3.7414357086614172
11
0.851271220472441
21
-3.74871968503937
0
LINE
8
BLACK
6
CONTINUOUS
10
0.851271220472441
20
-3.74871968503937
11
0.8569413385826772
21
-3.7552633858267717
0
LINE
8
BLACK
6
CONTINUOUS
10
0.8569413385826772
20
-3.7552633858267717
11
0.8634850393700787
21
-3.7609335039370078
0
LINE
8
BLACK
6
CONTINUOUS
10
0.8634850393700787
20
-3.7609335039370078
11
0.8707690157480314
21
-3.7656147244094487
0
LINE
8
BLACK
6
CONTINUOUS
10
0.8707690157480314
20
-3.7656147244094487
11
0.8786450393700788
21
-3.7692117322834644
0
LINE
8
BLACK
6
CONTINUOUS
10
0.8786450393700788
20
-3.7692117322834644
11
0.8869527952755906
21
-3.7716512992125981
0
LINE
8
BLACK
6
CONTINUOUS
10
0.8869527952755906
20
-3.7716512992125981
11
0.8955231496062992
21
-3.7728837401574804
0
LINE
8
BLACK
6
CONTINUOUS
10
0.8955231496062992
20
-3.7728837401574804
11
0.8998524409448818
21
-3.7728838582677167
0
LINE
8
BLACK
6
CONTINUOUS
10
0.8998524409448818
20
-3.7728838582677167
11
1.3686023622047243
21
-3.7728838582677167
0
LINE
8
BLACK
6
CONTINUOUS
10
1.3686023622047243
20
-3.7728838582677167
11
1.3729316535433072
21
-3.7728838582677167
0
LINE
8
BLACK
6
CONTINUOUS
10
1.3729316535433072
20
-3.7728838582677167
11
1.3815021259842519
21
-3.7716516141732281
0
LINE
8
BLACK
6
CONTINUOUS
10
1.3815021259842519
20
-3.7716516141732281
11
1.38981
21
-3.7692122047244094
0
LINE
8
BLACK
6
CONTINUOUS
10
1.38981
20
-3.7692122047244094
11
1.3976861023622047
21
-3.7656152755905512
0
LINE
8
BLACK
6
CONTINUOUS
10
1.3976861023622047
20
-3.7656152755905512
11
1.4049701968503936
21
-3.7609340944881891
0
LINE
8
BLACK
6
CONTINUOUS
10
1.4049701968503936
20
-3.7609340944881891
11
1.4115138976377952
21
-3.755263897637795
0
LINE
8
BLACK
6
CONTINUOUS
10
1.4115138976377952
20
-3.755263897637795
11
1.4171840944881891
21
-3.7487201968503938
0
LINE
8
BLACK
6
CONTINUOUS
10
1.4171840944881891
20
-3.7487201968503938
11
1.4218652755905512
21
-3.7414361023622047
0
LINE
8
BLACK
6
CONTINUOUS
10
1.4218652755905512
20
-3.7414361023622047
11
1.4254622047244094
21
-3.7335599999999998
0
LINE
8
BLACK
6
CONTINUOUS
10
1.4254622047244094
20
-3.7335599999999998
11
1.4279016141732284
21
-3.7252521259842517
0
LINE
8
BLACK
6
CONTINUOUS
10
1.4279016141732284
20
-3.7252521259842517
11
1.4291338582677164
21
-3.7166816535433069
0
LINE
8
BLACK
6
CONTINUOUS
10
1.4291338582677164
20
-3.7166816535433069
11
1.4291338582677164
21
-3.7123523622047245
0
LINE
8
BLACK
6
CONTINUOUS
10
1.4291338582677164
20
-3.7123523622047245
11
1.4298781496062991
21
-3.6986246456692911
0
LINE
8
BLACK
6
CONTINUOUS
10
1.4298781496062991
20
-3.6986246456692911
11
1.4321023228346457
21
-3.6850578740157478
0
LINE
8
BLACK
6
CONTINUOUS
10
1.4321023228346457
20
-3.6850578740157478
11
1.4357802755905511
21
-3.6718111417322832
0
LINE
8
BLACK
6
CONTINUOUS
10
1.4357802755905511
20
-3.6718111417322832
11
1.4408688582677165
21
-3.65903968503937
0
LINE
8
BLACK
6
CONTINUOUS
10
1.4408688582677165
20
-3.65903968503937
11
1.4473085039370079
21
-3.6468932677165355
0
LINE
8
BLACK
6
CONTINUOUS
10
1.4473085039370079
20
-3.6468932677165355
11
1.4550236220472441
21
-3.6355142913385827
0
LINE
8
BLACK
6
CONTINUOUS
10
1.4550236220472441
20
-3.6355142913385827
11
1.4639238188976378
21
-3.6250361811023621
0
LINE
8
BLACK
6
CONTINUOUS
10
1.4639238188976378
20
-3.6250361811023621
11
1.47390468503937
21
-3.6155817716535434
0
LINE
8
BLACK
6
CONTINUOUS
10
1.47390468503937
20
-3.6155817716535434
11
1.4848492913385827
21
-3.6072619291338581
0
LINE
8
BLACK
6
CONTINUOUS
10
1.4848492913385827
20
-3.6072619291338581
11
1.4966292519685038
21
-3.6001741732283463
0
LINE
8
BLACK
6
CONTINUOUS
10
1.4966292519685038
20
-3.6001741732283463
11
1.5091064566929133
21
-3.5944015748031495
0
LINE
8
BLACK
6
CONTINUOUS
10
1.5091064566929133
20
-3.5944015748031495
11
1.52213468503937
21
-3.5900118503937009
0
LINE
8
BLACK
6
CONTINUOUS
10
1.52213468503937
20
-3.5900118503937009
11
1.5355611417322834
21
-3.5870564566929133
0
LINE
8
BLACK
6
CONTINUOUS
10
1.5355611417322834
20
-3.5870564566929133
11
1.5492284251968504
21
-3.5855700787401572
0
LINE
8
BLACK
6
CONTINUOUS
10
1.5492284251968504
20
-3.5855700787401572
11
1.5629762992125984
21
-3.5855700787401572
0
LINE
8
BLACK
6
CONTINUOUS
10
1.5629762992125984
20
-3.5855700787401572
11
1.5766435826771654
21
-3.5870564566929133
0
LINE
8
BLACK
6
CONTINUOUS
10
1.5766435826771654
20
-3.5870564566929133
11
1.5900700393700786
21
-3.5900118503937009
0
LINE
8
BLACK
6
CONTINUOUS
10
1.5900700393700786
20
-3.5900118503937009
11
1.6030982677165353
21
-3.5944015748031495
0
LINE
8
BLACK
6
CONTINUOUS
10
1.6030982677165353
20
-3.5944015748031495
11
1.6155754724409448
21
-3.6001741732283463
0
LINE
8
BLACK
6
CONTINUOUS
10
1.6155754724409448
20
-3.6001741732283463
11
1.6273554330708662
21
-3.6072619291338581
0
LINE
8
BLACK
6
CONTINUOUS
10
1.6273554330708662
20
-3.6072619291338581
11
1.6383000393700786
21
-3.6155817716535434
0
LINE
8
BLACK
6
CONTINUOUS
10
1.6383000393700786
20
-3.6155817716535434
11
1.6482809055118111
21
-3.6250361811023621
0
LINE
8
BLACK
6
CONTINUOUS
10
1.6482809055118111
20
-3.6250361811023621
11
1.6571811023622047
21
-3.6355142913385827
0
LINE
8
BLACK
6
CONTINUOUS
10
1.6571811023622047
20
-3.6355142913385827
11
1.6648962204724409
21
-3.6468932677165355
0
LINE
8
BLACK
6
CONTINUOUS
10
1.6648962204724409
20
-3.6468932677165355
11
1.6713358661417324
21
-3.65903968503937
0
LINE
8
BLACK
6
CONTINUOUS
10
1.6713358661417324
20
-3.65903968503937
11
1.6764244488188975
21
-3.6718111417322832
0
LINE
8
BLACK
6
CONTINUOUS
10
1.6764244488188975
20
-3.6718111417322832
11
1.6801024015748032
21
-3.6850578740157478
0
LINE
8
BLACK
6
CONTINUOUS
10
1.6801024015748032
20
-3.6850578740157478
11
1.6823265748031495
21
-3.6986246456692911
0
LINE
8
BLACK
6
CONTINUOUS
10
1.6823265748031495
20
-3.6986246456692911
11
1.6830708661417322
21
-3.7123523622047245
0
LINE
8
BLACK
6
CONTINUOUS
10
1.6830708661417322
20
-3.7123523622047245
11
1.6830708267716534
21
-3.7123523622047245
0
LINE
8
BLACK
6
CONTINUOUS
10
1.6830708267716534
20
-3.7123523622047245
11
1.6830708661417322
21
-3.7123524409448816
0
LINE
8
BLACK
6
CONTINUOUS
10
1.6830708661417322
20
-3.7123524409448816
11
1.6830728346456691
21
-3.7123524409448816
0
LINE
8
BLACK
6
CONTINUOUS
10
1.6830728346456691
20
-3.7123524409448816
11
1.6830727165354331
21
-3.7166816535433069
0
LINE
8
BLACK
6
CONTINUOUS
10
1.6830727165354331
20
-3.7166816535433069
11
1.6843046850393701
21
-3.7252520472440942
0
LINE
8
BLACK
6
CONTINUOUS
10
1.6843046850393701
20
-3.7252520472440942
11
1.6867438582677166
21
-3.7335598818897635
0
LINE
8
BLACK
6
CONTINUOUS
10
1.6867438582677166
20
-3.7335598818897635
11
1.6903405511811023
21
-3.7414359842519684
0
LINE
8
BLACK
6
CONTINUOUS
10
1.6903405511811023
20
-3.7414359842519684
11
1.6950215354330709
21
-3.7487200787401576
0
LINE
8
BLACK
6
CONTINUOUS
10
1.6950215354330709
20
-3.7487200787401576
11
1.7006915354330707
21
-3.7552638188976375
0
LINE
8
BLACK
6
CONTINUOUS
10
1.7006915354330707
20
-3.7552638188976375
11
1.7072350787401573
21
-3.7609340157480315
0
LINE
8
BLACK
6
CONTINUOUS
10
1.7072350787401573
20
-3.7609340157480315
11
1.7145190157480314
21
-3.7656152362204725
0
LINE
8
BLACK
6
CONTINUOUS
10
1.7145190157480314
20
-3.7656152362204725
11
1.7223950393700787
21
-3.7692121653543307
0
LINE
8
BLACK
6
CONTINUOUS
10
1.7223950393700787
20
-3.7692121653543307
11
1.7307027559055117
21
-3.7716515748031494
0
LINE
8
BLACK
6
CONTINUOUS
10
1.7307027559055117
20
-3.7716515748031494
11
1.7392731102362204
21
-3.7728838582677167
0
LINE
8
BLACK
6
CONTINUOUS
10
1.7392731102362204
20
-3.7728838582677167
11
1.7436023622047243
21
-3.7728838582677167
0
LINE
8
BLACK
6
CONTINUOUS
10
1.7436023622047243
20
-3.7728838582677167
11
7.3686023622047241
21
-3.7728838582677167
0
LINE
8
BLACK
6
CONTINUOUS
10
7.3686023622047241
20
-3.7728838582677167
11
7.3686122440944883
21
-3.7728857874015747
0
LINE
8
BLACK
6
CONTINUOUS
10
7.3686122440944883
20
-3.7728857874015747
11
7.3729315748031494
21
-3.7728855905511809
0
LINE
8
BLACK
6
CONTINUOUS
10
7.3729315748031494
20
-3.7728855905511809
11
7.3815020078740154
21
-3.7716528740157478
0
LINE
8
BLACK
6
CONTINUOUS
10
7.3815020078740154
20
-3.7716528740157478
11
7.389809803149606
21
-3.7692130708661415
0
LINE
8
BLACK
6
CONTINUOUS
10
7.389809803149606
20
-3.7692130708661415
11
7.397685826771653
21
-3.7656158267716533
0
LINE
8
BLACK
6
CONTINUOUS
10
7.397685826771653
20
-3.7656158267716533
11
7.4049698031496058
21
-3.7609344094488186
0
LINE
8
BLACK
6
CONTINUOUS
10
7.4049698031496058
20
-3.7609344094488186
11
7.4115134645669292
21
-3.7552640944881888
0
LINE
8
BLACK
6
CONTINUOUS
10
7.4115134645669292
20
-3.7552640944881888
11
7.4171835826771648
21
-3.7487202362204726
0
LINE
8
BLACK
6
CONTINUOUS
10
7.4171835826771648
20
-3.7487202362204726
11
7.4218648031496057
21
-3.7414361417322834
0
LINE
8
BLACK
6
CONTINUOUS
10
7.4218648031496057
20
-3.7414361417322834
11
7.4254617716535432
21
-3.733559960629921
0
LINE
8
BLACK
6
CONTINUOUS
10
7.4254617716535432
20
-3.733559960629921
11
7.4279012992125981
21
-3.725252086614173
0
LINE
8
BLACK
6
CONTINUOUS
10
7.4279012992125981
20
-3.725252086614173
11
7.4291337401574804
21
-3.7166816141732282
0
LINE
8
BLACK
6
CONTINUOUS
10
7.4291337401574804
20
-3.7166816141732282
11
7.4291338582677167
21
-3.712352283464567
0
LINE
8
BLACK
6
CONTINUOUS
10
7.4291338582677167
20
-3.712352283464567
11
7.4291338582677167
21
-3.7123522440944883
0
LINE
8
BLACK
6
CONTINUOUS
10
7.4291338582677167
20
-3.7123522440944883
11
7.4298781496062993
21
-3.6986246456692911
0
LINE
8
BLACK
6
CONTINUOUS
10
7.4298781496062993
20
-3.6986246456692911
11
7.4321023228346457
21
-3.6850578740157478
0
LINE
8
BLACK
6
CONTINUOUS
10
7.4321023228346457
20
-3.6850578740157478
11
7.4357802755905507
21
-3.6718111417322832
0
LINE
8
BLACK
6
CONTINUOUS
10
7.4357802755905507
20
-3.6718111417322832
11
7.4408688582677165
21
-3.65903968503937
0
LINE
8
BLACK
6
CONTINUOUS
10
7.4408688582677165
20
-3.65903968503937
11
7.4473085039370073
21
-3.6468932677165355
0
LINE
8
BLACK
6
CONTINUOUS
10
7.4473085039370073
20
-3.6468932677165355
11
7.4550236220472437
21
-3.6355142913385827
0
LINE
8
BLACK
6
CONTINUOUS
10
7.4550236220472437
20
-3.6355142913385827
11
7.463923818897638
21
-3.6250361811023621
0
LINE
8
BLACK
6
CONTINUOUS
10
7.463923818897638
20
-3.6250361811023621
11
7.4739046850393702
21
-3.6155817716535434
0
LINE
8
BLACK
6
CONTINUOUS
10
7.4739046850393702
20
-3.6155817716535434
11
7.4848492913385822
21
-3.6072619291338581
0
LINE
8
BLACK
6
CONTINUOUS
10
7.4848492913385822
20
-3.6072619291338581
11
7.4966292519685034
21
-3.6001741732283463
0
LINE
8
BLACK
6
CONTINUOUS
10
7.4966292519685034
20
-3.6001741732283463
11
7.5091064566929129
21
-3.5944015748031495
0
LINE
8
BLACK
6
CONTINUOUS
10
7.5091064566929129
20
-3.5944015748031495
11
7.5221346850393696
21
-3.5900118503937009
0
LINE
8
BLACK
6
CONTINUOUS
10
7.5221346850393696
20
-3.5900118503937009
11
7.5355611417322832
21
-3.5870564566929133
0
LINE
8
BLACK
6
CONTINUOUS
10
7.5355611417322832
20
-3.5870564566929133
11
7.5492284251968504
21
-3.5855700787401572
0
LINE
8
BLACK
6
CONTINUOUS
10
7.5492284251968504
20
-3.5855700787401572
11
7.5629762992125986
21
-3.5855700787401572
0
LINE
8
BLACK
6
CONTINUOUS
10
7.5629762992125986
20
-3.5855700787401572
11
7.576643582677165
21
-3.5870564566929133
0
LINE
8
BLACK
6
CONTINUOUS
10
7.576643582677165
20
-3.5870564566929133
11
7.5900700393700786
21
-3.5900118503937009
0
LINE
8
BLACK
6
CONTINUOUS
10
7.5900700393700786
20
-3.5900118503937009
11
7.6030982677165353
21
-3.5944015748031495
0
LINE
8
BLACK
6
CONTINUOUS
10
7.6030982677165353
20
-3.5944015748031495
11
7.6155754724409448
21
-3.6001741732283463
0
LINE
8
BLACK
6
CONTINUOUS
10
7.6155754724409448
20
-3.6001741732283463
11
7.6273554330708659
21
-3.6072619291338581
0
LINE
8
BLACK
6
CONTINUOUS
10
7.6273554330708659
20
-3.6072619291338581
11
7.6383000393700788
21
-3.6155817716535434
0
LINE
8
BLACK
6
CONTINUOUS
10
7.6383000393700788
20
-3.6155817716535434
11
7.6482809055118111
21
-3.6250361811023621
0
LINE
8
BLACK
6
CONTINUOUS
10
7.6482809055118111
20
-3.6250361811023621
11
7.6571811023622045
21
-3.6355142913385827
0
LINE
8
BLACK
6
CONTINUOUS
10
7.6571811023622045
20
-3.6355142913385827
11
7.6648962204724409
21
-3.6468932677165355
0
LINE
8
BLACK
6
CONTINUOUS
10
7.6648962204724409
20
-3.6468932677165355
11
7.6713358661417317
21
-3.65903968503937
0
LINE
8
BLACK
6
CONTINUOUS
10
7.6713358661417317
20
-3.65903968503937
11
7.6764244488188975
21
-3.6718111417322832
0
LINE
8
BLACK
6
CONTINUOUS
10
7.6764244488188975
20
-3.6718111417322832
11
7.6801024015748034
21
-3.6850578740157478
0
LINE
8
BLACK
6
CONTINUOUS
10
7.6801024015748034
20
-3.6850578740157478
11
7.6823265748031497
21
-3.6986246456692911
0
LINE
8
BLACK
6
CONTINUOUS
10
7.6823265748031497
20
-3.6986246456692911
11
7.6830708661417324
21
-3.7123523622047245
0
LINE
8
BLACK
6
CONTINUOUS
10
7.6830708661417324
20
-3.7123523622047245
11
7.6830688976377948
21
-3.7123583858267715
0
LINE
8
BLACK
6
CONTINUOUS
10
7.6830688976377948
20
-3.7123583858267715
11
7.683069015748031
21
-3.7166816535433069
0
LINE
8
BLACK
6
CONTINUOUS
10
7.683069015748031
20
-3.7166816535433069
11
7.6843015354330708
21
-3.7252522047244092
0
LINE
8
BLACK
6
CONTINUOUS
10
7.6843015354330708
20
-3.7252522047244092
11
7.686741181102362
21
-3.7335600787401573
0
LINE
8
BLACK
6
CONTINUOUS
10
7.686741181102362
20
-3.7335600787401573
11
7.6903383070866136
21
-3.7414362598425197
0
LINE
8
BLACK
6
CONTINUOUS
10
7.6903383070866136
20
-3.7414362598425197
11
7.6950196850393695
21
-3.7487203149606296
0
LINE
8
BLACK
6
CONTINUOUS
10
7.6950196850393695
20
-3.7487203149606296
11
7.7006900787401573
21
-3.75526405511811
0
LINE
8
BLACK
6
CONTINUOUS
10
7.7006900787401573
20
-3.75526405511811
11
7.7072339763779523
21
-3.7609342125984253
0
LINE
8
BLACK
6
CONTINUOUS
10
7.7072339763779523
20
-3.7609342125984253
11
7.7145181889763776
21
-3.7656153543307087
0
LINE
8
BLACK
6
CONTINUOUS
10
7.7145181889763776
20
-3.7656153543307087
11
7.7223944488188971
21
-3.7692122440944882
0
LINE
8
BLACK
6
CONTINUOUS
10
7.7223944488188971
20
-3.7692122440944882
11
7.7307024409448815
21
-3.7716516535433069
0
LINE
8
BLACK
6
CONTINUOUS
10
7.7307024409448815
20
-3.7716516535433069
11
7.7392729921259837
21
-3.772883897637795
0
LINE
8
BLACK
6
CONTINUOUS
10
7.7392729921259837
20
-3.772883897637795
11
7.7436023622047241
21
-3.7728838582677167
0
LINE
8
BLACK
6
CONTINUOUS
10
7.7436023622047241
20
-3.7728838582677167
11
8.2123521653543303
21
-3.7728838582677167
0
LINE
8
BLACK
6
CONTINUOUS
10
8.2123521653543303
20
-3.7728838582677167
11
8.2166813779527565
21
-3.7728835039370079
0
LINE
8
BLACK
6
CONTINUOUS
10
8.2166813779527565
20
-3.7728835039370079
11
8.2252515354330704
21
-3.7716506299212598
0
LINE
8
BLACK
6
CONTINUOUS
10
8.2252515354330704
20
-3.7716506299212598
11
8.2335590944881893
21
-3.769210748031496
0
LINE
8
BLACK
6
CONTINUOUS
10
8.2335590944881893
20
-3.769210748031496
11
8.2414348818897629
21
-3.7656135826771653
0
LINE
8
BLACK
6
CONTINUOUS
10
8.2414348818897629
20
-3.7656135826771653
11
8.2487186614173229
21
-3.7609323228346456
0
LINE
8
BLACK
6
CONTINUOUS
10
8.2487186614173229
20
-3.7609323228346456
11
8.25526220472441
21
-3.7552622047244095
0
LINE
8
BLACK
6
CONTINUOUS
10
8.25526220472441
20
-3.7552622047244095
11
8.2609323228346447
21
-3.7487186614173229
0
LINE
8
BLACK
6
CONTINUOUS
10
8.2609323228346447
20
-3.7487186614173229
11
8.2656135826771653
21
-3.7414348818897638
0
LINE
8
BLACK
6
CONTINUOUS
10
8.2656135826771653
20
-3.7414348818897638
11
8.2692107480314956
21
-3.7335590944881889
0
LINE
8
BLACK
6
CONTINUOUS
10
8.2692107480314956
20
-3.7335590944881889
11
8.2716506299212593
21
-3.7252515354330709
0
LINE
8
BLACK
6
CONTINUOUS
10
8.2716506299212593
20
-3.7252515354330709
11
8.2728835039370079
21
-3.7166813779527557
0
LINE
8
BLACK
6
CONTINUOUS
10
8.2728835039370079
20
-3.7166813779527557
11
8.2728838582677167
21
-3.7123521653543308
0
LINE
8
BLACK
6
CONTINUOUS
10
8.2728838582677167
20
-3.7123521653543308
11
8.2728838582677167
21
-0.8998523622047244
0
LINE
8
BLACK
6
CONTINUOUS
10
8.2728838582677167
20
-0.8998523622047244
11
8.2728838582677167
21
-0.8998522834645669
0
LINE
8
BLACK
6
CONTINUOUS
10
8.2728838582677167
20
-0.8998522834645669
11
8.2728837401574804
21
-0.8955231496062992
0
LINE
8
BLACK
6
CONTINUOUS
10
8.2728837401574804
20
-0.8955231496062992
11
8.2716512992125981
21
-0.8869527952755906
0
LINE
8
BLACK
6
CONTINUOUS
10
8.2716512992125981
20
-0.8869527952755906
11
8.2692117322834644
21
-0.8786450393700788
0
LINE
8
BLACK
6
CONTINUOUS
10
8.2692117322834644
20
-0.8786450393700788
11
8.2656147244094491
21
-0.8707690157480314
0
LINE
8
BLACK
6
CONTINUOUS
10
8.2656147244094491
20
-0.8707690157480314
11
8.2609335039370073
21
-0.8634850393700787
0
LINE
8
BLACK
6
CONTINUOUS
10
8.2609335039370073
20
-0.8634850393700787
11
8.2552633858267708
21
-0.8569413385826772
0
LINE
8
BLACK
6
CONTINUOUS
10
8.2552633858267708
20
-0.8569413385826772
11
8.2487196850393705
21
-0.851271220472441
0
LINE
8
BLACK
6
CONTINUOUS
10
8.2487196850393705
20
-0.851271220472441
11
8.2414357086614167
21
-0.84659
0
LINE
8
BLACK
6
CONTINUOUS
10
8.2414357086614167
20
-0.84659
11
8.2335596850393706
21
-0.8429929921259842
0
LINE
8
BLACK
6
CONTINUOUS
10
8.2335596850393706
20
-0.8429929921259842
11
8.2252519291338579
21
-0.8405534251968504
0
LINE
8
BLACK
6
CONTINUOUS
10
8.2252519291338579
20
-0.8405534251968504
11
8.2166815748031485
21
-0.8393209842519684
0
LINE
8
BLACK
6
CONTINUOUS
10
8.2166815748031485
20
-0.8393209842519684
11
8.2123522834645666
21
-0.8393208661417323
0
LINE
8
BLACK
6
CONTINUOUS
10
8.2123522834645666
20
-0.8393208661417323
11
7.7436024803149603
21
-0.8393208661417323
0
LINE
8
BLACK
6
CONTINUOUS
10
7.7436024803149603
20
-0.8393208661417323
11
7.7436023622047241
21
-0.8393208661417323
0
LINE
8
BLACK
6
CONTINUOUS
10
7.7436023622047241
20
-0.8393208661417323
11
7.743592440944882
21
-0.8393188976377952
0
LINE
8
BLACK
6
CONTINUOUS
10
7.743592440944882
20
-0.8393188976377952
11
7.7392731496062988
21
-0.8393191338582677
0
LINE
8
BLACK
6
CONTINUOUS
10
7.7392731496062988
20
-0.8393191338582677
11
7.7307027165354327
21
-0.8405518503937007
0
LINE
8
BLACK
6
CONTINUOUS
10
7.7307027165354327
20
-0.8405518503937007
11
7.7223949212598422
21
-0.8429916535433071
0
LINE
8
BLACK
6
CONTINUOUS
10
7.7223949212598422
20
-0.8429916535433071
11
7.7145188976377952
21
-0.8465888976377952
0
LINE
8
BLACK
6
CONTINUOUS
10
7.7145188976377952
20
-0.8465888976377952
11
7.7072349212598423
21
-0.8512703149606299
0
LINE
8
BLACK
6
CONTINUOUS
10
7.7072349212598423
20
-0.8512703149606299
11
7.7006912598425199
21
-0.8569406299212599
0
LINE
8
BLACK
6
CONTINUOUS
10
7.7006912598425199
20
-0.8569406299212599
11
7.6950211417322834
21
-0.8634844881889764
0
LINE
8
BLACK
6
CONTINUOUS
10
7.6950211417322834
20
-0.8634844881889764
11
7.6903399212598424
21
-0.8707685826771653
0
LINE
8
BLACK
6
CONTINUOUS
10
7.6903399212598424
20
-0.8707685826771653
11
7.686742952755905
21
-0.8786447637795275
0
LINE
8
BLACK
6
CONTINUOUS
10
7.686742952755905
20
-0.8786447637795275
11
7.6843034251968501
21
-0.8869526377952756
0
LINE
8
BLACK
6
CONTINUOUS
10
7.6843034251968501
20
-0.8869526377952756
11
7.6830709842519687
21
-0.8955231102362204
0
LINE
8
BLACK
6
CONTINUOUS
10
7.6830709842519687
20
-0.8955231102362204
11
7.6830708661417324
21
-0.8998523622047244
0
LINE
8
BLACK
6
CONTINUOUS
10
7.6830708661417324
20
-0.8998523622047244
11
7.6823265748031497
21
-0.9135800787401575
0
LINE
8
BLACK
6
CONTINUOUS
10
7.6823265748031497
20
-0.9135800787401575
11
7.6801024015748034
21
-0.9271468503937008
0
LINE
8
BLACK
6
CONTINUOUS
10
7.6801024015748034
20
-0.9271468503937008
11
7.6764244488188975
21
-0.9403935826771653
0
LINE
8
BLACK
6
CONTINUOUS
10
7.6764244488188975
20
-0.9403935826771653
11
7.6713358661417317
21
-0.9531650393700787
0
LINE
8
BLACK
6
CONTINUOUS
10
7.6713358661417317
20
-0.9531650393700787
11
7.6648962204724409
21
-0.9653114566929134
0
LINE
8
BLACK
6
CONTINUOUS
10
7.6648962204724409
20
-0.9653114566929134
11
7.6571811023622045
21
-0.9766904330708661
0
LINE
8
BLACK
6
CONTINUOUS
10
7.6571811023622045
20
-0.9766904330708661
11
7.6482809055118111
21
-0.9871685433070866
0
LINE
8
BLACK
6
CONTINUOUS
10
7.6482809055118111
20
-0.9871685433070866
11
7.6383000393700788
21
-0.9966229527559055
0
LINE
8
BLACK
6
CONTINUOUS
10
7.6383000393700788
20
-0.9966229527559055
11
7.6273554330708659
21
-1.0049427952755905
0
LINE
8
BLACK
6
CONTINUOUS
10
7.6273554330708659
20
-1.0049427952755905
11
7.6155754724409448
21
-1.0120305511811023
0
LINE
8
BLACK
6
CONTINUOUS
10
7.6155754724409448
20
-1.0120305511811023
11
7.6030982677165353
21
-1.0178031496062991
0
LINE
8
BLACK
6
CONTINUOUS
10
7.6030982677165353
20
-1.0178031496062991
11
7.5900700393700786
21
-1.022192874015748
0
LINE
8
BLACK
6
CONTINUOUS
10
7.5900700393700786
20
-1.022192874015748
11
7.576643582677165
21
-1.0251482677165353
0
LINE
8
BLACK
6
CONTINUOUS
10
7.576643582677165
20
-1.0251482677165353
11
7.5629762992125986
21
-1.0266346456692914
0
LINE
8
BLACK
6
CONTINUOUS
10
7.5629762992125986
20
-1.0266346456692914
11
7.5492284251968504
21
-1.0266346456692914
0
LINE
8
BLACK
6
CONTINUOUS
10
7.5492284251968504
20
-1.0266346456692914
11
7.5355611417322832
21
-1.0251482677165353
0
LINE
8
BLACK
6
CONTINUOUS
10
7.5355611417322832
20
-1.0251482677165353
11
7.5221346850393696
21
-1.022192874015748
0
LINE
8
BLACK
6
CONTINUOUS
10
7.5221346850393696
20
-1.022192874015748
11
7.5091064566929129
21
-1.0178031496062991
0
LINE
8
BLACK
6
CONTINUOUS
10
7.5091064566929129
20
-1.0178031496062991
11
7.4966292519685034
21
-1.0120305511811023
0
LINE
8
BLACK
6
CONTINUOUS
10
7.4966292519685034
20
-1.0120305511811023
11
7.4848492913385822
21
-1.0049427952755905
0
LINE
8
BLACK
6
CONTINUOUS
10
7.4848492913385822
20
-1.0049427952755905
11
7.4739046850393702
21
-0.9966229527559055
0
LINE
8
BLACK
6
CONTINUOUS
10
7.4739046850393702
20
-0.9966229527559055
11
7.463923818897638
21
-0.9871685433070866
0
LINE
8
BLACK
6
CONTINUOUS
10
7.463923818897638
20
-0.9871685433070866
11
7.4550236220472437
21
-0.9766904330708661
0
LINE
8
BLACK
6
CONTINUOUS
10
7.4550236220472437
20
-0.9766904330708661
11
7.4473085039370073
21
-0.9653114566929134
0
LINE
8
BLACK
6
CONTINUOUS
10
7.4473085039370073
20
-0.9653114566929134
11
7.4408688582677165
21
-0.9531650393700787
0
LINE
8
BLACK
6
CONTINUOUS
10
7.4408688582677165
20
-0.9531650393700787
11
7.4357802755905507
21
-0.9403935826771653
0
LINE
8
BLACK
6
CONTINUOUS
10
7.4357802755905507
20
-0.9403935826771653
11
7.4321023228346457
21
-0.9271468503937008
0
LINE
8
BLACK
6
CONTINUOUS
10
7.4321023228346457
20
-0.9271468503937008
11
7.4298781496062993
21
-0.9135800787401575
0
LINE
8
BLACK
6
CONTINUOUS
10
7.4298781496062993
20
-0.9135800787401575
11
7.4291338582677167
21
-0.8998523622047244
0
LINE
8
BLACK
6
CONTINUOUS
10
7.4291338582677167
20
-0.8998523622047244
11
7.4291357874015747
21
-0.8998462992125984
0
LINE
8
BLACK
6
CONTINUOUS
10
7.4291357874015747
20
-0.8998462992125984
11
7.4291357086614171
21
-0.8955230708661417
0
LINE
8
BLACK
6
CONTINUOUS
10
7.4291357086614171
20
-0.8955230708661417
11
7.4279031889763774
21
-0.8869525196850393
0
LINE
8
BLACK
6
CONTINUOUS
10
7.4279031889763774
20
-0.8869525196850393
11
7.4254635433070861
21
-0.8786446456692913
0
LINE
8
BLACK
6
CONTINUOUS
10
7.4254635433070861
20
-0.8786446456692913
11
7.4218664173228346
21
-0.8707684645669291
0
LINE
8
BLACK
6
CONTINUOUS
10
7.4218664173228346
20
-0.8707684645669291
11
7.4171850393700787
21
-0.8634844094488189
0
LINE
8
BLACK
6
CONTINUOUS
10
7.4171850393700787
20
-0.8634844094488189
11
7.4115146456692909
21
-0.8569406692913386
0
LINE
8
BLACK
6
CONTINUOUS
10
7.4115146456692909
20
-0.8569406692913386
11
7.4049707480314959
21
-0.8512705118110236
0
LINE
8
BLACK
6
CONTINUOUS
10
7.4049707480314959
20
-0.8512705118110236
11
7.3976865354330705
21
-0.8465893700787401
0
LINE
8
BLACK
6
CONTINUOUS
10
7.3976865354330705
20
-0.8465893700787401
11
7.389810275590551
21
-0.8429924803149607
0
LINE
8
BLACK
6
CONTINUOUS
10
7.389810275590551
20
-0.8429924803149607
11
7.3815022834645667
21
-0.8405530708661417
0
LINE
8
BLACK
6
CONTINUOUS
10
7.3815022834645667
20
-0.8405530708661417
11
7.3729317322834644
21
-0.8393208267716535
0
LINE
8
BLACK
6
CONTINUOUS
10
7.3729317322834644
20
-0.8393208267716535
11
7.3686023622047241
21
-0.8393208661417323
0
LINE
8
BLACK
6
CONTINUOUS
10
7.3686023622047241
20
-0.8393208661417323
11
4.7748523622047241
21
-0.8393208661417323
0
LINE
8
BLACK
6
CONTINUOUS
10
4.7748523622047241
20
-0.8393208661417323
11
4.7748522047244091
21
-0.8393208267716535
0
LINE
8
BLACK
6
CONTINUOUS
10
4.7748522047244091
20
-0.8393208267716535
11
4.7748521259842516
21
-0.8393208661417323
0
LINE
8
BLACK
6
CONTINUOUS
10
4.7748521259842516
20
-0.8393208661417323
11
4.7702987795275593
21
-0.8387209448818898
0
LINE
8
BLACK
6
CONTINUOUS
10
4.7702987795275593
20
-0.8387209448818898
11
4.7660557874015748
21
-0.8369631889763779
0
LINE
8
BLACK
6
CONTINUOUS
10
4.7660557874015748
20
-0.8369631889763779
11
4.7624121653543305
21
-0.8341673622047244
0
LINE
8
BLACK
6
CONTINUOUS
10
4.7624121653543305
20
-0.8341673622047244
11
4.7596161023622043
21
-0.830523937007874
0
LINE
8
BLACK
6
CONTINUOUS
10
4.7596161023622043
20
-0.830523937007874
11
4.757858070866142
21
-0.8262810236220473
0
LINE
8
BLACK
6
CONTINUOUS
10
4.757858070866142
20
-0.8262810236220473
11
4.7572578740157478
21
-0.8217277165354331
0
LINE
8
BLACK
6
CONTINUOUS
10
4.7572578740157478
20
-0.8217277165354331
11
4.7572588582677167
21
-0.8217277165354331
0
LINE
8
BLACK
6
CONTINUOUS
10
4.7572588582677167
20
-0.8217277165354331
11
4.7572588582677167
21
-0.8217275590551181
0
LINE
8
BLACK
6
CONTINUOUS
10
4.7572588582677167
20
-0.8217275590551181
11
4.7572588582677167
21
-0.8217274803149606
0
LINE
8
BLACK
6
CONTINUOUS
10
4.7572588582677167
20
-0.8217274803149606
11
4.7572589370078742
21
-0.8217274803149606
0
LINE
8
BLACK
6
CONTINUOUS
10
4.7572589370078742
20
-0.8217274803149606
11
4.7572598031496058
21
-0.82172468503937
0
LINE
8
BLACK
6
CONTINUOUS
10
4.7572598031496058
20
-0.82172468503937
11
4.7572597244094483
21
-0.8199295275590551
0
LINE
8
BLACK
6
CONTINUOUS
10
4.7572597244094483
20
-0.8199295275590551
11
4.7563288582677163
21
-0.8164561417322834
0
LINE
8
BLACK
6
CONTINUOUS
10
4.7563288582677163
20
-0.8164561417322834
11
4.7545307480314962
21
-0.8133420472440944
0
LINE
8
BLACK
6
CONTINUOUS
10
4.7545307480314962
20
-0.8133420472440944
11
4.751987952755905
21
-0.8107994488188977
0
LINE
8
BLACK
6
CONTINUOUS
10
4.751987952755905
20
-0.8107994488188977
11
4.7488737401574799
21
-0.8090015354330709
0
LINE
8
BLACK
6
CONTINUOUS
10
4.7488737401574799
20
-0.8090015354330709
11
4.7454003149606301
21
-0.8080708661417323
0
LINE
8
BLACK
6
CONTINUOUS
10
4.7454003149606301
20
-0.8080708661417323
11
4.7436023622047241
21
-0.8080708661417323
0
LINE
8
BLACK
6
CONTINUOUS
10
4.7436023622047241
20
-0.8080708661417323
11
4.3686023622047241
21
-0.8080708661417323
  0
ENDSEC
  0
EOF
